<?xml version="1.0" encoding="UTF-8" standalone="no"?>
<svg
   xmlns:dc="http://purl.org/dc/elements/1.1/"
   xmlns:cc="http://creativecommons.org/ns#"
   xmlns:rdf="http://www.w3.org/1999/02/22-rdf-syntax-ns#"
   xmlns:svg="http://www.w3.org/2000/svg"
   xmlns="http://www.w3.org/2000/svg"
   version="1.1"
   id="svg7290"
   viewBox="0 0 342.89763 199.2756"
   height="56.240002mm"
   width="96.773331mm">
  <defs
     id="defs7292" />
  <metadata
     id="metadata7295">
    <rdf:RDF>
      <cc:Work
         rdf:about="">
        <dc:format>image/svg+xml</dc:format>
        <dc:type
           rdf:resource="http://purl.org/dc/dcmitype/StillImage" />
        <dc:title></dc:title>
      </cc:Work>
    </rdf:RDF>
  </metadata>
  <g
     transform="translate(563.48505,-382.14909)"
     id="layer1">
    <g
       id="g4"
       transform="matrix(1.7952756,0,0,1.7952756,-1711.5638,-191.44146)">
      <path
         id="rect6"
         d="m 750,390 80,0 0,40 -80,0 z"
         style="fill:#586681" />
      <path
         id="rect8"
         d="m 750,390 80,0 0,40 -80,0 z"
         style="fill:none;fill-opacity:0;stroke:#586681" />
      <g
         id="text10"
         style="font-style:normal;font-weight:normal;font-size:12.80000019px;font-family:sans-serif;text-anchor:middle;fill:#000000" />
    </g>
    <g
       id="text14"
       style="font-style:normal;font-weight:normal;font-size:12.80000019px;font-family:'Roboto Condensed';text-anchor:middle;fill:#93b449"
       transform="matrix(1.7952756,0,0,1.7952756,-1711.5638,-191.44146)">
      <path
         id="path5309"
         d="m 771.48125,414.97501 0,-9.1 2.16875,0 q 1.59375,0 2.475,1 0.88125,0.99375 0.88125,2.8 l 0,1.525 q 0,1.80625 -0.89375,2.79375 -0.89375,0.98125 -2.59375,0.98125 l -2.0375,0 z m 1.14375,-8.1125 0,7.13125 0.91875,0 q 1.20625,0 1.7625,-0.6875 0.55625,-0.69375 0.56875,-2.05 l 0,-1.6125 q 0,-1.4375 -0.55625,-2.10625 -0.55,-0.675 -1.66875,-0.675 l -1.025,0 z" />
      <path
         id="path5311"
         d="m 783.025,412.60001 -3.075,0 -0.70625,2.375 -1.175,0 2.93125,-9.1 0.98125,0 2.9375,9.1 -1.175,0 -0.71875,-2.375 z m -2.775,-0.9875 2.48125,0 -1.24375,-4.1375 -1.2375,4.1375 z" />
      <path
         id="path5313"
         d="m 787.30625,413.99376 3.56875,0 0,0.98125 -4.71875,0 0,-9.1 1.15,0 0,8.11875 z" />
      <path
         id="path5315"
         d="m 793.375,411.41251 0,3.5625 -1.14375,0 0,-9.1 2.9,0 q 1.26875,0 1.99375,0.7625 0.725,0.75625 0.725,2.01875 0,1.3125 -0.69375,2.025 -0.6875,0.70625 -1.94375,0.73125 l -1.8375,0 z m 0,-0.98125 1.75625,0 q 0.7625,0 1.16875,-0.45625 0.40625,-0.45625 0.40625,-1.30625 0,-0.81875 -0.41875,-1.3125 -0.41875,-0.49375 -1.15,-0.49375 l -1.7625,0 0,3.56875 z" />
      <path
         id="path5317"
         d="m 805.2875,414.97501 -1.15,0 0,-4.20625 -3.6625,0 0,4.20625 -1.14375,0 0,-9.1 1.14375,0 0,3.9125 3.6625,0 0,-3.9125 1.15,0 0,9.1 z" />
      <path
         id="path5319"
         d="m 808.475,414.97501 -1.14375,0 0,-9.1 1.14375,0 0,9.1 z" />
    </g>
    <g
       id="g32"
       transform="matrix(1.7952756,0,0,1.7952756,-1711.5638,-191.44146)">
      <path
         id="rect34"
         d="m 640,320 80,0 0,40 -80,0 z"
         style="fill:#f5f5f5" />
      <path
         id="rect36"
         d="m 640,320 80,0 0,40 -80,0 z"
         style="fill:none;fill-opacity:0;stroke:#f5f5f5" />
      <g
         id="text38"
         style="font-style:normal;font-weight:normal;font-size:12.80000019px;font-family:sans-serif;text-anchor:middle;fill:#000000" />
    </g>
    <g
       id="text42"
       style="font-style:normal;font-weight:normal;font-size:12.80000019px;font-family:'Roboto Condensed';text-anchor:middle;fill:#000000"
       transform="matrix(1.7952756,0,0,1.7952756,-1711.5638,-191.44146)">
      <path
         id="path5339"
         d="m 660.8625,344.97501 -1.14375,0 0,-9.1 1.14375,0 0,9.1 z" />
      <path
         id="path5341"
         d="m 668.1875,336.86251 -2.39375,0 0,8.1125 -1.14375,0 0,-8.1125 -2.3875,0 0,-0.9875 5.925,0 0,0.9875 z" />
      <path
         id="path5343"
         d="m 673.90625,340.76876 -3.21875,0 0,3.225 3.75,0 0,0.98125 -4.89375,0 0,-9.1 4.83125,0 0,0.9875 -3.6875,0 0,2.925 3.21875,0 0,0.98125 z" />
      <path
         id="path5345"
         d="m 678.64375,341.29376 -1.6,0 0,3.68125 -1.15,0 0,-9.1 2.55,0 q 1.3375,0 2.025,0.7 0.6875,0.69375 0.6875,2.0375 0,0.84375 -0.375,1.475 -0.36875,0.625 -1.05,0.94375 l 1.7625,3.86875 0,0.075 -1.23125,0 -1.61875,-3.68125 z m -1.6,-0.98125 1.3875,0 q 0.71875,0 1.14375,-0.4625 0.43125,-0.4625 0.43125,-1.2375 0,-1.75 -1.5875,-1.75 l -1.375,0 0,3.45 z" />
      <path
         id="path5347"
         d="m 686.9375,342.60001 -3.075,0 -0.70625,2.375 -1.175,0 2.93125,-9.1 0.98125,0 2.9375,9.1 -1.175,0 -0.71875,-2.375 z m -2.775,-0.9875 2.48125,0 -1.24375,-4.1375 -1.2375,4.1375 z" />
      <path
         id="path5349"
         d="m 694.5875,336.86251 -2.39375,0 0,8.1125 -1.14375,0 0,-8.1125 -2.3875,0 0,-0.9875 5.925,0 0,0.9875 z" />
      <path
         id="path5351"
         d="m 700.30625,340.76876 -3.21875,0 0,3.225 3.75,0 0,0.98125 -4.89375,0 0,-9.1 4.83125,0 0,0.9875 -3.6875,0 0,2.925 3.21875,0 0,0.98125 z" />
    </g>
    <g
       id="g46"
       transform="matrix(1.7952756,0,0,1.7952756,-1711.5638,-191.44146)">
      <path
         id="path48"
         d="M 766.805,386.329 A 165.642,165.642 0 0 0 720,350"
         style="fill:none;fill-opacity:0;stroke:#000000;stroke-width:1" />
      <path
         id="polygon50"
         d="m 769.278,389.146 -5.136,-2.206 2.716,-0.658 1.103,-2.569 z"
         style="fill:#000000" />
      <path
         id="polygon52"
         d="m 769.278,389.146 -5.136,-2.206 2.716,-0.658 1.103,-2.569 z"
         style="fill:none;fill-opacity:0;stroke:#000000;stroke-width:1" />
    </g>
    <g
       id="text146"
       style="font-style:normal;font-weight:normal;font-size:9.03110981px;font-family:Roboto;text-anchor:end;fill:#000000"
       transform="matrix(1.7952756,0,0,1.7952756,-1711.5638,-191.44146)">
      <path
         id="path5487"
         d="m 705.24759,400.01168 -1.50813,0 0,2.59733 -0.85107,0 0,-6.42056 2.12548,0 q 1.08479,0 1.66688,0.49389 0.58649,0.49389 0.58649,1.43757 0,0.59972 -0.32632,1.04511 -0.32191,0.44538 -0.89958,0.66586 l 1.50812,2.72521 0,0.0529 -0.9084,0 -1.39347,-2.59733 z m -1.50813,-0.69232 1.30087,0 q 0.63059,0 1.00101,-0.32632 0.37482,-0.32632 0.37482,-0.87313 0,-0.59531 -0.35718,-0.91281 -0.35278,-0.3175 -1.02306,-0.32191 l -1.29646,0 0,2.43417 z" />
      <path
         id="path5489"
         d="m 711.26686,402.60901 q -0.0706,-0.14111 -0.11466,-0.50271 -0.56885,0.5909 -1.35819,0.5909 -0.70556,0 -1.15976,-0.39687 -0.44979,-0.40129 -0.44979,-1.01424 0,-0.74524 0.56445,-1.15534 0.56885,-0.41452 1.59632,-0.41452 l 0.79375,0 0,-0.37482 q 0,-0.42775 -0.25577,-0.6791 -0.25576,-0.25577 -0.75406,-0.25577 -0.43656,0 -0.73201,0.22049 -0.29546,0.22049 -0.29546,0.53358 l -0.8202,0 q 0,-0.35719 0.25135,-0.68792 0.25576,-0.33514 0.68792,-0.52917 0.43656,-0.19402 0.95691,-0.19402 0.82461,0 1.29204,0.41451 0.46743,0.4101 0.48507,1.1333 l 0,2.19604 q 0,0.65705 0.16757,1.0451 l 0,0.0706 -0.85548,0 z m -1.35379,-0.62177 q 0.38365,0 0.72761,-0.19844 0.34396,-0.19844 0.4983,-0.51594 l 0,-0.97896 -0.63941,0 q -1.49931,0 -1.49931,0.87754 0,0.38365 0.25576,0.59972 0.25577,0.21608 0.65705,0.21608 z" />
      <path
         id="path5491"
         d="m 717.46693,401.48453 0.91722,-3.64684 0.8158,0 -1.38907,4.77132 -0.66145,0 -1.15976,-3.61597 -1.12889,3.61597 -0.66146,0 -1.38465,-4.77132 0.81139,0 0.93927,3.57187 1.11125,-3.57187 0.65705,0 1.1333,3.64684 z" />
      <path
         id="path5493"
         d="m 722.07508,400.18366 q 0,-1.09802 0.52035,-1.76389 0.52035,-0.67027 1.36261,-0.67027 0.83784,0 1.32732,0.57326 l 0,-2.48708 0.8158,0 0,6.77333 -0.74965,0 -0.0397,-0.51153 q -0.48948,0.59972 -1.3626,0.59972 -0.82903,0 -1.35379,-0.67909 -0.52035,-0.6791 -0.52035,-1.77271 l 0,-0.0617 z m 0.8158,0.0926 q 0,0.81138 0.33514,1.27 0.33514,0.45861 0.92604,0.45861 0.77611,0 1.1333,-0.69674 l 0,-2.19163 q -0.36601,-0.67469 -1.12448,-0.67469 -0.59972,0 -0.93486,0.46302 -0.33514,0.46302 -0.33514,1.37143 z" />
      <path
         id="path5495"
         d="m 730.31686,402.60901 q -0.0706,-0.14111 -0.11466,-0.50271 -0.56885,0.5909 -1.35819,0.5909 -0.70556,0 -1.15976,-0.39687 -0.44979,-0.40129 -0.44979,-1.01424 0,-0.74524 0.56444,-1.15534 0.56886,-0.41452 1.59632,-0.41452 l 0.79375,0 0,-0.37482 q 0,-0.42775 -0.25576,-0.6791 -0.25576,-0.25577 -0.75406,-0.25577 -0.43657,0 -0.73202,0.22049 -0.29545,0.22049 -0.29545,0.53358 l -0.82021,0 q 0,-0.35719 0.25136,-0.68792 0.25576,-0.33514 0.68791,-0.52917 0.43657,-0.19402 0.95691,-0.19402 0.82462,0 1.29205,0.41451 0.46743,0.4101 0.48507,1.1333 l 0,2.19604 q 0,0.65705 0.16757,1.0451 l 0,0.0706 -0.85548,0 z m -1.35379,-0.62177 q 0.38365,0 0.7276,-0.19844 0.34396,-0.19844 0.4983,-0.51594 l 0,-0.97896 -0.63941,0 q -1.4993,0 -1.4993,0.87754 0,0.38365 0.25576,0.59972 0.25577,0.21608 0.65705,0.21608 z" />
      <path
         id="path5497"
         d="m 733.39925,396.68234 0,1.15535 0.89076,0 0,0.63059 -0.89076,0 0,2.95892 q 0,0.28664 0.11906,0.43216 0.11907,0.14111 0.4057,0.14111 0.14111,0 0.38805,-0.0529 l 0,0.66146 q -0.32191,0.0882 -0.62618,0.0882 -0.5468,0 -0.82462,-0.33073 -0.27781,-0.33073 -0.27781,-0.93927 l 0,-2.95892 -0.86871,0 0,-0.63059 0.86871,0 0,-1.15535 0.8158,0 z" />
      <path
         id="path5499"
         d="m 738.1838,402.60901 q -0.0706,-0.14111 -0.11465,-0.50271 -0.56886,0.5909 -1.3582,0.5909 -0.70555,0 -1.15976,-0.39687 -0.44979,-0.40129 -0.44979,-1.01424 0,-0.74524 0.56445,-1.15534 0.56885,-0.41452 1.59632,-0.41452 l 0.79375,0 0,-0.37482 q 0,-0.42775 -0.25577,-0.6791 -0.25576,-0.25577 -0.75406,-0.25577 -0.43656,0 -0.73201,0.22049 -0.29545,0.22049 -0.29545,0.53358 l -0.82021,0 q 0,-0.35719 0.25135,-0.68792 0.25576,-0.33514 0.68792,-0.52917 0.43656,-0.19402 0.95691,-0.19402 0.82462,0 1.29205,0.41451 0.46743,0.4101 0.48507,1.1333 l 0,2.19604 q 0,0.65705 0.16756,1.0451 l 0,0.0706 -0.85548,0 z m -1.35379,-0.62177 q 0.38365,0 0.72761,-0.19844 0.34396,-0.19844 0.4983,-0.51594 l 0,-0.97896 -0.63941,0 q -1.49931,0 -1.49931,0.87754 0,0.38365 0.25577,0.59972 0.25576,0.21608 0.65704,0.21608 z" />
    </g>
    <g
       id="g190"
       transform="matrix(1.7952756,0,0,1.7952756,-1711.5638,-191.44146)">
      <path
         id="path192"
         d="M 703.195,363.671 A 165.642,165.642 0 0 0 750,400"
         style="fill:none;fill-opacity:0;stroke:#000000;stroke-width:1" />
      <path
         id="polygon194"
         d="m 700.722,360.854 5.136,2.206 -2.716,0.658 -1.103,2.569 z"
         style="fill:#000000" />
      <path
         id="polygon196"
         d="m 700.722,360.854 5.136,2.206 -2.716,0.658 -1.103,2.569 z"
         style="fill:none;fill-opacity:0;stroke:#000000;stroke-width:1" />
    </g>
  </g>
</svg>
