<?xml version="1.0" encoding="UTF-8" standalone="no"?>
<svg
   xmlns:dc="http://purl.org/dc/elements/1.1/"
   xmlns:cc="http://creativecommons.org/ns#"
   xmlns:rdf="http://www.w3.org/1999/02/22-rdf-syntax-ns#"
   xmlns:svg="http://www.w3.org/2000/svg"
   xmlns="http://www.w3.org/2000/svg"
   version="1.1"
   id="svg7290"
   viewBox="0 0 342.89763 199.2756"
   height="56.240002mm"
   width="96.773331mm">
  <defs
     id="defs7292" />
  <metadata
     id="metadata7295">
    <rdf:RDF>
      <cc:Work
         rdf:about="">
        <dc:format>image/svg+xml</dc:format>
        <dc:type
           rdf:resource="http://purl.org/dc/dcmitype/StillImage" />
        <dc:title></dc:title>
      </cc:Work>
    </rdf:RDF>
  </metadata>
  <g
     transform="translate(563.48505,-382.14909)"
     id="layer1">
    <g
       id="g4"
       transform="matrix(1.7952756,0,0,1.7952756,-1711.5638,-191.44146)">
      <path
         id="rect6"
         d="m 750,390 80,0 0,40 -80,0 z"
         style="fill:#586681" />
      <path
         id="rect8"
         d="m 750,390 80,0 0,40 -80,0 z"
         style="fill:none;fill-opacity:0;stroke:#586681" />
      <g
         id="text10"
         style="font-style:normal;font-weight:normal;font-size:12.80000019px;font-family:sans-serif;text-anchor:middle;fill:#000000" />
    </g>
    <g
       id="text14"
       style="font-style:normal;font-weight:normal;font-size:12.80000019px;font-family:'Roboto Condensed';text-anchor:middle;fill:#93b449"
       transform="matrix(1.7952756,0,0,1.7952756,-1711.5638,-191.44146)">
      <path
         id="path5309"
         d="m 771.48125,414.97501 0,-9.1 2.16875,0 q 1.59375,0 2.475,1 0.88125,0.99375 0.88125,2.8 l 0,1.525 q 0,1.80625 -0.89375,2.79375 -0.89375,0.98125 -2.59375,0.98125 l -2.0375,0 z m 1.14375,-8.1125 0,7.13125 0.91875,0 q 1.20625,0 1.7625,-0.6875 0.55625,-0.69375 0.56875,-2.05 l 0,-1.6125 q 0,-1.4375 -0.55625,-2.10625 -0.55,-0.675 -1.66875,-0.675 l -1.025,0 z" />
      <path
         id="path5311"
         d="m 783.025,412.60001 -3.075,0 -0.70625,2.375 -1.175,0 2.93125,-9.1 0.98125,0 2.9375,9.1 -1.175,0 -0.71875,-2.375 z m -2.775,-0.9875 2.48125,0 -1.24375,-4.1375 -1.2375,4.1375 z" />
      <path
         id="path5313"
         d="m 787.30625,413.99376 3.56875,0 0,0.98125 -4.71875,0 0,-9.1 1.15,0 0,8.11875 z" />
      <path
         id="path5315"
         d="m 793.375,411.41251 0,3.5625 -1.14375,0 0,-9.1 2.9,0 q 1.26875,0 1.99375,0.7625 0.725,0.75625 0.725,2.01875 0,1.3125 -0.69375,2.025 -0.6875,0.70625 -1.94375,0.73125 l -1.8375,0 z m 0,-0.98125 1.75625,0 q 0.7625,0 1.16875,-0.45625 0.40625,-0.45625 0.40625,-1.30625 0,-0.81875 -0.41875,-1.3125 -0.41875,-0.49375 -1.15,-0.49375 l -1.7625,0 0,3.56875 z" />
      <path
         id="path5317"
         d="m 805.2875,414.97501 -1.15,0 0,-4.20625 -3.6625,0 0,4.20625 -1.14375,0 0,-9.1 1.14375,0 0,3.9125 3.6625,0 0,-3.9125 1.15,0 0,9.1 z" />
      <path
         id="path5319"
         d="m 808.475,414.97501 -1.14375,0 0,-9.1 1.14375,0 0,9.1 z" />
    </g>
    <g
       id="g32"
       transform="matrix(1.7952756,0,0,1.7952756,-1711.5638,-191.44146)">
      <path
         id="rect34"
         d="m 640,320 80,0 0,40 -80,0 z"
         style="fill:#f5f5f5" />
      <path
         id="rect36"
         d="m 640,320 80,0 0,40 -80,0 z"
         style="fill:none;fill-opacity:0;stroke:#f5f5f5" />
      <g
         id="text38"
         style="font-style:normal;font-weight:normal;font-size:12.80000019px;font-family:sans-serif;text-anchor:middle;fill:#000000" />
    </g>
    <g
       id="text42"
       style="font-style:normal;font-weight:normal;font-size:12.80000019px;font-family:'Roboto Condensed';text-anchor:middle;fill:#000000"
       transform="matrix(1.7952756,0,0,1.7952756,-1711.5638,-191.44146)">
      <path
         id="path5339"
         d="m 660.8625,344.97501 -1.14375,0 0,-9.1 1.14375,0 0,9.1 z" />
      <path
         id="path5341"
         d="m 668.1875,336.86251 -2.39375,0 0,8.1125 -1.14375,0 0,-8.1125 -2.3875,0 0,-0.9875 5.925,0 0,0.9875 z" />
      <path
         id="path5343"
         d="m 673.90625,340.76876 -3.21875,0 0,3.225 3.75,0 0,0.98125 -4.89375,0 0,-9.1 4.83125,0 0,0.9875 -3.6875,0 0,2.925 3.21875,0 0,0.98125 z" />
      <path
         id="path5345"
         d="m 678.64375,341.29376 -1.6,0 0,3.68125 -1.15,0 0,-9.1 2.55,0 q 1.3375,0 2.025,0.7 0.6875,0.69375 0.6875,2.0375 0,0.84375 -0.375,1.475 -0.36875,0.625 -1.05,0.94375 l 1.7625,3.86875 0,0.075 -1.23125,0 -1.61875,-3.68125 z m -1.6,-0.98125 1.3875,0 q 0.71875,0 1.14375,-0.4625 0.43125,-0.4625 0.43125,-1.2375 0,-1.75 -1.5875,-1.75 l -1.375,0 0,3.45 z" />
      <path
         id="path5347"
         d="m 686.9375,342.60001 -3.075,0 -0.70625,2.375 -1.175,0 2.93125,-9.1 0.98125,0 2.9375,9.1 -1.175,0 -0.71875,-2.375 z m -2.775,-0.9875 2.48125,0 -1.24375,-4.1375 -1.2375,4.1375 z" />
      <path
         id="path5349"
         d="m 694.5875,336.86251 -2.39375,0 0,8.1125 -1.14375,0 0,-8.1125 -2.3875,0 0,-0.9875 5.925,0 0,0.9875 z" />
      <path
         id="path5351"
         d="m 700.30625,340.76876 -3.21875,0 0,3.225 3.75,0 0,0.98125 -4.89375,0 0,-9.1 4.83125,0 0,0.9875 -3.6875,0 0,2.925 3.21875,0 0,0.98125 z" />
    </g>
    <g
       id="g46"
       transform="matrix(1.7952756,0,0,1.7952756,-1711.5638,-191.44146)">
      <path
         id="path48"
         d="M 766.805,386.329 A 165.642,165.642 0 0 0 720,350"
         style="fill:none;fill-opacity:0;stroke:#000000;stroke-width:1" />
      <path
         id="polygon50"
         d="m 769.278,389.146 -5.136,-2.206 2.716,-0.658 1.103,-2.569 z"
         style="fill:#000000" />
      <path
         id="polygon52"
         d="m 769.278,389.146 -5.136,-2.206 2.716,-0.658 1.103,-2.569 z"
         style="fill:none;fill-opacity:0;stroke:#000000;stroke-width:1" />
    </g>
    <g
       id="g190"
       transform="matrix(1.7952756,0,0,1.7952756,-1711.5638,-191.44146)">
      <path
         id="path192"
         d="M 703.195,363.671 A 165.642,165.642 0 0 0 750,400"
         style="fill:none;fill-opacity:0;stroke:#000000;stroke-width:1" />
      <path
         id="polygon194"
         d="m 700.722,360.854 5.136,2.206 -2.716,0.658 -1.103,2.569 z"
         style="fill:#000000" />
      <path
         id="polygon196"
         d="m 700.722,360.854 5.136,2.206 -2.716,0.658 -1.103,2.569 z"
         style="fill:none;fill-opacity:0;stroke:#000000;stroke-width:1" />
    </g>
  </g>
</svg>
