<?xml version="1.0" encoding="UTF-8" standalone="no"?>
<svg
   xmlns:dc="http://purl.org/dc/elements/1.1/"
   xmlns:cc="http://creativecommons.org/ns#"
   xmlns:rdf="http://www.w3.org/1999/02/22-rdf-syntax-ns#"
   xmlns:svg="http://www.w3.org/2000/svg"
   xmlns="http://www.w3.org/2000/svg"
   version="1.1"
   id="svg9906"
   viewBox="0 0 342.89763 199.27559"
   height="56.239998mm"
   width="96.773331mm">
  <defs
     id="defs9908" />
  <metadata
     id="metadata9911">
    <rdf:RDF>
      <cc:Work
         rdf:about="">
        <dc:format>image/svg+xml</dc:format>
        <dc:type
           rdf:resource="http://purl.org/dc/dcmitype/StillImage" />
        <dc:title></dc:title>
      </cc:Work>
    </rdf:RDF>
  </metadata>
  <g
     transform="translate(251.34215,137.85091)"
     id="layer1">
    <g
       id="g4"
       transform="matrix(1.7952756,0,0,1.7952756,-1399.4209,-711.44146)">
      <path
         id="rect6"
         d="m 750,390 80,0 0,40 -80,0 z"
         style="fill:#586681" />
      <path
         id="rect8"
         d="m 750,390 80,0 0,40 -80,0 z"
         style="fill:none;fill-opacity:0;stroke:#586681" />
      <g
         id="text10"
         style="font-style:normal;font-weight:normal;font-size:12.80000019px;font-family:sans-serif;text-anchor:middle;fill:#000000" />
    </g>
    <g
       id="text14"
       style="font-style:normal;font-weight:normal;font-size:12.80000019px;font-family:'Roboto Condensed';text-anchor:middle;fill:#93b449"
       transform="matrix(1.7952756,0,0,1.7952756,-1399.4209,-711.44146)">
      <path
         id="path5309"
         d="m 771.48125,414.97501 0,-9.1 2.16875,0 q 1.59375,0 2.475,1 0.88125,0.99375 0.88125,2.8 l 0,1.525 q 0,1.80625 -0.89375,2.79375 -0.89375,0.98125 -2.59375,0.98125 l -2.0375,0 z m 1.14375,-8.1125 0,7.13125 0.91875,0 q 1.20625,0 1.7625,-0.6875 0.55625,-0.69375 0.56875,-2.05 l 0,-1.6125 q 0,-1.4375 -0.55625,-2.10625 -0.55,-0.675 -1.66875,-0.675 l -1.025,0 z" />
      <path
         id="path5311"
         d="m 783.025,412.60001 -3.075,0 -0.70625,2.375 -1.175,0 2.93125,-9.1 0.98125,0 2.9375,9.1 -1.175,0 -0.71875,-2.375 z m -2.775,-0.9875 2.48125,0 -1.24375,-4.1375 -1.2375,4.1375 z" />
      <path
         id="path5313"
         d="m 787.30625,413.99376 3.56875,0 0,0.98125 -4.71875,0 0,-9.1 1.15,0 0,8.11875 z" />
      <path
         id="path5315"
         d="m 793.375,411.41251 0,3.5625 -1.14375,0 0,-9.1 2.9,0 q 1.26875,0 1.99375,0.7625 0.725,0.75625 0.725,2.01875 0,1.3125 -0.69375,2.025 -0.6875,0.70625 -1.94375,0.73125 l -1.8375,0 z m 0,-0.98125 1.75625,0 q 0.7625,0 1.16875,-0.45625 0.40625,-0.45625 0.40625,-1.30625 0,-0.81875 -0.41875,-1.3125 -0.41875,-0.49375 -1.15,-0.49375 l -1.7625,0 0,3.56875 z" />
      <path
         id="path5317"
         d="m 805.2875,414.97501 -1.15,0 0,-4.20625 -3.6625,0 0,4.20625 -1.14375,0 0,-9.1 1.14375,0 0,3.9125 3.6625,0 0,-3.9125 1.15,0 0,9.1 z" />
      <path
         id="path5319"
         d="m 808.475,414.97501 -1.14375,0 0,-9.1 1.14375,0 0,9.1 z" />
    </g>
    <g
       id="g32"
       transform="matrix(1.7952756,0,0,1.7952756,-1399.4209,-711.44146)">
      <path
         id="rect34"
         d="m 640,320 80,0 0,40 -80,0 z"
         style="fill:#f5f5f5" />
      <path
         id="rect36"
         d="m 640,320 80,0 0,40 -80,0 z"
         style="fill:none;fill-opacity:0;stroke:#f5f5f5" />
      <g
         id="text38"
         style="font-style:normal;font-weight:normal;font-size:12.80000019px;font-family:sans-serif;text-anchor:middle;fill:#000000" />
    </g>
    <g
       id="text42"
       style="font-style:normal;font-weight:normal;font-size:12.80000019px;font-family:'Roboto Condensed';text-anchor:middle;fill:#000000"
       transform="matrix(1.7952756,0,0,1.7952756,-1399.4209,-711.44146)">
      <path
         id="path5339"
         d="m 660.8625,344.97501 -1.14375,0 0,-9.1 1.14375,0 0,9.1 z" />
      <path
         id="path5341"
         d="m 668.1875,336.86251 -2.39375,0 0,8.1125 -1.14375,0 0,-8.1125 -2.3875,0 0,-0.9875 5.925,0 0,0.9875 z" />
      <path
         id="path5343"
         d="m 673.90625,340.76876 -3.21875,0 0,3.225 3.75,0 0,0.98125 -4.89375,0 0,-9.1 4.83125,0 0,0.9875 -3.6875,0 0,2.925 3.21875,0 0,0.98125 z" />
      <path
         id="path5345"
         d="m 678.64375,341.29376 -1.6,0 0,3.68125 -1.15,0 0,-9.1 2.55,0 q 1.3375,0 2.025,0.7 0.6875,0.69375 0.6875,2.0375 0,0.84375 -0.375,1.475 -0.36875,0.625 -1.05,0.94375 l 1.7625,3.86875 0,0.075 -1.23125,0 -1.61875,-3.68125 z m -1.6,-0.98125 1.3875,0 q 0.71875,0 1.14375,-0.4625 0.43125,-0.4625 0.43125,-1.2375 0,-1.75 -1.5875,-1.75 l -1.375,0 0,3.45 z" />
      <path
         id="path5347"
         d="m 686.9375,342.60001 -3.075,0 -0.70625,2.375 -1.175,0 2.93125,-9.1 0.98125,0 2.9375,9.1 -1.175,0 -0.71875,-2.375 z m -2.775,-0.9875 2.48125,0 -1.24375,-4.1375 -1.2375,4.1375 z" />
      <path
         id="path5349"
         d="m 694.5875,336.86251 -2.39375,0 0,8.1125 -1.14375,0 0,-8.1125 -2.3875,0 0,-0.9875 5.925,0 0,0.9875 z" />
      <path
         id="path5351"
         d="m 700.30625,340.76876 -3.21875,0 0,3.225 3.75,0 0,0.98125 -4.89375,0 0,-9.1 4.83125,0 0,0.9875 -3.6875,0 0,2.925 3.21875,0 0,0.98125 z" />
    </g>
    <g
       id="g46"
       transform="matrix(1.7952756,0,0,1.7952756,-1399.4209,-711.44146)">
      <path
         id="path48"
         d="M 766.805,386.329 A 165.642,165.642 0 0 0 720,350"
         style="fill:none;fill-opacity:0;stroke:#000000;stroke-width:1" />
      <path
         id="polygon50"
         d="m 769.278,389.146 -5.136,-2.206 2.716,-0.658 1.103,-2.569 z"
         style="fill:#000000" />
      <path
         id="polygon52"
         d="m 769.278,389.146 -5.136,-2.206 2.716,-0.658 1.103,-2.569 z"
         style="fill:none;fill-opacity:0;stroke:#000000;stroke-width:1" />
    </g>
    <g
       id="text146"
       style="font-style:normal;font-weight:normal;font-size:9.03110981px;font-family:Roboto;text-anchor:end;fill:#000000"
       transform="matrix(1.7952756,0,0,1.7952756,-1399.4209,-711.44146)">
      <path
         id="path5487"
         d="m 705.24759,400.01168 -1.50813,0 0,2.59733 -0.85107,0 0,-6.42056 2.12548,0 q 1.08479,0 1.66688,0.49389 0.58649,0.49389 0.58649,1.43757 0,0.59972 -0.32632,1.04511 -0.32191,0.44538 -0.89958,0.66586 l 1.50812,2.72521 0,0.0529 -0.9084,0 -1.39347,-2.59733 z m -1.50813,-0.69232 1.30087,0 q 0.63059,0 1.00101,-0.32632 0.37482,-0.32632 0.37482,-0.87313 0,-0.59531 -0.35718,-0.91281 -0.35278,-0.3175 -1.02306,-0.32191 l -1.29646,0 0,2.43417 z" />
      <path
         id="path5489"
         d="m 711.26686,402.60901 q -0.0706,-0.14111 -0.11466,-0.50271 -0.56885,0.5909 -1.35819,0.5909 -0.70556,0 -1.15976,-0.39687 -0.44979,-0.40129 -0.44979,-1.01424 0,-0.74524 0.56445,-1.15534 0.56885,-0.41452 1.59632,-0.41452 l 0.79375,0 0,-0.37482 q 0,-0.42775 -0.25577,-0.6791 -0.25576,-0.25577 -0.75406,-0.25577 -0.43656,0 -0.73201,0.22049 -0.29546,0.22049 -0.29546,0.53358 l -0.8202,0 q 0,-0.35719 0.25135,-0.68792 0.25576,-0.33514 0.68792,-0.52917 0.43656,-0.19402 0.95691,-0.19402 0.82461,0 1.29204,0.41451 0.46743,0.4101 0.48507,1.1333 l 0,2.19604 q 0,0.65705 0.16757,1.0451 l 0,0.0706 -0.85548,0 z m -1.35379,-0.62177 q 0.38365,0 0.72761,-0.19844 0.34396,-0.19844 0.4983,-0.51594 l 0,-0.97896 -0.63941,0 q -1.49931,0 -1.49931,0.87754 0,0.38365 0.25576,0.59972 0.25577,0.21608 0.65705,0.21608 z" />
      <path
         id="path5491"
         d="m 717.46693,401.48453 0.91722,-3.64684 0.8158,0 -1.38907,4.77132 -0.66145,0 -1.15976,-3.61597 -1.12889,3.61597 -0.66146,0 -1.38465,-4.77132 0.81139,0 0.93927,3.57187 1.11125,-3.57187 0.65705,0 1.1333,3.64684 z" />
      <path
         id="path5493"
         d="m 722.07508,400.18366 q 0,-1.09802 0.52035,-1.76389 0.52035,-0.67027 1.36261,-0.67027 0.83784,0 1.32732,0.57326 l 0,-2.48708 0.8158,0 0,6.77333 -0.74965,0 -0.0397,-0.51153 q -0.48948,0.59972 -1.3626,0.59972 -0.82903,0 -1.35379,-0.67909 -0.52035,-0.6791 -0.52035,-1.77271 l 0,-0.0617 z m 0.8158,0.0926 q 0,0.81138 0.33514,1.27 0.33514,0.45861 0.92604,0.45861 0.77611,0 1.1333,-0.69674 l 0,-2.19163 q -0.36601,-0.67469 -1.12448,-0.67469 -0.59972,0 -0.93486,0.46302 -0.33514,0.46302 -0.33514,1.37143 z" />
      <path
         id="path5495"
         d="m 730.31686,402.60901 q -0.0706,-0.14111 -0.11466,-0.50271 -0.56885,0.5909 -1.35819,0.5909 -0.70556,0 -1.15976,-0.39687 -0.44979,-0.40129 -0.44979,-1.01424 0,-0.74524 0.56444,-1.15534 0.56886,-0.41452 1.59632,-0.41452 l 0.79375,0 0,-0.37482 q 0,-0.42775 -0.25576,-0.6791 -0.25576,-0.25577 -0.75406,-0.25577 -0.43657,0 -0.73202,0.22049 -0.29545,0.22049 -0.29545,0.53358 l -0.82021,0 q 0,-0.35719 0.25136,-0.68792 0.25576,-0.33514 0.68791,-0.52917 0.43657,-0.19402 0.95691,-0.19402 0.82462,0 1.29205,0.41451 0.46743,0.4101 0.48507,1.1333 l 0,2.19604 q 0,0.65705 0.16757,1.0451 l 0,0.0706 -0.85548,0 z m -1.35379,-0.62177 q 0.38365,0 0.7276,-0.19844 0.34396,-0.19844 0.4983,-0.51594 l 0,-0.97896 -0.63941,0 q -1.4993,0 -1.4993,0.87754 0,0.38365 0.25576,0.59972 0.25577,0.21608 0.65705,0.21608 z" />
      <path
         id="path5497"
         d="m 733.39925,396.68234 0,1.15535 0.89076,0 0,0.63059 -0.89076,0 0,2.95892 q 0,0.28664 0.11906,0.43216 0.11907,0.14111 0.4057,0.14111 0.14111,0 0.38805,-0.0529 l 0,0.66146 q -0.32191,0.0882 -0.62618,0.0882 -0.5468,0 -0.82462,-0.33073 -0.27781,-0.33073 -0.27781,-0.93927 l 0,-2.95892 -0.86871,0 0,-0.63059 0.86871,0 0,-1.15535 0.8158,0 z" />
      <path
         id="path5499"
         d="m 738.1838,402.60901 q -0.0706,-0.14111 -0.11465,-0.50271 -0.56886,0.5909 -1.3582,0.5909 -0.70555,0 -1.15976,-0.39687 -0.44979,-0.40129 -0.44979,-1.01424 0,-0.74524 0.56445,-1.15534 0.56885,-0.41452 1.59632,-0.41452 l 0.79375,0 0,-0.37482 q 0,-0.42775 -0.25577,-0.6791 -0.25576,-0.25577 -0.75406,-0.25577 -0.43656,0 -0.73201,0.22049 -0.29545,0.22049 -0.29545,0.53358 l -0.82021,0 q 0,-0.35719 0.25135,-0.68792 0.25576,-0.33514 0.68792,-0.52917 0.43656,-0.19402 0.95691,-0.19402 0.82462,0 1.29205,0.41451 0.46743,0.4101 0.48507,1.1333 l 0,2.19604 q 0,0.65705 0.16756,1.0451 l 0,0.0706 -0.85548,0 z m -1.35379,-0.62177 q 0.38365,0 0.72761,-0.19844 0.34396,-0.19844 0.4983,-0.51594 l 0,-0.97896 -0.63941,0 q -1.49931,0 -1.49931,0.87754 0,0.38365 0.25577,0.59972 0.25576,0.21608 0.65704,0.21608 z" />
    </g>
    <g
       id="g190"
       transform="matrix(1.7952756,0,0,1.7952756,-1399.4209,-711.44146)">
      <path
         id="path192"
         d="M 703.195,363.671 A 165.642,165.642 0 0 0 750,400"
         style="fill:none;fill-opacity:0;stroke:#000000;stroke-width:1" />
      <path
         id="polygon194"
         d="m 700.722,360.854 5.136,2.206 -2.716,0.658 -1.103,2.569 z"
         style="fill:#000000" />
      <path
         id="polygon196"
         d="m 700.722,360.854 5.136,2.206 -2.716,0.658 -1.103,2.569 z"
         style="fill:none;fill-opacity:0;stroke:#000000;stroke-width:1" />
    </g>
    <g
       id="text4404"
       style="font-style:normal;font-variant:normal;font-weight:normal;font-stretch:normal;font-size:11.1403513px;line-height:100%;font-family:Helvetica;-inkscape-font-specification:Helvetica;letter-spacing:0px;word-spacing:0px;fill:#000000;fill-opacity:1;stroke:none;stroke-width:1px;stroke-linecap:butt;stroke-linejoin:miter;stroke-opacity:1"
       transform="matrix(1.7952756,0,0,1.7952756,-1399.4209,-711.44146)">
      <path
         id="path5593"
         style="font-style:normal;font-variant:normal;font-weight:normal;font-stretch:normal;font-size:9.03064728px;line-height:100%;font-family:Roboto;-inkscape-font-specification:Roboto"
         d="m 728.73795,346.06917 -2.68979,0 -0.6041,1.67561 -0.87308,0 2.45168,-6.42022 0.74079,0 2.45609,6.42022 -0.86867,0 -0.61292,-1.67561 z m -2.43404,-0.6967 2.1827,0 -1.09356,-3.00286 -1.08914,3.00286 z" />
      <path
         id="path5595"
         style="font-style:normal;font-variant:normal;font-weight:normal;font-stretch:normal;font-size:9.03064728px;line-height:100%;font-family:Roboto;-inkscape-font-specification:Roboto"
         d="m 731.72759,342.97371 0.0265,0.59969 q 0.54678,-0.68788 1.42868,-0.68788 1.51246,0 1.52569,1.70647 l 0,3.15279 -0.81576,0 0,-3.1572 q -0.004,-0.51591 -0.23811,-0.76284 -0.2293,-0.24693 -0.71875,-0.24693 -0.39686,0 -0.6967,0.21165 -0.29985,0.21166 -0.46741,0.5556 l 0,3.39972 -0.81575,0 0,-4.77107 0.77166,0 z" />
      <path
         id="path5597"
         style="font-style:normal;font-variant:normal;font-weight:normal;font-stretch:normal;font-size:9.03064728px;line-height:100%;font-family:Roboto;-inkscape-font-specification:Roboto"
         d="m 736.71914,342.97371 0.0264,0.59969 q 0.54678,-0.68788 1.42868,-0.68788 1.51246,0 1.52569,1.70647 l 0,3.15279 -0.81576,0 0,-3.1572 q -0.004,-0.51591 -0.23811,-0.76284 -0.2293,-0.24693 -0.71875,-0.24693 -0.39686,0 -0.6967,0.21165 -0.29985,0.21166 -0.46741,0.5556 l 0,3.39972 -0.81576,0 0,-4.77107 0.77167,0 z" />
      <path
         id="path5599"
         style="font-style:normal;font-variant:normal;font-weight:normal;font-stretch:normal;font-size:9.03064728px;line-height:100%;font-family:Roboto;-inkscape-font-specification:Roboto"
         d="m 740.72296,345.31515 q 0,-0.70111 0.27339,-1.26112 0.27779,-0.56 0.76725,-0.86426 0.49386,-0.30425 1.12442,-0.30425 0.9745,0 1.57419,0.67465 0.6041,0.67465 0.6041,1.79466 l 0,0.0573 q 0,0.6967 -0.26898,1.2523 -0.26457,0.55118 -0.76284,0.85985 -0.49386,0.30866 -1.13765,0.30866 -0.97009,0 -1.57419,-0.67465 -0.59969,-0.67465 -0.59969,-1.78585 l 0,-0.0573 z m 0.82016,0.097 q 0,0.79371 0.36599,1.27434 0.3704,0.48064 0.98773,0.48064 0.62174,0 0.98773,-0.48505 0.36598,-0.48945 0.36598,-1.36694 0,-0.78489 -0.3748,-1.26994 -0.3704,-0.48945 -0.98773,-0.48945 -0.6041,0 -0.9745,0.48064 -0.3704,0.48063 -0.3704,1.37576 z" />
      <path
         id="path5601"
         style="font-style:normal;font-variant:normal;font-weight:normal;font-stretch:normal;font-size:9.03064728px;line-height:100%;font-family:Roboto;-inkscape-font-specification:Roboto"
         d="m 747.1961,341.81842 0,1.15529 0.89072,0 0,0.63055 -0.89072,0 0,2.95878 q 0,0.28661 0.11905,0.43213 0.11906,0.1411 0.40568,0.1411 0.1411,0 0.38803,-0.0529 l 0,0.66142 q -0.32189,0.0882 -0.62615,0.0882 -0.54677,0 -0.82457,-0.33071 -0.2778,-0.33071 -0.2778,-0.93922 l 0,-2.95878 -0.86867,0 0,-0.63055 0.86867,0 0,-1.15529 0.81576,0 z" />
      <path
         id="path5603"
         style="font-style:normal;font-variant:normal;font-weight:normal;font-stretch:normal;font-size:9.03064728px;line-height:100%;font-family:Roboto;-inkscape-font-specification:Roboto"
         d="m 751.9804,347.74478 q -0.0706,-0.1411 -0.11465,-0.50268 -0.56882,0.59087 -1.35812,0.59087 -0.70552,0 -1.1597,-0.39685 -0.44977,-0.40127 -0.44977,-1.01419 0,-0.7452 0.56442,-1.15529 0.56882,-0.41449 1.59624,-0.41449 l 0.79371,0 0,-0.3748 q 0,-0.42773 -0.25576,-0.67907 -0.25575,-0.25575 -0.75402,-0.25575 -0.43654,0 -0.73198,0.22048 -0.29543,0.22047 -0.29543,0.53355 l -0.82017,0 q 0,-0.35717 0.25134,-0.68789 0.25575,-0.33512 0.68788,-0.52913 0.43654,-0.19402 0.95687,-0.19402 0.82457,0 1.29198,0.41449 0.4674,0.41008 0.48504,1.13324 l 0,2.19593 q 0,0.65701 0.16756,1.04505 l 0,0.0705 -0.85544,0 z m -1.35371,-0.62174 q 0.38362,0 0.72756,-0.19842 0.34394,-0.19843 0.49828,-0.51592 l 0,-0.9789 -0.63938,0 q -1.49923,0 -1.49923,0.87749 0,0.38362 0.25575,0.59969 0.25575,0.21606 0.65702,0.21606 z" />
      <path
         id="path5605"
         style="font-style:normal;font-variant:normal;font-weight:normal;font-stretch:normal;font-size:9.03064728px;line-height:100%;font-family:Roboto;-inkscape-font-specification:Roboto"
         d="m 755.06264,341.81842 0,1.15529 0.89072,0 0,0.63055 -0.89072,0 0,2.95878 q 0,0.28661 0.11905,0.43213 0.11906,0.1411 0.40568,0.1411 0.1411,0 0.38803,-0.0529 l 0,0.66142 q -0.32189,0.0882 -0.62614,0.0882 -0.54678,0 -0.82458,-0.33071 -0.2778,-0.33071 -0.2778,-0.93922 l 0,-2.95878 -0.86867,0 0,-0.63055 0.86867,0 0,-1.15529 0.81576,0 z" />
      <path
         id="path5607"
         style="font-style:normal;font-variant:normal;font-weight:normal;font-stretch:normal;font-size:9.03064728px;line-height:100%;font-family:Roboto;-inkscape-font-specification:Roboto"
         d="m 757.78771,347.74478 -0.81576,0 0,-4.77107 0.81576,0 0,4.77107 z m -0.8819,-6.0366 q 0,-0.19843 0.11905,-0.33512 0.12347,-0.13669 0.36158,-0.13669 0.23812,0 0.36158,0.13669 0.12347,0.13669 0.12347,0.33512 0,0.19843 -0.12347,0.33071 -0.12346,0.13229 -0.36158,0.13229 -0.23811,0 -0.36158,-0.13229 -0.11905,-0.13228 -0.11905,-0.33071 z" />
      <path
         id="path5609"
         style="font-style:normal;font-variant:normal;font-weight:normal;font-stretch:normal;font-size:9.03064728px;line-height:100%;font-family:Roboto;-inkscape-font-specification:Roboto"
         d="m 758.87244,345.31515 q 0,-0.70111 0.27339,-1.26112 0.2778,-0.56 0.76725,-0.86426 0.49386,-0.30425 1.12442,-0.30425 0.9745,0 1.57419,0.67465 0.6041,0.67465 0.6041,1.79466 l 0,0.0573 q 0,0.6967 -0.26898,1.2523 -0.26457,0.55118 -0.76284,0.85985 -0.49386,0.30866 -1.13765,0.30866 -0.97009,0 -1.57419,-0.67465 -0.59969,-0.67465 -0.59969,-1.78585 l 0,-0.0573 z m 0.82017,0.097 q 0,0.79371 0.36598,1.27434 0.3704,0.48064 0.98773,0.48064 0.62174,0 0.98773,-0.48505 0.36599,-0.48945 0.36599,-1.36694 0,-0.78489 -0.37481,-1.26994 -0.3704,-0.48945 -0.98773,-0.48945 -0.6041,0 -0.9745,0.48064 -0.37039,0.48063 -0.37039,1.37576 z" />
      <path
         id="path5611"
         style="font-style:normal;font-variant:normal;font-weight:normal;font-stretch:normal;font-size:9.03064728px;line-height:100%;font-family:Roboto;-inkscape-font-specification:Roboto"
         d="m 765.01046,342.97371 0.0265,0.59969 q 0.54677,-0.68788 1.42867,-0.68788 1.51246,0 1.52569,1.70647 l 0,3.15279 -0.81576,0 0,-3.1572 q -0.004,-0.51591 -0.23811,-0.76284 -0.2293,-0.24693 -0.71875,-0.24693 -0.39685,0 -0.6967,0.21165 -0.29985,0.21166 -0.46741,0.5556 l 0,3.39972 -0.81575,0 0,-4.77107 0.77166,0 z" />
      <path
         id="path5613"
         style="font-style:normal;font-variant:normal;font-weight:normal;font-stretch:normal;font-size:9.03064728px;line-height:100%;font-family:Roboto;-inkscape-font-specification:Roboto"
         d="m 736.06653,354.35021 q 0,-1.09797 0.52032,-1.7638 0.52032,-0.67025 1.36254,-0.67025 0.8378,0 1.32725,0.57324 l 0,-2.48696 0.81576,0 0,6.77299 -0.74961,0 -0.0397,-0.5115 q -0.48945,0.59969 -1.36253,0.59969 -0.82899,0 -1.35372,-0.67906 -0.52032,-0.67907 -0.52032,-1.77262 l 0,-0.0617 z m 0.81576,0.0926 q 0,0.81134 0.33512,1.26993 0.33512,0.45859 0.92599,0.45859 0.77607,0 1.13324,-0.6967 l 0,-2.19152 q -0.36598,-0.67465 -1.12442,-0.67465 -0.59969,0 -0.93481,0.46299 -0.33512,0.463 -0.33512,1.37136 z" />
      <path
         id="path5615"
         style="font-style:normal;font-variant:normal;font-weight:normal;font-stretch:normal;font-size:9.03064728px;line-height:100%;font-family:Roboto;-inkscape-font-specification:Roboto"
         d="m 741.14627,354.3458 q 0,-0.70111 0.27339,-1.26112 0.2778,-0.56001 0.76725,-0.86426 0.49387,-0.30426 1.12442,-0.30426 0.9745,0 1.57419,0.67466 0.6041,0.67465 0.6041,1.79466 l 0,0.0573 q 0,0.6967 -0.26898,1.25229 -0.26457,0.55119 -0.76284,0.85985 -0.49386,0.30867 -1.13765,0.30867 -0.97009,0 -1.57419,-0.67465 -0.59969,-0.67466 -0.59969,-1.78585 l 0,-0.0573 z m 0.82017,0.097 q 0,0.7937 0.36599,1.27434 0.37039,0.48063 0.98772,0.48063 0.62174,0 0.98773,-0.48504 0.36599,-0.48945 0.36599,-1.36694 0,-0.78489 -0.37481,-1.26994 -0.3704,-0.48945 -0.98773,-0.48945 -0.6041,0 -0.9745,0.48063 -0.37039,0.48064 -0.37039,1.37577 z" />
      <path
         id="path5617"
         style="font-style:normal;font-variant:normal;font-weight:normal;font-stretch:normal;font-size:9.03064728px;line-height:100%;font-family:Roboto;-inkscape-font-specification:Roboto"
         d="m 748.42635,356.19778 q 0.43654,0 0.76284,-0.26456 0.3263,-0.26457 0.36158,-0.66143 l 0.77166,0 q -0.0221,0.41008 -0.28221,0.78048 -0.26016,0.3704 -0.6967,0.59087 -0.43213,0.22048 -0.91717,0.22048 -0.9745,0 -1.55214,-0.6482 -0.57324,-0.6526 -0.57324,-1.78143 l 0,-0.1367 q 0,-0.6967 0.25575,-1.23907 0.25575,-0.54236 0.73198,-0.84221 0.48063,-0.29985 1.13324,-0.29985 0.80253,0 1.33167,0.48064 0.53355,0.48063 0.56882,1.24789 l -0.77166,0 q -0.0353,-0.463 -0.35276,-0.75844 -0.31307,-0.29984 -0.77607,-0.29984 -0.62174,0 -0.96568,0.44977 -0.33953,0.44536 -0.33953,1.29198 l 0,0.15433 q 0,0.82458 0.33953,1.26994 0.33953,0.44535 0.97009,0.44535 z" />
      <path
         id="path5619"
         style="font-style:normal;font-variant:normal;font-weight:normal;font-stretch:normal;font-size:9.03064728px;line-height:100%;font-family:Roboto;-inkscape-font-specification:Roboto"
         d="m 754.18515,356.30361 q -0.47623,0.56001 -1.39781,0.56001 -0.76284,0 -1.16411,-0.44095 -0.39685,-0.44536 -0.40126,-1.31403 l 0,-3.10429 0.81575,0 0,3.08224 q 0,1.08474 0.8819,1.08474 0.93482,0 1.24348,-0.6967 l 0,-3.47028 0.81576,0 0,4.77108 -0.77607,0 -0.0176,-0.47182 z" />
      <path
         id="path5621"
         style="font-style:normal;font-variant:normal;font-weight:normal;font-stretch:normal;font-size:9.03064728px;line-height:100%;font-family:Roboto;-inkscape-font-specification:Roboto"
         d="m 756.98077,352.00435 0.0221,0.52914 q 0.52473,-0.61733 1.41544,-0.61733 1.00096,0 1.36254,0.76726 0.23811,-0.34394 0.61733,-0.5556 0.38362,-0.21166 0.90395,-0.21166 1.56978,0 1.59623,1.66238 l 0,3.19689 -0.81575,0 0,-3.14838 q 0,-0.5115 -0.23371,-0.76284 -0.2337,-0.25575 -0.78489,-0.25575 -0.45418,0 -0.75402,0.27338 -0.29985,0.26898 -0.34835,0.72757 l 0,3.16602 -0.82017,0 0,-3.12633 q 0,-1.04064 -1.01859,-1.04064 -0.80253,0 -1.09797,0.68347 l 0,3.4835 -0.81575,0 0,-4.77108 0.77166,0 z" />
      <path
         id="path5623"
         style="font-style:normal;font-variant:normal;font-weight:normal;font-stretch:normal;font-size:9.03064728px;line-height:100%;font-family:Roboto;-inkscape-font-specification:Roboto"
         d="m 766.11284,356.86362 q -0.97009,0 -1.5786,-0.63497 -0.60851,-0.63938 -0.60851,-1.70647 l 0,-0.14993 q 0,-0.70993 0.26898,-1.26552 0.27339,-0.56001 0.75843,-0.87308 0.48945,-0.31749 1.05828,-0.31749 0.9304,0 1.44631,0.61292 0.51591,0.61292 0.51591,1.75498 l 0,0.33953 -3.23216,0 q 0.0176,0.70552 0.41009,1.14206 0.39685,0.43213 1.00536,0.43213 0.43213,0 0.73198,-0.17637 0.29984,-0.17638 0.52473,-0.46741 l 0.49827,0.38803 q -0.59969,0.92159 -1.79907,0.92159 z m -0.10142,-4.27721 q -0.49386,0 -0.82899,0.36158 -0.33512,0.35717 -0.41449,1.00536 l 2.38995,0 0,-0.0617 q -0.0353,-0.62174 -0.33512,-0.96127 -0.29985,-0.34394 -0.81135,-0.34394 z" />
      <path
         id="path5625"
         style="font-style:normal;font-variant:normal;font-weight:normal;font-stretch:normal;font-size:9.03064728px;line-height:100%;font-family:Roboto;-inkscape-font-specification:Roboto"
         d="m 769.68453,352.00435 0.0264,0.5997 q 0.54678,-0.68789 1.42868,-0.68789 1.51246,0 1.52569,1.70648 l 0,3.15279 -0.81576,0 0,-3.1572 q -0.004,-0.51591 -0.23811,-0.76284 -0.2293,-0.24693 -0.71875,-0.24693 -0.39686,0 -0.6967,0.21165 -0.29985,0.21166 -0.46741,0.5556 l 0,3.39972 -0.81575,0 0,-4.77108 0.77166,0 z" />
      <path
         id="path5627"
         style="font-style:normal;font-variant:normal;font-weight:normal;font-stretch:normal;font-size:9.03064728px;line-height:100%;font-family:Roboto;-inkscape-font-specification:Roboto"
         d="m 775.0112,350.84907 0,1.15528 0.89072,0 0,0.63056 -0.89072,0 0,2.95877 q 0,0.28662 0.11906,0.43213 0.11905,0.14111 0.40567,0.14111 0.1411,0 0.38803,-0.0529 l 0,0.66143 q -0.32189,0.0882 -0.62614,0.0882 -0.54678,0 -0.82458,-0.33071 -0.2778,-0.33072 -0.2778,-0.93923 l 0,-2.95877 -0.86867,0 0,-0.63056 0.86867,0 0,-1.15528 0.81576,0 z" />
      <path
         id="path5629"
         style="font-style:normal;font-variant:normal;font-weight:normal;font-stretch:normal;font-size:9.03064728px;line-height:100%;font-family:Roboto;-inkscape-font-specification:Roboto"
         d="m 779.62794,355.5099 q 0,-0.33071 -0.25134,-0.5115 -0.24693,-0.1852 -0.86867,-0.31748 -0.61733,-0.13229 -0.98332,-0.31749 -0.36158,-0.18519 -0.53796,-0.44094 -0.17197,-0.25576 -0.17197,-0.60852 0,-0.58646 0.49386,-0.99213 0.49828,-0.40568 1.26994,-0.40568 0.81135,0 1.31403,0.41891 0.50709,0.4189 0.50709,1.0715 l -0.82016,0 q 0,-0.33512 -0.28662,-0.57764 -0.28221,-0.24252 -0.71434,-0.24252 -0.44536,0 -0.6967,0.19402 -0.25134,0.19401 -0.25134,0.50709 0,0.29543 0.2337,0.44536 0.2337,0.14992 0.84221,0.28661 0.61292,0.1367 0.99214,0.32631 0.37922,0.1896 0.56001,0.45858 0.1852,0.26457 0.1852,0.6482 0,0.63938 -0.51151,1.02741 -0.5115,0.38363 -1.32725,0.38363 -0.57324,0 -1.01419,-0.20284 -0.44095,-0.20283 -0.69229,-0.56441 -0.24693,-0.36599 -0.24693,-0.7893 l 0.81576,0 q 0.022,0.41008 0.3263,0.6526 0.30866,0.23811 0.81135,0.23811 0.46299,0 0.74079,-0.18519 0.28221,-0.18961 0.28221,-0.50269 z" />
      <path
         id="path5631"
         style="font-style:normal;font-variant:normal;font-weight:normal;font-stretch:normal;font-size:9.03064728px;line-height:100%;font-family:Roboto;-inkscape-font-specification:Roboto"
         d="m 781.47993,358.05418 -0.463,-0.31748 q 0.41449,-0.57765 0.43213,-1.19057 l 0,-0.73638 0.79812,0 0,0.63938 q 0,0.44536 -0.22048,0.89071 -0.21606,0.44536 -0.54677,0.71434 z" />
      <path
         id="path5633"
         style="font-style:normal;font-variant:normal;font-weight:normal;font-stretch:normal;font-size:9.03064728px;line-height:100%;font-family:Roboto;-inkscape-font-specification:Roboto"
         d="m 751.72465,362.94431 q -1.08914,-0.31307 -1.58742,-0.76725 -0.49386,-0.45859 -0.49386,-1.12883 0,-0.75843 0.6041,-1.2523 0.60851,-0.49827 1.5786,-0.49827 0.66142,0 1.17733,0.25575 0.52033,0.25575 0.80253,0.70552 0.28662,0.44977 0.28662,0.98332 l -0.85103,0 q 0,-0.58206 -0.3704,-0.91277 -0.3704,-0.33512 -1.04505,-0.33512 -0.62615,0 -0.97891,0.2778 -0.34835,0.27339 -0.34835,0.76284 0,0.39245 0.33071,0.66584 0.33512,0.26897 1.13324,0.49386 0.80253,0.22488 1.2523,0.49827 0.45418,0.26898 0.67024,0.63056 0.22048,0.36158 0.22048,0.85103 0,0.78048 -0.60851,1.2523 -0.60851,0.46741 -1.62711,0.46741 -0.66142,0 -1.23465,-0.25135 -0.57324,-0.25575 -0.88631,-0.6967 -0.30867,-0.44095 -0.30867,-1.00095 l 0.85103,0 q 0,0.58205 0.42773,0.92158 0.43213,0.33513 1.15087,0.33513 0.67025,0 1.02742,-0.27339 0.35717,-0.27339 0.35717,-0.74521 0,-0.47181 -0.33072,-0.72757 -0.33071,-0.26016 -1.19938,-0.5115 z" />
      <path
         id="path5635"
         style="font-style:normal;font-variant:normal;font-weight:normal;font-stretch:normal;font-size:9.03064728px;line-height:100%;font-family:Roboto;-inkscape-font-specification:Roboto"
         d="m 756.17383,359.87971 0,1.15529 0.89072,0 0,0.63056 -0.89072,0 0,2.95877 q 0,0.28662 0.11906,0.43213 0.11905,0.14111 0.40567,0.14111 0.14111,0 0.38804,-0.0529 l 0,0.66143 q -0.3219,0.0882 -0.62615,0.0882 -0.54678,0 -0.82458,-0.33072 -0.2778,-0.33071 -0.2778,-0.93922 l 0,-2.95877 -0.86867,0 0,-0.63056 0.86867,0 0,-1.15529 0.81576,0 z" />
      <path
         id="path5637"
         style="font-style:normal;font-variant:normal;font-weight:normal;font-stretch:normal;font-size:9.03064728px;line-height:100%;font-family:Roboto;-inkscape-font-specification:Roboto"
         d="m 760.95814,365.80608 q -0.0706,-0.14111 -0.11465,-0.50269 -0.56883,0.59088 -1.35813,0.59088 -0.70551,0 -1.15969,-0.39686 -0.44977,-0.40126 -0.44977,-1.01418 0,-0.74521 0.56441,-1.15529 0.56883,-0.41449 1.59624,-0.41449 l 0.79371,0 0,-0.37481 q 0,-0.42772 -0.25575,-0.67906 -0.25575,-0.25575 -0.75402,-0.25575 -0.43654,0 -0.73198,0.22047 -0.29544,0.22048 -0.29544,0.53355 l -0.82016,0 q 0,-0.35717 0.25134,-0.68788 0.25575,-0.33512 0.68788,-0.52914 0.43654,-0.19402 0.95686,-0.19402 0.82458,0 1.29198,0.41449 0.46741,0.41009 0.48505,1.13324 l 0,2.19593 q 0,0.65702 0.16756,1.04505 l 0,0.0706 -0.85544,0 z m -1.35372,-0.62174 q 0.38363,0 0.72757,-0.19843 0.34394,-0.19843 0.49827,-0.51591 l 0,-0.97891 -0.63938,0 q -1.49922,0 -1.49922,0.87749 0,0.38363 0.25575,0.59969 0.25575,0.21607 0.65701,0.21607 z" />
      <path
         id="path5639"
         style="font-style:normal;font-variant:normal;font-weight:normal;font-stretch:normal;font-size:9.03064728px;line-height:100%;font-family:Roboto;-inkscape-font-specification:Roboto"
         d="m 764.04037,359.87971 0,1.15529 0.89072,0 0,0.63056 -0.89072,0 0,2.95877 q 0,0.28662 0.11906,0.43213 0.11906,0.14111 0.40567,0.14111 0.14111,0 0.38804,-0.0529 l 0,0.66143 q -0.32189,0.0882 -0.62615,0.0882 -0.54678,0 -0.82457,-0.33072 -0.2778,-0.33071 -0.2778,-0.93922 l 0,-2.95877 -0.86867,0 0,-0.63056 0.86867,0 0,-1.15529 0.81575,0 z" />
      <path
         id="path5641"
         style="font-style:normal;font-variant:normal;font-weight:normal;font-stretch:normal;font-size:9.03064728px;line-height:100%;font-family:Roboto;-inkscape-font-specification:Roboto"
         d="m 766.76544,365.80608 -0.81576,0 0,-4.77108 0.81576,0 0,4.77108 z m -0.8819,-6.0366 q 0,-0.19843 0.11906,-0.33513 0.12346,-0.13669 0.36158,-0.13669 0.23811,0 0.36158,0.13669 0.12346,0.1367 0.12346,0.33513 0,0.19842 -0.12346,0.33071 -0.12347,0.13228 -0.36158,0.13228 -0.23812,0 -0.36158,-0.13228 -0.11906,-0.13229 -0.11906,-0.33071 z" />
      <path
         id="path5643"
         style="font-style:normal;font-variant:normal;font-weight:normal;font-stretch:normal;font-size:9.03064728px;line-height:100%;font-family:Roboto;-inkscape-font-specification:Roboto"
         d="m 770.84423,364.54055 q 0,-0.33071 -0.25135,-0.5115 -0.24693,-0.1852 -0.86867,-0.31748 -0.61733,-0.13229 -0.98331,-0.31749 -0.36158,-0.1852 -0.53796,-0.44095 -0.17197,-0.25575 -0.17197,-0.60851 0,-0.58646 0.49386,-0.99213 0.49827,-0.40568 1.26994,-0.40568 0.81134,0 1.31403,0.4189 0.50709,0.41891 0.50709,1.07151 l -0.82017,0 q 0,-0.33512 -0.28662,-0.57764 -0.2822,-0.24252 -0.71433,-0.24252 -0.44536,0 -0.69671,0.19401 -0.25134,0.19402 -0.25134,0.50709 0,0.29544 0.23371,0.44536 0.2337,0.14993 0.84221,0.28662 0.61292,0.1367 0.99214,0.3263 0.37921,0.18961 0.56,0.45859 0.1852,0.26457 0.1852,0.6482 0,0.63937 -0.5115,1.02741 -0.5115,0.38363 -1.32726,0.38363 -0.57323,0 -1.01418,-0.20284 -0.44095,-0.20284 -0.69229,-0.56442 -0.24693,-0.36598 -0.24693,-0.7893 l 0.81575,0 q 0.022,0.41009 0.32631,0.65261 0.30866,0.23811 0.81134,0.23811 0.463,0 0.7408,-0.1852 0.28221,-0.18961 0.28221,-0.50268 z" />
      <path
         id="path5645"
         style="font-style:normal;font-variant:normal;font-weight:normal;font-stretch:normal;font-size:9.03064728px;line-height:100%;font-family:Roboto;-inkscape-font-specification:Roboto"
         d="m 773.82945,359.87971 0,1.15529 0.89072,0 0,0.63056 -0.89072,0 0,2.95877 q 0,0.28662 0.11906,0.43213 0.11905,0.14111 0.40567,0.14111 0.14111,0 0.38804,-0.0529 l 0,0.66143 q -0.3219,0.0882 -0.62615,0.0882 -0.54678,0 -0.82458,-0.33072 -0.27779,-0.33071 -0.27779,-0.93922 l 0,-2.95877 -0.86868,0 0,-0.63056 0.86868,0 0,-1.15529 0.81575,0 z" />
      <path
         id="path5647"
         style="font-style:normal;font-variant:normal;font-weight:normal;font-stretch:normal;font-size:9.03064728px;line-height:100%;font-family:Roboto;-inkscape-font-specification:Roboto"
         d="m 776.55452,365.80608 -0.81575,0 0,-4.77108 0.81575,0 0,4.77108 z m -0.8819,-6.0366 q 0,-0.19843 0.11906,-0.33513 0.12347,-0.13669 0.36158,-0.13669 0.23811,0 0.36158,0.13669 0.12346,0.1367 0.12346,0.33513 0,0.19842 -0.12346,0.33071 -0.12347,0.13228 -0.36158,0.13228 -0.23811,0 -0.36158,-0.13228 -0.11906,-0.13229 -0.11906,-0.33071 z" />
      <path
         id="path5649"
         style="font-style:normal;font-variant:normal;font-weight:normal;font-stretch:normal;font-size:9.03064728px;line-height:100%;font-family:Roboto;-inkscape-font-specification:Roboto"
         d="m 779.76904,365.22843 q 0.43654,0 0.76284,-0.26457 0.32631,-0.26457 0.36158,-0.66142 l 0.77167,0 q -0.022,0.41008 -0.28221,0.78048 -0.26016,0.3704 -0.6967,0.59087 -0.43213,0.22048 -0.91718,0.22048 -0.9745,0 -1.55214,-0.6482 -0.57324,-0.65261 -0.57324,-1.78144 l 0,-0.13669 q 0,-0.6967 0.25576,-1.23907 0.25575,-0.54237 0.73197,-0.84221 0.48064,-0.29985 1.13324,-0.29985 0.80253,0 1.33167,0.48064 0.53355,0.48063 0.56883,1.24788 l -0.77167,0 q -0.0353,-0.46299 -0.35276,-0.75843 -0.31307,-0.29984 -0.77607,-0.29984 -0.62174,0 -0.96568,0.44976 -0.33953,0.44536 -0.33953,1.29199 l 0,0.15433 q 0,0.82457 0.33953,1.26993 0.33953,0.44536 0.97009,0.44536 z" />
      <path
         id="path5651"
         style="font-style:normal;font-variant:normal;font-weight:normal;font-stretch:normal;font-size:9.03064728px;line-height:100%;font-family:Roboto;-inkscape-font-specification:Roboto"
         d="m 785.36029,364.54055 q 0,-0.33071 -0.25135,-0.5115 -0.24693,-0.1852 -0.86867,-0.31748 -0.61733,-0.13229 -0.98331,-0.31749 -0.36158,-0.1852 -0.53796,-0.44095 -0.17197,-0.25575 -0.17197,-0.60851 0,-0.58646 0.49386,-0.99213 0.49827,-0.40568 1.26994,-0.40568 0.81134,0 1.31402,0.4189 0.5071,0.41891 0.5071,1.07151 l -0.82017,0 q 0,-0.33512 -0.28662,-0.57764 -0.2822,-0.24252 -0.71433,-0.24252 -0.44536,0 -0.69671,0.19401 -0.25134,0.19402 -0.25134,0.50709 0,0.29544 0.23371,0.44536 0.2337,0.14993 0.84221,0.28662 0.61292,0.1367 0.99214,0.3263 0.37921,0.18961 0.56,0.45859 0.1852,0.26457 0.1852,0.6482 0,0.63937 -0.5115,1.02741 -0.5115,0.38363 -1.32726,0.38363 -0.57323,0 -1.01418,-0.20284 -0.44095,-0.20284 -0.69229,-0.56442 -0.24693,-0.36598 -0.24693,-0.7893 l 0.81575,0 q 0.0221,0.41009 0.3263,0.65261 0.30867,0.23811 0.81135,0.23811 0.463,0 0.7408,-0.1852 0.28221,-0.18961 0.28221,-0.50268 z" />
    </g>
  </g>
</svg>
