<?xml version="1.0" encoding="UTF-8" standalone="no"?>
<svg
   xmlns:dc="http://purl.org/dc/elements/1.1/"
   xmlns:cc="http://creativecommons.org/ns#"
   xmlns:rdf="http://www.w3.org/1999/02/22-rdf-syntax-ns#"
   xmlns:svg="http://www.w3.org/2000/svg"
   xmlns="http://www.w3.org/2000/svg"
   viewBox="0 0 1919.9996 1496.0314"
   height="1496.0314"
   width="1919.9995"
   version="1.1"
   id="svg3390">
  <metadata
     id="metadata3396">
    <rdf:RDF>
      <cc:Work
         rdf:about="">
        <dc:format>image/svg+xml</dc:format>
        <dc:type
           rdf:resource="http://purl.org/dc/dcmitype/StillImage" />
        <dc:title></dc:title>
      </cc:Work>
    </rdf:RDF>
  </metadata>
  <defs
     id="defs3394" />
  <path
     style="fill:#ffffff"
     id="path3400"
     d="m 420.36925,1204.7902 c 16.1132,-0.351 22.58016,0.8685 24.81387,4.6812 2.55377,4.3581 3.03723,4.2252 3.12558,-0.8595 0.057,-3.3082 -1.56504,-6.0148 -3.60561,-6.0148 -5.97799,0 -0.0345,-21.6018 7.80348,-28.3554 4.78172,-4.121 12.8114,-6.0149 25.5021,-6.0149 l 18.52286,0 0.0465,-14.6073 c 0.027,-8.034 0.9237,-17.874 1.99542,-21.8667 2.06532,-7.6944 -7.49724,-14.4382 -12.8637,-9.0717 -4.89498,4.8951 -7.59213,24.9236 -3.35618,24.9236 2.12666,0 3.97536,-3.48 4.10823,-7.7333 0.2271,-7.2687 0.40155,-7.3236 2.90486,-0.9135 3.49705,8.9537 0.7182,18.9585 -5.26583,18.9585 -2.61504,0 -4.75465,1.5467 -4.75465,3.437 0,4.2402 -3.60189,4.3149 -10.09008,0.21 -3.89409,-2.4641 -4.06277,-4.1727 -0.79995,-8.1042 2.27401,-2.7401 3.16906,-7.4979 1.98901,-10.5731 -1.18005,-3.0751 -0.61365,-5.5911 1.2585,-5.5911 1.87224,0 4.14321,-3.8667 5.04665,-8.5926 0.90345,-4.7259 0.69705,-8.5828 -0.45855,-8.5708 -4.68582,0.045 -14.13072,21.9088 -14.13072,32.7057 0,6.3514 -1.54667,12.504 -3.43703,13.6723 -4.79646,2.9645 -4.381,-19.9453 0.5583,-30.786 4.6337,-10.1698 3.73616,-11.6938 -7.63356,-12.9619 -6.41151,-0.7155 -8.62861,0.876 -9.47854,6.7999 -0.6102,4.2534 0.40005,7.7334 2.2449,7.7334 1.84485,0 2.54991,3.0759 1.56678,6.8354 -0.9831,3.7594 -2.99625,6.0883 -4.47363,5.1753 -2.92674,-1.8089 -7.9953,8.6052 -5.43447,11.166 2.70213,2.7021 9.25438,-2.9372 12.36214,-10.6397 l 2.97833,-7.3815 0.2181,7.4877 c 0.12,4.1184 -1.85786,9.5636 -4.39482,12.1007 -7.55427,7.5541 -12.67365,19.1113 -10.72038,24.2014 1.00515,2.6193 -1.32045,7.611 -5.16785,11.0928 -6.92346,6.2657 -6.99379,6.1929 -6.84963,-7.0908 0.0795,-7.3819 2.05815,-26.3389 4.39568,-42.1267 4.58892,-30.9941 9.79117,-38.5514 26.18956,-38.0454 4.83719,0.15 6.86156,1.0515 4.49859,2.0049 -2.36293,0.954 -4.24065,3.538 -4.17265,5.7433 0.0675,2.2055 3.54795,-0.03 7.73331,-4.9746 4.8232,-5.6946 12.53526,-9.7392 21.06112,-11.0455 7.3983,-1.134 14.72589,-3.3354 16.28352,-4.893 1.55757,-1.5576 3.67547,-11.2805 4.70633,-21.6062 1.03095,-10.3258 3.35959,-29.6008 5.17489,-42.8334 1.8153,-13.2325 3.27893,-27.1524 3.25253,-30.9331 -0.027,-3.78076 1.49505,-16.92736 3.38104,-29.21476 3.15878,-20.5797 6.737,-50.6097 12.59336,-105.68835 1.61064,-15.1482 1.12635,-21.48135 -1.64259,-21.48135 -2.15967,0 -3.92669,1.54665 -3.92669,3.43695 0,1.8903 -1.33215,3.43695 -2.9604,3.43695 -1.62822,0 -2.21467,-3.9009 -1.3032,-8.6688 1.32165,-6.9141 2.61659,-7.87245 6.39743,-4.7346 2.60715,2.16375 4.74025,3.22005 4.74025,2.34735 0,-4.9197 21.28683,-179.90145 24.16029,-198.60225 1.88802,-12.2874 4.22847,-32.394 5.20095,-44.68125 0.97245,-12.2874 4.08615,-39.354 6.9192,-60.1479 2.83301,-20.79405 7.33026,-56.36715 9.9939,-79.05151 8.15028,-69.4108 12.66708,-87.1347 26.82417,-105.2574 7.55321,-9.669 34.50461,-2.1763 37.82348,10.515 1.5915,6.086 4.27848,7.0865 17.66995,6.5801 8.68614,-0.3285 16.8174,0.4275 18.06936,1.6789 1.25205,1.2525 -0.1671,2.2763 -3.15379,2.2763 -4.51619,0 -5.44377,4.9132 -5.51147,29.19205 -0.045,16.05555 -1.06725,30.78705 -2.27223,32.73675 -1.20495,1.9497 -0.33585,3.12 1.93125,2.60055 2.26718,-0.519 4.83102,0.9885 5.69742,3.3519 0.91815,2.5038 -1.21215,4.29615 -5.10573,4.29615 -6.13519,0 -6.82867,3.29985 -8.48763,40.38511 -1.65607,37.0206 -1.1787,41.53035 5.73059,54.13305 6.65982,12.1479 7.5144,18.74145 7.34191,56.6472 -0.1785,39.1638 -0.7578,43.00875 -6.65737,44.16015 -3.55421,0.693 -7.60851,-0.594 -9.00959,-2.8605 -1.455,-2.3544 -3.67018,3.02745 -5.16582,12.55065 -4.03585,25.6977 -7.17589,101.3457 -4.28082,103.13175 5.13738,3.1695 2.39489,6.57465 -5.84445,7.25655 -4.63219,0.384 -9.36346,-0.8265 -10.5139,-2.6874 -1.15035,-1.8615 -6.25374,-3.33525 -11.34066,-3.2751 -8.73239,0.105 -8.8887,0.3825 -2.79899,4.99335 5.9085,4.47405 6.261,8.2881 4.19882,45.43125 -1.2381,22.30095 -2.95373,49.05375 -3.81233,59.4507 -1.77088,21.44385 -4.03863,59.24145 -7.01125,116.85885 -1.12155,21.73921 -2.65247,41.45911 -3.40209,43.82201 -1.73898,5.4816 4.06915,5.624 7.43242,0.183 1.39845,-2.2627 2.16941,-11.1561 1.71315,-19.7628 -0.4563,-8.60681 0.81135,-22.96856 2.81688,-31.91516 2.00555,-8.94645 4.36433,-36.0129 5.24177,-60.14775 0.87735,-24.13485 2.71491,-53.9349 4.08328,-66.2223 1.36845,-12.28725 2.17374,-27.7539 1.78965,-34.37025 -1.32225,-22.776 3.01919,-48.1182 8.24322,-48.1182 5.82641,0 6.95472,22.3887 1.30425,25.88085 -2.50609,1.54875 -2.48802,3.5718 0.0585,6.6411 2.01479,2.42775 2.95991,6.5433 2.10027,9.14595 -0.85965,2.6025 -3.22789,39.53175 -5.26275,82.06485 -2.03485,42.5331 -4.42357,90.4797 -5.30832,106.5477 -0.8847,16.06811 -2.43177,45.45461 -3.43785,65.30341 -1.00605,19.8489 -2.55466,46.1421 -3.44137,58.4293 -0.88665,12.2874 -2.43209,37.034 -3.43421,54.9924 -1.00215,17.9585 -2.75634,43.3365 -3.89814,56.3955 l -2.07604,23.7437 35.63293,-2.637 c 19.59809,-1.4505 41.04621,-3.3279 47.66249,-4.1726 6.61626,-0.8445 22.25664,-2.151 34.75641,-2.9034 12.49975,-0.7515 43.04631,-3.2709 67.88118,-5.5969 l 45.15435,-4.2293 0.2628,-68.9665 c 0.144,-37.9317 0.76665,-71.5748 1.38225,-74.7624 0.6156,-3.1878 1.64792,-22.3953 2.29404,-42.6834 0.86685,-27.2219 0.054,-37.2608 -3.10077,-38.3126 -2.35155,-0.783 -4.4664,0.6375 -4.69968,3.1577 -0.2334,2.5204 -0.9786,10.7692 -1.65619,18.3307 -0.6777,7.5614 -2.47326,20.708 -3.99026,29.2146 -2.58951,14.5208 -3.01654,15.0023 -6.98275,7.8726 -2.32352,-4.1767 -4.02053,-8.8167 -3.77114,-10.3111 0.2496,-1.494 0.2703,-7.9239 0.0465,-14.2881 -0.1185,-14.3493 -28.46892,-9.6104 0.0705,-15.5049 6.01236,-1.203 10.26138,-2.8565 9.44235,-3.6756 7.12814,165.556 12.23324,-30.43351 -1.66057,-53.82106 16.26786,-0.339 16.84374,-0.6315 8.06665,-4.10055 -6.18655,-2.44455 -9.62992,-6.474 -9.96736,-11.66385 -0.2835,-4.36095 -0.6702,-9.8625 -0.8592,-12.2253 -3.29963,-7.10685 -4.23219,-11.48955 -0.2406,-17.71935 9.98895,-5.34135 -21.81654,-15.3999 -1.88696,-15.7917 6.50739,0 7.54902,-2.1513 11.88078,-24.5379 0.59955,-3.09885 -0.1485,-7.6395 -1.66354,-10.09005 -2.25294,-3.64545 -3.73913,-3.6381 -8.17127,0.045 18.67349,-29.0355 20.76089,-85.7082 10.60074,-10.09365 11.3775,0 15.9944,-7.11405 7.87394,-12.13275 -2.48879,-1.5381 -2.42733,-3.645 0.19875,-6.8091 2.09137,-2.52 3.17886,-10.8186 2.4166,-18.44145 -0.7623,-7.62285 0.30825,-15.6267 2.37914,-17.7864 2.78035,-2.89995 1.96878,-3.60285 -3.10278,-2.68815 -3.77735,0.681 -7.02176,3.53805 -7.2098,6.3483 -0.1881,2.8104 -0.5775,13.2297 -0.8655,23.15415 -0.31785,10.9605 -2.06898,18.04425 -4.46025,18.04425 -2.86674,0 -3.34366,-12.02715 -1.75471,-44.25165 l 2.18196,-44.25165 c 12.83188,61.43115 -0.8616,6.5688 14.25439,-12.03975 1.1838,-1.82325 2.33616,-27.5067 2.56089,-57.0744 0.2247,-29.5677 1.1961,-70.7727 2.15873,-91.5666 0.96255,-20.79405 2.60869,-70.28715 3.65806,-109.9848 2.37383,-89.80216 4.06352,-122.28691 6.48668,-124.71001 1.03785,-1.038 1.88692,-10.5654 1.88692,-21.1723 0,-19.718 3.9561,-26.6313 18.41442,-32.1795 3.34425,-1.2825 5.11778,-3.8909 3.94124,-5.7945 -3.05996,-4.9512 -8.28159,-4.2783 -14.41778,1.8579 -7.2514,7.2513 -9.41118,3.9982 -3.87975,-5.8437 6.48921,-11.5463 8.98994,-12.6635 23.87594,-10.6668 8.77867,1.1775 13.3102,0.438 13.3102,-2.1698 0,-2.4543 -3.11809,-3.1725 -8.21761,-1.8925 -4.51964,1.134 -9.09153,0.648 -10.15973,-1.08 -2.98188,-4.8248 -22.86696,-0.7425 -22.86696,4.6941 0,6.1573 -5.59671,6.1776 -7.95625,0.03 -2.17886,-5.6781 3.82273,-12.401 11.22142,-12.5702 2.93006,-0.06 9.19404,-2.4757 13.91996,-5.3529 8.37007,-5.0956 8.20834,-5.1795 -6.24645,-3.2376 -10.2327,1.3755 -17.40069,4.9035 -23.0913,11.3678 l -8.25228,9.3741 -0.108,-18.3645 -0.108,-18.3644 -47.25906,2.3462 c -27.3455,1.3575 -50.80641,0.9915 -55.67766,-0.8685 -11.2186,-4.284 -55.474,4.0755 -60.95245,11.5134 -2.23714,3.0373 -5.5413,4.6117 -7.34254,3.4986 -1.8012,-1.113 -4.12562,1.2285 -5.16536,5.2048 -1.35735,5.1905 1.17165,10.0259 8.96777,17.1465 12.15717,11.1039 11.33338,12.347 -3.16968,4.7831 -5.4146,-2.8239 -13.71135,-5.0891 -18.43725,-5.0337 -8.22912,0.09 -8.30181,0.2775 -1.71852,4.2751 15.91738,9.6663 5.84263,16.7783 -13.40265,9.4613 -5.89007,-2.2394 -9.43268,-2.1114 -10.98272,0.396 -1.341,2.1697 -8.42286,3.0106 -17.10964,2.0316 -10.86278,-1.224 -15.32667,-0.354 -16.71291,3.2583 -1.04025,2.7109 -3.55311,3.9019 -5.58407,2.6467 -2.04772,-1.266 -4.52917,0.9165 -5.57056,4.899 -2.00733,7.6761 -7.97045,6.6264 -7.97045,-1.4025 0,-6.6775 14.28264,-19.365 19.5321,-17.3505 2.36882,0.909 5.22105,0.174 6.33834,-1.6342 1.11735,-1.8066 -2.43022,-3.2856 -7.88338,-3.2856 -11.16663,0 -24.86111,12.2847 -24.86111,22.302 0,5.7765 -0.8313,5.6113 -8.62935,-1.7145 -6.41554,-6.027 -7.5177,-8.8125 -4.29627,-10.8576 3.12255,-1.9823 2.65269,-2.7654 -1.68172,-2.8034 -3.30815,-0.03 -6.01479,-2.1328 -6.01479,-4.6753 0,-8.2313 11.88154,-15.6788 31.07356,-19.4771 10.31982,-2.0424 22.18865,-4.4313 26.37522,-5.3085 5.02899,-1.053 6.94523,-3.3325 5.64708,-6.7155 -1.13865,-2.9674 -0.003,-5.1643 2.69909,-5.2249 3.57631,-0.075 3.46171,-0.8085 -0.49155,-3.126 -7.39871,-4.3361 -4.9863,-37.7117 2.92575,-40.4775 3.11674,-1.089 9.53344,-5.3937 14.25936,-9.5649 8.73949,-7.7138 38.36256,-17.5925 43.5505,-14.5233 1.56713,0.927 6.32927,0.3705 10.58259,-1.2375 5.92733,-2.2401 7.73331,-5.6478 7.73331,-14.5919 l 0,-11.6692 15.65426,5.1535 c 11.10753,3.6569 15.09997,6.5982 13.74576,10.1271 -1.1535,3.006 -0.2079,4.4075 2.3901,3.5423 9.10558,-3.0317 6.51343,-12.236 -4.10259,-14.5676 -5.77635,-1.269 -10.50242,-3.7305 -10.50242,-5.4708 0,-1.74 -3.09331,-3.1638 -6.87405,-3.1638 -4.58268,0 -6.87403,-2.2914 -6.87403,-6.874 0,-3.7808 1.54665,-6.8741 3.43701,-6.8741 1.89037,0 3.05035,1.863 2.57778,4.14 -1.25805,6.0612 9.04384,5.5098 11.78799,-0.6315 1.93878,-4.3383 2.37732,-4.2045 2.57776,0.7875 0.141,3.4959 2.93075,6.0147 6.66308,6.0147 4.92865,0 6.86494,-3.306 8.32894,-14.2209 2.26572,-16.8923 7.26828,-22.6626 22.2436,-25.6578 11.08186,-2.2163 11.12428,-2.1716 11.12428,11.7501 0,7.6861 1.4685,14.8824 3.26336,15.9917 3.72318,2.3011 8.7951,-20.0624 5.6896,-25.0871 -1.75165,-2.8343 4.86591,-7.4573 10.67453,-7.4573 1.0341,0 0.7836,15.4667 -0.5565,34.3703 l -2.43674,34.3703 8.00876,-0.2415 c 4.40461,-0.135 11.10186,-1.5707 14.88258,-3.1953 6.6937,-2.8764 6.6982,-2.9603 0.1719,-3.1955 -5.04638,-0.1815 -5.72682,-1.2165 -2.75427,-4.1895 2.97259,-2.9725 6.08455,-2.548 12.59608,1.7186 9.64184,6.3175 24.53201,7.5067 27.79932,2.2201 1.40415,-2.2719 4.54274,-2.155 9.21018,0.3435 5.13473,2.7482 6.43832,2.7507 4.74411,0.011 -1.2849,-2.08 -0.38895,-3.781 1.99113,-3.781 3.12944,0 3.28775,-1.0395 0.5718,-3.7554 -2.71591,-2.7161 -5.69781,-2.7161 -10.7725,0 -9.27881,4.9657 -10.90604,4.7485 -10.90604,-1.4565 0,-2.8662 5.51939,-7.8432 12.26531,-11.0601 8.65111,-4.1255 12.84517,-8.7482 14.23317,-15.6883 1.40625,-7.0315 2.79523,-8.5342 4.86718,-5.2659 2.17616,3.4329 2.91243,3.5021 2.95194,0.2775 0.027,-2.3629 1.30815,-4.2963 2.84258,-4.2963 1.53451,0 2.85598,10.44 2.93662,23.2 0.081,12.7599 1.53176,22.4265 3.22481,21.4813 1.69302,-0.945 2.85075,-3.7276 2.57277,-6.1833 -0.2781,-2.4555 1.2687,-3.8691 3.43701,-3.141 2.16835,0.7275 3.94903,4.157 3.95703,7.6202 0.005,3.463 1.94134,6.9388 4.29628,7.7238 2.35494,0.7845 4.28171,2.845 4.28171,4.5778 0,4.5075 -19.79627,3.9098 -21.31406,-0.6435 -1.3755,-4.1268 -88.66027,2.1323 -92.04609,6.6006 -0.97905,1.2915 -7.19341,2.7756 -13.80969,3.2967 -34.66682,2.7303 -45.08436,2.8995 -46.41059,0.753 -0.80295,-1.299 -12.72894,-0.3885 -26.50224,2.0231 -13.77327,2.4118 -32.38893,5.362 -41.36817,6.5559 -8.97921,1.194 -16.32585,3.652 -16.32585,5.4625 0,1.8107 3.48,2.465 7.7333,1.4535 22.70673,-5.3968 76.39756,-11.5102 78.02983,-8.8846 2.42589,3.9021 66.31208,-2.4015 69.03788,-6.8118 1.1202,-1.8125 14.30804,-3.2118 29.3063,-3.1095 14.99827,0.105 31.71571,-0.7185 37.14988,-1.8251 6.67539,-1.359 11.9408,-0.15 16.23257,3.7379 4.31269,3.9028 9.57753,5.1036 16.39704,3.7398 8.25183,-1.6505 10.49359,-0.657 12.55918,5.5665 l 2.51445,7.5754 1.52787,-7.7842 c 0.84045,-4.2815 2.85714,-6.9629 4.48175,-5.9588 1.62459,1.0035 3.98958,0.15 5.25562,-1.8988 1.28085,-2.0726 -0.7713,-4.5282 -4.62694,-5.5364 -6.98468,-1.8265 -12.86715,-15.8986 -9.15612,-21.9033 1.13145,-1.8307 -0.6912,-2.3083 -4.19111,-1.098 -5.38332,1.8614 -5.31124,1.455 0.55095,-3.1045 5.77748,-4.4939 6.07731,-6.0497 2.09163,-10.8521 -4.0149,-4.8378 -3.87531,-5.3079 1.01865,-3.4299 6.27345,2.4074 10.96455,16.1603 7.45125,21.8448 -1.2348,1.9979 -0.2202,3.6327 2.25419,3.633 3.19891,3e-4 4.41163,-5.4627 4.19628,-18.9037 -0.2565,-15.9971 0.6447,-18.9041 5.85901,-18.9041 7.05468,0 11.66672,17.4087 9.15176,34.5443 -1.77375,12.0853 1.2054,14.9863 11.90331,11.5909 l 7.64608,-2.4267 -8.53608,-3.3427 c -4.93584,-1.9328 -6.73567,-4.0191 -4.26732,-4.9464 3.00971,-1.131 3.28373,-3.4443 0.9291,-7.8441 -3.00838,-5.6213 -2.52319,-5.8551 4.88957,-2.357 4.5262,2.1362 7.46424,5.1218 6.52908,6.635 -0.9351,1.5132 2.29015,2.0275 7.16742,1.143 4.87728,-0.885 8.86779,-0.1635 8.86779,1.6014 0,1.7652 -3.47997,3.3924 -7.7333,3.616 -13.114,0.69 10.53374,5.5955 29.21469,6.0608 14.16996,0.3525 16.32586,-0.501 16.32586,-6.4674 0,-3.7808 -1.9334,-6.921 -4.2963,-6.9786 -2.3844,-0.06 -1.6196,-1.6635 1.7185,-3.6078 3.3081,-1.9268 6.064,-5.3597 6.1241,-7.6287 0.06,-2.2691 2.5882,-7.2189 5.6179,-10.9995 5.6448,-7.0441 5.4965,-5.6486 -1.1557,10.8748 -1.5576,3.8688 -1.0016,4.9152 1.7185,3.2342 2.2116,-1.3665 4.0211,-0.939 4.0211,0.9525 0,1.8903 -1.5467,4.3929 -3.437,5.5612 -1.8904,1.1685 -3.437,5.1263 -3.437,8.7953 0,4.6387 2.3701,6.6712 7.7793,6.6712 7.4879,0 7.7679,-1.0815 7.4752,-28.876 -0.2244,-21.3154 0.7874,-28.4575 3.8645,-27.2765 2.2929,0.8805 5.2031,6.5274 6.4674,12.5502 l 2.2986,10.9506 6.2781,-11.8847 6.278,-11.8848 5.1992,17.0403 c 3.6912,12.0976 5.3184,14.548 5.6098,8.4478 0.2257,-4.7259 1.9334,-10.9126 3.7948,-13.7482 3.0084,-4.5826 3.7605,-4.5826 6.7688,0 1.8615,2.8356 3.4252,8.2489 3.4749,12.0296 0.05,3.7808 1.0492,12.674 2.2208,19.763 1.7603,10.6494 1.1213,12.8887 -3.6776,12.8887 -3.1945,0 -4.8523,1.5467 -3.6839,3.4371 1.1683,1.8903 9.7176,3.437 18.9986,3.437 14.5394,0 16.5608,-0.8175 14.6083,-5.9052 -1.2463,-3.2478 3.1839,-0.5415 9.8447,6.0148 7.6933,7.5722 10.7531,12.8411 8.3887,14.4452 -2.1111,1.4325 -0.3588,2.5479 4.0487,2.5777 9.1798,0.06 38.6291,13.3098 38.6291,17.3772 0,1.5507 3.4642,3.3137 7.6982,3.9177 4.234,0.6045 8.2493,3.9882 8.9229,7.5201 0.8522,4.4681 -0.099,5.6037 -3.1267,3.7325 -3.078,-1.9023 -3.7092,-1.0155 -2.1568,3.03 1.8198,4.7424 -0.135,5.7193 -11.4455,5.7193 -15.2681,0 -15.1331,-0.1635 -9.7165,11.7254 4.1527,9.1141 1.7963,8.382 69.9723,21.7398 17.0132,3.3333 30.9568,7.6074 30.9858,9.4977 0.027,1.8903 1.287,5.3812 2.7956,7.7575 3.1159,4.9079 -5.5553,9.6279 -11.2368,6.1166 -2.2095,-1.365 -2.698,0.045 -1.2864,3.7291 1.7744,4.6241 0.9465,5.4207 -3.7575,3.6156 -3.3184,-1.2735 -7.0669,-2.3389 -8.33,-2.3679 -1.2632,-0.03 -0.1625,-1.404 2.446,-3.0564 3.3053,-2.0935 -0.6521,-4.1608 -13.0581,-6.8214 -22.0448,-4.7286 -31.2103,-4.8402 -31.2103,-0.381 0,1.8903 2.32,3.4371 5.1555,3.4371 2.8356,0 5.1556,2.3199 5.1556,5.1555 0,3.9147 -4.3427,5.1807 -18.0444,5.2601 -13.8834,0.075 -16.6633,0.909 -12.0551,3.5935 3.2941,1.919 7.9341,3.2354 10.3111,2.9253 8.9555,-1.1685 13.2435,0.375 11.0237,3.9662 -1.263,2.0436 -5.8995,2.8111 -10.3033,1.7059 -4.4038,-1.1055 -8.8149,-0.702 -9.8023,0.8955 -0.9875,1.5978 -6.568,2.6211 -12.401,2.2742 -7.7718,-0.462 -13.9565,2.4382 -23.1461,10.8556 -12.5667,11.5107 -20.9506,13.3584 -38.4385,8.4714 -4.5857,-1.281 -9.0501,-4.467 -9.9208,-7.0791 -1.078,-3.234 0.2115,-4.0606 4.0415,-2.5908 3.6345,1.395 5.6245,0.372 5.6245,-2.8894 0,-2.7762 2.3685,-5.0477 5.2634,-5.0477 2.8949,0 6.1537,-2.3199 7.2417,-5.1555 2.7844,-7.2558 10.6912,-6.4147 13.1718,1.401 1.1445,3.6062 4.2376,7.3841 6.8735,8.3957 3.3126,1.2705 2.5997,-1.8777 -2.3086,-10.1966 l -7.1012,-12.0357 9.0518,-17.8906 c 13.5384,-26.7581 11.0677,-28.7954 -9.262,-7.6373 -25.3018,26.3327 -38.0246,24.9018 -30.2108,-3.3975 l 3.5262,-12.771 -16.1463,1.8198 c -8.8804,1.0005 -19.0591,0.261 -22.6192,-1.6441 -4.2501,-2.2746 -7.2079,-2.2982 -8.6135,-0.075 -1.2001,1.9039 -16.4861,3.1924 -34.7924,2.9326 -28.32899,-0.402 -32.65694,-1.242 -32.69153,-6.346 -0.0225,-3.2355 -1.86966,-7.7126 -4.10601,-9.9489 -3.13015,-3.1302 -4.58479,-1.9997 -6.3193,4.9111 -2.16161,8.6126 -3.02031,8.9046 -21.12927,7.1867 -12.75518,-1.2105 -18.15032,-0.6165 -16.63788,1.8309 1.23105,1.9918 4.41841,3.6216 7.08306,3.6216 2.89444,0 4.04841,2.0754 2.86648,5.1555 -1.0881,2.8354 -0.2664,5.1555 1.82636,5.1555 2.09265,0 3.80475,1.4415 3.80475,3.2025 0,3.3754 -9.25502,2.8731 -24.77093,-1.344 -16.93828,-4.6043 -18.46104,0.345 -2.30953,7.5061 18.87466,8.3688 26.49342,17.0181 11.72551,13.3116 -22.64785,-5.6841 -29.32635,-6.2496 -29.32635,-2.4831 0,2.1267 2.31999,3.8666 5.15553,3.8666 2.86418,0 5.15555,3.0552 5.15555,6.874 0,3.7808 1.4982,6.8741 3.32914,6.8741 1.83104,0 2.53782,2.0623 1.57059,4.5828 -0.9834,2.5629 0.51225,4.5826 3.39372,4.5826 2.83373,0 4.35566,-1.2885 3.38208,-2.8642 -0.97365,-1.5753 0.5499,-2.8641 3.38538,-2.8641 7.66167,0 10.18886,6.3817 5.16362,13.0393 -3.7502,4.9683 -3.69036,5.208 0.3915,1.568 6.7236,-5.9957 9.91162,-5.3553 8.55748,1.7185 -0.6333,3.3081 -1.26975,8.2437 -1.41435,10.968 -0.19215,3.6225 -1.61868,3.1608 -5.3092,-1.7185 -4.97663,-6.5796 -5.04773,-6.5765 -5.15555,0.2355 -0.06,3.7984 2.77368,8.7069 6.29735,10.9074 5.72649,3.5763 6.67084,10.8703 8.89554,68.7079 2.10837,54.81421 3.42201,65.75806 8.59227,71.58106 5.18743,5.8425 6.66067,18.39225 9.81681,83.6244 2.16876,44.82495 5.27518,78.63225 7.46809,81.2745 2.06505,2.4882 7.1778,3.804 11.36162,2.92395 6.90737,-1.4535 7.03457,-1.236 1.3833,2.36085 -3.42293,2.17875 -8.44958,3.10695 -11.17032,2.06295 -2.89026,-1.1085 -4.94676,0.156 -4.94676,3.04155 0,3.13365 2.19915,4.2483 6.01479,3.0486 5.72839,-1.8012 5.72839,-1.65525 0,3.0645 -6.43001,5.298 -8.22408,16.2276 -2.6637,16.2276 1.89037,0 2.4522,4.4946 1.28895,10.311 -2.00384,10.0194 1.36455,12.6834 13.50819,10.6836 41.67052,23.83935 0.3672,6.83295 -1.8042,7.1241 -4.53698,0.648 -8.12292,3.9099 -8.7603,7.9701 -0.8946,5.69805 -0.4578,5.99205 2.55304,1.7184 2.91237,-4.1337 3.45984,-3.45255 2.76254,3.4371 49.38044,12.4548 14.11824,42.276 -0.1335,28.80555 -1.1703,-1.17 0.17985,-4.43505 2.99983,-7.2552 4.54531,-4.54545 4.43341,-5.63505 -0.98505,-9.59715 -8.62552,-6.3072 -10.86943,-3.5865 -9.26935,11.2386 0.7656,7.09335 1.60432,21.7902 1.86385,32.6598 0.41835,17.52345 1.29315,19.8081 7.71857,20.16165 5.86739,0.3225 6.09389,0.699 1.1898,1.9785 -3.33129,0.8685 -5.19597,2.973 -4.14381,4.67535 1.05225,1.7025 -0.40125,7.3854 -3.22979,12.6288 l -5.14282,9.53325 1.4931,-12.58245 c 1.07325,-9.04395 -0.39105,-14.84355 -5.20638,-20.62215 l -6.69941,-8.0397 -0.114,14.32095 c -0.0645,8.13915 -1.96887,15.0735 -4.41063,16.06425 -3.33223,1.3515 -3.24252,2.4813 0.39975,5.03265 3.31152,2.3196 4.70142,11.51655 4.71422,31.1949 0.011,15.348 1.3767,27.9054 3.03726,27.9054 1.66045,0 3.25464,-5.02665 3.54255,-11.17035 0.9195,-19.6182 1.43475,-21.4983 5.65183,-20.62215 4.99559,1.038 5.51892,-4.75425 0.6987,-7.73325 -1.89036,-1.1685 -3.39,-4.73955 -3.3325,-7.9362 0.096,-5.33145 0.39405,-5.31465 3.60783,0.2025 1.92679,3.3081 5.58093,6.01485 8.12031,6.01485 2.53935,0 5.55578,2.4465 6.70318,5.4366 3.0764,8.0169 2.5353,18.6225 -0.9501,18.6225 -1.67,0 -3.77544,3.8667 -4.67887,8.5926 -1.8126,9.4821 0.5301,10.83165 7.45747,4.2963 3.6748,-3.46695 4.2623,-3.30105 3.0428,0.8595 -0.8312,2.8356 -4.8912,6.68235 -9.02214,8.54835 -8.65335,3.9087 -10.52289,18.9477 -2.35532,18.9477 2.86416,0 5.15546,-3.05505 5.15546,-6.87405 0,-3.7806 1.5467,-6.87405 3.437,-6.87405 1.8904,0 3.4371,3.09345 3.4371,6.87405 0,3.78075 -1.2612,6.87405 -2.8027,6.87405 -1.5414,0 -2.3992,6.5733 -1.9062,14.60745 0.4931,8.034 0.981,16.425 1.0842,18.6465 -63.89001,-18.01995 33.156,220.97806 -0.3106,264.04856 -1.2194,0 -5.41031,2.8899 -9.31331,6.4221 -4.90809,4.4418 -9.78874,5.7464 -15.82746,4.2308 -5.53921,-1.3905 -8.73102,-0.7545 -8.73102,1.7409 0,2.5359 -3.66112,3.1998 -10.31107,1.8699 -10.2965,-2.0594 -13.97867,1.9675 -6.19689,6.777 5.7856,3.5757 30.11199,2.0614 95.55945,-5.9481 31.1909,-3.8172 71.0137,-7.2279 88.4948,-7.5795 17.4813,-0.351 31.7879,-1.8669 31.7925,-3.3675 0,-1.5006 1.9418,-2.4774 4.3047,-2.1705 2.363,0.3075 8.5835,0.375 13.8235,0.15 l 9.5271,-0.408 -1.9413,-21.4169 c -1.3809,-15.234 -4.0563,-23.6679 -9.2671,-29.2146 -4.0292,-4.2889 -5.8961,-7.845 -4.1489,-7.9024 1.7473,-0.06 0.4703,-1.6811 -2.8379,-3.6078 -7.3703,-4.2929 -7.862,-10.0358 -0.8592,-10.0358 2.8356,0 5.1556,-2.32 5.1556,-5.1555 0,-2.8356 -1.5823,-5.1556 -3.5163,-5.1556 -1.9582,0 -1.302,-3.4266 1.481,-7.7333 5.0735,-7.8513 6.8084,-34.3518 3.3753,-51.5553 -1.2723,-6.3754 -4.0347,-9.4518 -8.4872,-9.4518 -5.2225,0 -6.6009,-2.4534 -6.6009,-11.7484 0,-6.4617 -0.9306,-14.1735 -2.068,-17.1374 -1.4272,-3.7194 0.8465,-6.4969 7.3393,-8.9655 9.3191,-3.5431 9.3851,-3.7921 7.0495,-26.5894 -1.2968,-12.657 -4.1914,-24.14611 -6.4327,-25.53121 -3.1376,-1.9392 -3.1225,-5.0415 0.066,-13.48785 2.2773,-6.03315 3.5743,-11.90265 2.8823,-13.0434 -1.4634,-2.4123 -3.7707,-31.3425 -8.8005,-110.3403 -1.9859,-31.191 -4.3227,-60.5775 -5.1929,-65.3034 2.2502,-44.3454 -16.3241,-111.2463 -9.3794,-75.8193 3.9939,4.9023 4.2995,-13.28205 0.9992,-59.4516 -0.1155,-1.62 -2.5306,-2.0553 -5.3661,-0.9675 -6.8452,2.62665 -6.5203,-0.912 0.8294,-9.03345 5.7186,-6.31905 5.6347,-6.89685 -1.8865,-12.98715 -0.6242,-47.9628 1.9715,-22.40985 2.3979,-31.63695 0.4185,-9.83865 -0.7824,-16.32585 -3.022,-16.32585 -2.5135,0 -2.6448,-2.0022 -0.4056,-6.18615 1.8208,-3.4023 4.2853,-25.4421 5.4765,-48.97755 1.1913,-23.5353 2.8787,-46.27155 3.7498,-50.5248 1.0641,-5.1957 -0.054,-7.73325 -3.4055,-7.73325 -7.5453,0 -9.5283,-10.89331 -7.4322,-40.82866 2.2073,-31.52535 4.2012,-38.22285 11.3792,-38.22285 4.1672,0 4.7843,-2.7684 3.0438,-13.6534 l -2.1833,-13.6535 12.9143,1.191 c 7.1029,0.6555 16.781,2.8067 21.5069,4.7813 15.3276,6.4045 22.2911,8.6883 24.858,8.1525 1.3845,-0.2895 3.4957,3.3727 4.6916,8.1375 1.1959,4.7647 4.751,10.042 7.9003,11.7276 3.1494,1.68535 5.9686,6.2845 6.2651,10.22035 0.6416,8.5161 -1.9731,9.1503 -7.3588,1.785 -3.125,-4.2738 -3.6552,-2.51865 -2.5956,8.5926 0.7323,7.67985 2.571,13.96335 4.0858,13.96335 1.5149,0 1.9454,-3.0933 0.9567,-6.87405 -0.9886,-3.7806 -0.7335,-6.8739 0.5673,-6.8739 4.1883,0 12.6805,10.16565 10.8995,13.04745 -0.9482,1.53405 -0.2103,9.52545 1.6396,17.75865 1.8499,8.23335 2.0471,16.28565 0.4383,17.89456 -1.6089,1.6089 -0.9033,14.12235 1.5679,27.80835 2.4712,13.6857 6.0937,37.93065 8.0501,53.8776 3.7061,30.21135 7.4482,38.8722 15.4657,35.79555 6.333,-2.43015 23.3887,14.9088 20.9407,21.2883 2.8269,8.39055 -7.3293,37.7493 4.7376,41.09205 2.2045,-1.362 1.6719,-3.9762 -1.4457,-7.0938 -6.3737,-6.37365 -10.1309,-6.32025 -7.6638,0.105 1.0649,2.775 0.3941,5.99835 -1.4905,7.16325 -1.8847,1.1655 -2.5276,4.95075 -1.4286,8.41335 1.099,3.4626 0.5145,7.2126 -1.299,8.33325 -3.8278,2.3658 -7.2624,-10.9953 -7.885,-30.6738 -0.5756,-18.1923 -18.3423,-35.6505 -33.9493,-33.35985 -13.1065,1.9236 -13.0152,7.179 0.1704,9.81615 7.3804,1.476 10.4244,4.1382 10.7098,9.36585 0.3169,5.80785 0.7206,6.07185 1.9706,1.2885 0.8644,-3.3081 2.9755,-6.01485 4.6913,-6.01485 2.7933,0 4.1966,4.2174 8.2913,24.91845 0.6582,3.32775 -0.8678,6.01485 -3.4158,6.01485 -2.533,0 -5.1202,-4.2534 -5.7493,-9.4518 l -1.1439,-9.4518 -2.0923,9.6999 c -1.7177,7.96335 -0.6834,10.23585 5.777,12.69195 7.9569,3.02535 9.4877,6.0405 13.73,27.0432 1.6466,8.1519 3.2057,10.24125 5.2155,6.9894 1.5768,-2.5512 1.5412,-6.23715 -0.08,-8.1909 -1.8769,-2.26335 0.064,-3.73215 5.3522,-4.04805 4.5639,-0.273 8.2981,0.888 8.2981,2.57775 0,1.6905 -1.9333,3.1782 -4.2963,3.30615 -2.363,0.135 -0.8163,1.91085 3.437,3.96225 4.2533,2.05125 7.7333,5.3493 7.7333,7.32885 0,2.2158 -1.5853,2.0139 -4.1244,-0.525 -2.2684,-2.26845 -5.217,-4.1244 -6.5523,-4.1244 -4.1458,0 1.2638,15.2388 6.9768,19.6536 2.9802,2.3028 3.7944,4.23615 1.8096,4.2963 -1.9849,0.06 -5.4649,-1.74675 -7.7334,-4.0152 -2.2684,-2.26845 -4.1481,-2.65515 -4.177,-0.8595 -0.027,1.7958 -1.6914,0.945 -3.6943,-1.89045 -4.535,-6.42 -1.6474,42.46935 5.075,85.9257 1.3159,8.5065 2.9826,21.6531 3.7038,29.2146 0.7212,7.5615 4.5384,36.948 8.4827,65.3034 11.4659,82.42635 23.8612,176.19746 27.7141,209.65846 1.959,17.0133 5.1009,38.6664 6.9819,48.1183 1.8811,9.4518 4.1387,23.3717 5.0171,30.9332 0.8784,7.5615 3.0755,24.5437 4.8826,37.7383 2.2475,16.41 2.1411,25.3697 -0.3367,28.3556 -5.1768,6.2376 7.8886,5.7067 57.0858,-2.3196 31.245,-5.0975 50.0493,-6.2124 79.2626,-4.7 1191.371,21.882 -481.23463,508.9815 65.3716,119.8071 -11.3423,0.822 -32.9955,3.0074 -48.1183,4.8578 -15.1229,1.8505 -49.1494,5.026 -75.6145,7.0566 -26.4651,2.0307 -54.305,4.3366 -61.8664,5.1244 -7.5615,0.7875 -28.4414,2.2626 -46.3998,3.2775 -17.9585,1.0155 -58.945,3.3801 -91.0811,5.2559 -80.5769,4.7034 -205.0624,9.8605 -297.30241,12.3168 -42.53316,1.1325 -85.19238,3.2008 -94.79826,4.596 -9.60587,1.395 -20.43249,1.476 -24.05916,0.18 -7.03371,-2.5137 -89.56249,-0.9525 -114.06736,2.1574 -9.16018,1.1625 -13.8234,3.2387 -12.41044,5.5248 1.32015,2.1362 0.2736,2.9394 -2.51123,1.9277 -2.62608,-0.954 -4.39788,-3.4454 -3.93732,-5.5359 0.5799,-2.6319 -14.21992,-3.8528 -48.11832,-3.9692 -26.92563,-0.09 -58.62232,-0.8445 -70.4371,-1.6722 -14.13006,-0.9885 -21.48138,-0.222 -21.48138,2.2421 0,2.4522 -1.48365,2.6146 -4.29629,0.4695 -3.82462,-2.916 -19.00672,-3.3494 -28.35543,-0.81 -1.89036,0.513 -7.7104,-0.2655 -12.93346,-1.7324 -6.12966,-1.7208 -11.30841,-1.1625 -14.60735,1.5756 -3.54955,2.9469 -5.10945,3.0641 -5.10945,0.384 0,-2.1219 -4.63998,-3.8578 -10.31106,-3.8578 -6.87405,0 -10.31107,1.7184 -10.31107,5.1555 0,2.8356 -1.7121,5.1555 -3.80475,5.1555 -2.09261,0 -2.91449,-2.3199 -1.82636,-5.1555 1.57664,-4.1087 -1.1403,-5.1555 -13.38039,-5.1555 -440.837548,-97.221 -752.97723,194.8074 509.98439,46.6609 6.82515,-2.2476 7.77099,-1.6765 6.12095,3.6957 -2.89641,9.4299 -3.06854,29.3385 -0.33,38.1465 2.25439,7.2503 1.41345,7.7333 -13.46286,7.7333 -9.44079,10e-5 -15.86733,-1.5623 -15.86733,-3.8577 0,-2.6801 -1.56056,-2.5628 -5.11179,0.384 -2.84154,2.3581 -7.80243,3.1554 -11.17034,1.795 -5.32954,-2.1528 -5.06809,-2.8282 2.1729,-5.6136 4.52727,-1.7413 10.7139,-2.4427 13.74809,-1.5585 3.03417,0.885 10.15665,-0.504 15.82773,-3.0843 5.67109,-2.5807 8.28645,-4.8178 5.81196,-4.9713 -2.47452,-0.1545 -3.56301,-1.7938 -2.41883,-3.6451 1.1442,-1.8513 0.46785,-6.3789 -1.50304,-10.0616 -2.86293,-5.3493 -2.37663,-7.011 2.41884,-8.2648 3.65124,-0.954 2.27445,-1.7256 -3.51515,-1.9682 -8.63613,-0.3615 -9.30571,0.444 -7.23204,8.7066 2.34831,9.3564 0.123,9.3515 -11.93934,-0.03 -3.76342,-2.9259 -3.44194,-4.0665 1.71852,-6.0972 4.72755,-1.8604 3.49658,-2.5597 -4.8223,-2.7396 -6.5309,-0.135 -11.17034,1.4715 -11.17034,3.8828 0,3.2079 -0.9165,3.2079 -4.12441,0 -4.97049,-4.9704 -33.68283,-5.5565 -33.68283,-0.687 0,1.8904 -1.63794,3.4371 -3.63989,3.4371 -2.00191,0 -2.55717,-1.7519 -1.2339,-3.893 1.78055,-2.8809 -15.81097,-3.2503 -67.67833,-1.4205 -56.59429,1.9959 -71.07664,3.5007 -75.23984,7.8179 -4.60028,4.7704 -4.50774,5.1201 0.8592,3.2475 3.72309,-1.299 6.01479,-0.393 6.01479,2.3763 0,7.0701 -4.10549,9.3444 -9.21425,5.1045 -3.76081,-3.1212 -4.23444,-2.604 -2.38815,2.6076 1.8872,5.3271 1.467,5.7252 -2.32725,2.2047 -6.34125,-5.8839 -11.29053,-5.4054 -8.88657,0.8595 3.43221,8.9442 -0.5244,5.5867 -5.74222,-4.8726 -3.19569,-6.4061 -3.81105,-11.2199 -1.70361,-13.3274 2.10745,-2.1075 -6.72906,-3.4813 -24.46371,-3.8037 -15.26951,-0.2775 -27.76278,0.306 -27.76278,1.2975 0,0.9915 3.09333,4.8956 6.87405,8.6763 3.78072,3.7808 6.76533,10.3541 6.63246,14.6073 -0.177,5.6633 -0.86685,6.3306 -2.57777,2.4932 -1.2849,-2.8821 -6.54145,-9.8879 -11.6812,-15.5684 -8.40044,-9.2842 -11.70092,-10.4251 -32.65172,-11.2869 -12.81868,-0.5265 -27.94668,-1.479 -33.61776,-2.115 -5.67108,-0.636 -13.20435,0.3825 -16.74063,2.2626 -4.55073,2.4198 -5.74693,2.3144 -4.09344,-0.3615 1.67064,-2.7031 -20.97478,-3.9163 -79.49599,-4.2589 -720.4717,-74.4921 -116.38609,127.3683 -38.72579,20.9865 2.43033,-3.8427 3.20069,-2.8815 3.24084,4.0431 0.0585,10.0453 9.78963,16.1857 14.38517,9.0768 2.29591,-3.5517 3.4461,-3.492 5.89411,0.306 1.96722,3.0519 7.34502,4.216 15.22551,3.2961 6.70118,-0.783 11.36999,-0.105 10.37514,1.5043 -560.989889,91.9683 -692.63244,-204.0162 -60.1213,-273.6944 z m 282.38363,241.8357 c 0,-1.8903 -0.68205,-3.4369 -1.51568,-3.4369 -0.83355,0 -2.47155,1.5466 -3.63987,3.4369 -1.16835,1.8905 -0.4863,3.4371 1.51568,3.4371 2.00191,0 3.63987,-1.5466 3.63987,-3.4371 z m 252.62115,-77.436 c 112.28757,-3.4324 307.27897,-11.9604 355.73177,-15.558 25.5199,-1.8948 62.6397,-4.2571 82.4886,-5.2495 19.8487,-0.993 38.4087,-2.6222 41.2442,-3.6213 2.8356,-0.999 17.5288,-2.5082 32.6517,-3.3533 15.1229,-0.8445 39.8695,-3.0483 54.9923,-4.896 326.138,-79.8457 289.9112,-49.3717 8.441,-47.9889 -10.8614,0 -48.9103,2.2425 -84.5534,4.9832 -35.643,2.7408 -77.952,5.9029 -94.0201,7.0269 -16.0681,1.1235 -36.948,2.6689 -46.3998,3.4332 -9.4518,0.7635 -35.7451,2.2501 -58.4294,3.3022 -22.6844,1.0515 -51.2976,2.666 -63.5849,3.5865 -12.2874,0.921 -55.5939,2.5932 -96.2367,3.7169 -40.6428,1.1235 -74.2824,3.0691 -74.7546,4.323 -0.4724,1.254 -14.00555,1.7344 -30.07394,1.068 -25.0133,-1.038 -29.21525,-0.42 -29.21525,4.2963 0,3.0295 -1.54665,5.5083 -3.43702,5.5083 -1.89036,0 -3.58731,3.48 -3.77102,7.7332 -0.26235,6.0686 -1.47855,4.9427 -5.65024,-5.2299 -4.87317,-11.8828 -6.34908,-12.9013 -17.71034,-12.2223 -6.81681,0.408 -13.50696,2.3742 -14.86705,4.3706 -1.6958,2.4892 -4.73346,2.2285 -9.6668,-0.8295 -8.28408,-5.1356 -20.51202,-2.4597 -20.51202,4.4884 0,2.5967 -1.71235,5.7794 -3.80523,7.0728 -2.56068,1.5827 -3.04698,-0.03 -1.48695,-4.9525 1.89095,-5.9579 0.8499,-7.3796 -5.64652,-7.7115 -4.38072,-0.2235 -9.44604,-0.12 -11.25629,0.2385 -1.81029,0.3555 -31.19683,1.2375 -65.30343,1.9603 -34.10664,0.723 -65.87873,1.4685 -70.60463,1.6541 -4.72591,0.186 -14.93938,-0.45 -22.69662,-1.4145 -13.30578,-1.6532 -14.01697,-1.2975 -12.56517,6.2979 0.84645,4.4275 -0.15315,9.096 -2.2218,10.3743 -2.33461,1.443 -3.76068,-0.8895 -3.76068,-6.153 0,-7.8617 -1.39695,-8.5628 -19.23676,-9.6546 -10.58027,-0.648 -20.06417,0.165 -21.07536,1.8054 -1.01115,1.6405 -8.59454,2.0568 -16.85192,0.9255 -10.69692,-1.4655 -15.02856,-0.8415 -15.06606,2.1727 -0.036,2.8823 -1.0371,2.675 -3.14179,-0.651 -2.48019,-3.9184 -18.73224,-5.1498 -82.43594,-6.246 -73.93905,-1.272 -79.34671,-0.954 -79.34671,4.6784 0,5.5282 -0.408,5.4858 -4.78364,-0.498 -3.97591,-5.4374 -5.67976,-5.7981 -10.09137,-2.1369 -3.62017,3.0045 -7.28995,3.3732 -11.54223,1.1595 -268.426,101.1676 -229.04129,12.8776 94.98912,46.2994 2.01014,1.7972 360.17824,-1.5076 445.26298,-4.1086 z m 23.97678,-12.1324 c 6.32538,-1.8875 11.50613,-1.7747 13.57623,0.2955 2.17206,2.172 -1.41975,3.2439 -10.22868,3.0522 -13.41702,-0.2925 -13.45627,-0.3315 -3.34755,-3.3476 z m -254.25729,-3.2312 c -1.16835,-1.8903 -0.4863,-3.4369 1.51567,-3.4369 2.00192,0 3.63986,1.5466 3.63986,3.4369 0,1.8905 -0.68205,3.4371 -1.51566,3.4371 -0.83355,0 -2.47155,-1.5466 -3.63987,-3.4371 z m -223.40646,-3.4369 c -1.3719,-2.2199 -0.9477,-5.5826 0.9426,-7.473 2.29134,-2.2914 4.26852,-2.0918 5.9314,0.5985 1.3719,2.2198 0.9477,5.5825 -0.9426,7.473 -2.29134,2.2912 -4.2685,2.0916 -5.93139,-0.5985 z m 462.27953,-1.7186 c 0,-2.8354 1.49805,-5.1555 3.32914,-5.1555 1.83104,0 2.4389,2.3201 1.35075,5.1555 -1.0881,2.8356 -2.58624,5.1555 -3.32917,5.1555 -0.74295,0 -1.35075,-2.3199 -1.35075,-5.1555 z m -448.62421,-1.8685 c -1.11735,-1.8078 -0.78015,-3.3098 0.7491,-3.3377 1.52933,-0.03 -0.9639,-1.9612 -5.54052,-4.2963 -4.57662,-2.335 -8.94769,-6.5655 -9.71346,-9.4011 -0.8484,-3.1417 -0.2832,-3.7764 1.44705,-1.6248 1.56168,1.9419 7.13766,3.4161 12.39105,3.2759 5.97957,-0.159 8.97206,1.2555 8.0019,3.7837 -0.85245,2.2212 -0.0195,5.5683 1.8497,7.4381 2.24127,2.2413 1.60179,4.0893 -1.87703,5.4243 -2.90205,1.113 -6.19062,0.546 -7.30789,-1.2615 z m 369.57269,-10.161 c 0,-3.7808 1.4019,-6.8741 3.11523,-6.8741 1.71339,0 2.30636,3.0933 1.31775,6.8741 -0.98865,3.7807 -2.39055,6.874 -3.11526,6.874 -0.72465,0 -1.3176,-3.0933 -1.3176,-6.874 z m -432.79347,-2.0049 c 0.165,-4.004 0.97935,-4.8185 2.07651,-2.0766 0.99285,2.4811 0.87075,5.4456 -0.27105,6.5877 -1.1421,1.1415 -1.95444,-0.888 -1.80519,-4.5111 z m 37.80724,0 c 0.165,-4.004 0.97935,-4.8185 2.07651,-2.0766 0.99285,2.4811 0.87075,5.4456 -0.27105,6.5877 -1.1421,1.1415 -1.95442,-0.888 -1.80519,-4.5111 z m -27.76753,-1.4325 c 0,-1.8903 1.63794,-3.437 3.63985,-3.437 2.00195,0 2.68398,1.5467 1.51568,3.437 -1.16835,1.8904 -2.80626,3.4371 -3.63987,3.4371 -0.8337,0 -1.51566,-1.5467 -1.51566,-3.4371 z m 10.58242,-2.0049 c 0.165,-4.004 0.97935,-4.8183 2.07651,-2.0765 0.99285,2.481 0.87075,5.4455 -0.27105,6.5876 -1.1421,1.1415 -1.95444,-0.888 -1.80519,-4.5111 z m 499.81541,-23.5145 c 5.67108,-0.8115 48.20416,-2.4153 94.51806,-3.5626 146.8241,-3.6374 256.2015,-9.6446 443.3759,-24.3509 20.4705,8.7516 301.0792,-66.0169 -56.5473,-42.681 -56.006,3.6059 -69.16,5.9346 -66.6342,11.7968 0.642,1.4895 -3.9441,3.111 -10.1911,3.6024 -14.4193,1.134 -15.907,2.7724 -10.9424,12.0489 3.1128,5.8164 3.0783,8.4342 -0.1512,11.4648 -3.1479,2.9539 -4.5754,2.8626 -5.7603,-0.369 -1.7848,-4.8677 -11.3135,-5.9201 -11.3135,-1.2495 0,1.6756 -6.8545,4.0746 -15.2323,5.331 -15.9691,2.3946 -30.872,-3.1491 -28.073,-10.4432 2.5493,-6.6432 -11.1107,-15.67 -18.0738,-11.9436 -4.1874,2.241 -10.4906,1.7579 -19.6518,-1.5061 -18.2768,-6.5118 -32.3908,-6.4907 -32.3908,0.045 0,7.6984 -5.7936,6.2215 -7.9506,-2.0268 -1.3044,-4.9881 -3.7892,-6.6228 -8.1341,-5.3511 -3.4408,1.0065 -41.0558,2.8227 -83.589,4.035 -71.4446,2.0359 -119.2089,3.7606 -129.7476,4.6846 -2.363,0.207 -4.2963,1.9233 -4.2963,3.8138 0,1.8903 1.16,3.2538 2.5778,3.03 6.6165,-1.0455 8.9857,0.807 4.5912,3.589 -2.6733,1.6922 -10.01987,2.2395 -16.32579,1.2165 -8.60289,-1.3965 -11.46527,-0.6105 -11.46527,3.1494 0,3.566 2.85485,4.5911 9.90407,3.5565 5.72655,-0.84 11.03839,0.381 12.59329,2.8979 1.9248,3.1143 0.9927,3.7003 -3.279,2.0611 -3.28251,-1.26 -9.26227,-0.528 -13.28826,1.6272 -4.93333,2.6403 -7.7079,2.754 -8.5096,0.3495 -0.80955,-2.4288 -4.45191,-2.3371 -11.40324,0.2865 -5.95026,2.2461 -9.51272,5.682 -8.5344,8.2314 0.92355,2.4069 -0.5922,4.3761 -3.3684,4.3761 -7.03077,0 -6.16745,-3.6366 3.45979,-14.5738 5.66927,-6.4406 10.25309,-8.7252 14.49873,-7.2263 5.04443,1.7808 4.77461,0.798 -1.4391,-5.2431 -4.38033,-4.2585 -14.2035,-8.3335 -22.9929,-9.5383 -14.69661,-2.0144 -15.25851,-1.7714 -13.2924,5.7469 1.42275,5.4405 0.8316,7.0956 -1.92556,5.3916 -2.18811,-1.353 -3.97842,-4.7788 -3.97842,-7.6144 0,-2.8356 -1.60754,-4.1621 -3.57225,-2.9478 -1.96473,1.215 -10.47137,2.2078 -18.90362,2.2078 -10.6221,0 -15.33138,1.434 -15.33138,4.6662 0,8.3798 -7.22322,9.3792 -14.99781,2.0754 l -7.61491,-7.1539 -4.0518,10.7346 c -2.22849,5.9038 -3.23598,12.0543 -2.23889,13.6677 0.99705,1.6134 0.1749,2.9334 -1.82695,2.9334 -2.00192,0 -3.83319,-1.5467 -4.06949,-3.4371 -0.2364,-1.8903 -0.62295,-4.5971 -0.8592,-6.0147 -0.2364,-1.4175 -3.90954,-6.0578 -8.16279,-10.311 -7.64421,-7.6442 -8.55351,-7.713 -79.05151,-5.9843 -39.2251,0.9615 -76.38368,1.7352 -82.5746,1.7184 -9.76695,-0.03 -11.52908,1.3335 -13.31847,10.2806 -1.13415,5.671 -4.18887,10.311 -6.78812,10.311 -2.95966,0 -4.7259,-3.8537 -4.7259,-10.311 0,-9.4446 -0.9867,-10.3112 -11.74147,-10.3112 -9.74055,0 -12.51935,1.7573 -16.30563,10.3112 -2.51027,5.671 -5.62902,10.311 -6.93051,10.311 -3.28388,0 -7.11396,-13.0335 -4.88834,-16.6347 1.00215,-1.6214 -2.76471,-3.0785 -8.37072,-3.2379 -5.60596,-0.159 -10.19272,1.0485 -10.19272,2.6857 0,1.6367 -2.84568,3.8787 -6.32373,4.9827 -3.47808,1.104 -8.45348,6.2348 -11.05649,11.4018 -2.60301,5.1672 -5.02003,9.8888 -5.37117,10.4924 -0.35115,0.603 -3.64887,-0.783 -7.32835,-3.0806 -8.80208,-5.497 -26.27885,-1.3785 -23.61449,5.5641 2.52236,6.5732 -6.07881,6.5198 -11.54925,-0.075 -3.3649,-4.0543 -5.71093,-4.2771 -11.59119,-1.0995 -9.78321,5.286 -57.2092,7.6926 -57.2092,2.9033 0,-1.9766 1.9333,-3.7026 4.29628,-3.8354 2.36294,-0.135 1.21695,-1.4445 -2.54656,-2.9133 -4.50396,-1.7584 -10.82577,-0.435 -18.49545,3.8733 -15.57917,8.7503 -21.49772,5.9982 -20.45328,-9.5107 0.83175,-12.3501 9.61486,-21.2882 16.64793,-16.9415 1.85125,1.1445 3.36597,0.4425 3.36597,-1.5595 0,-2.0021 -4.63998,-3.6399 -10.31108,-3.6399 -5.67108,0 -10.31106,1.446 -10.31106,3.2133 0,1.7673 -1.80372,7.5672 -4.00828,12.8887 -2.20457,5.3216 -4.13787,10.7583 -4.29629,12.0815 -0.1584,1.323 -1.84756,3.9655 -3.75375,5.8717 -262.41167,-95.5782 -213.47432,62.2932 553.38937,9.1658 z m -411.36864,-7.7616 c 2.48109,-0.993 5.44555,-0.87 6.58764,0.2715 1.1421,1.1415 -0.88785,1.9545 -4.51107,1.8053 -4.00397,-0.165 -4.81838,-0.9795 -2.07657,-2.0766 z m 65.94787,-6.0418 c 0,-2.9472 1.54667,-5.3585 3.43703,-5.3585 1.89036,0 3.43702,1.455 3.43702,3.2342 0,1.7788 -1.54666,4.1901 -3.43702,5.3584 -1.89036,1.1685 -3.43703,-0.2865 -3.43703,-3.2341 z m 39.75135,1.8807 c -1.0443,-1.6898 1.95671,-2.8497 6.66878,-2.5779 4.71205,0.2715 8.56849,1.6543 8.5698,3.0721 0.003,3.6386 -12.94389,3.2186 -15.23858,-0.495 z m 479.63428,-22.8776 0.3952,-17.0133 2.7183,13.7481 c 1.5262,7.7195 1.353,15.18 -0.3953,17.0133 -1.8782,1.9697 -2.9567,-3.4846 -2.7182,-13.7481 z m -74.4936,-6.8115 c 3.6694,-2.7754 9.8561,-4.9971 13.7481,-4.9369 6.961,0.105 6.9676,0.192 0.4047,5.1555 -3.6695,2.7754 -9.8561,4.9971 -13.7481,4.9369 -6.961,-0.105 -6.9676,-0.192 -0.4047,-5.1555 z m -603.6023,4.1222 c 0.65775,-3.3915 -1.0956,-5.73 -4.29629,-5.73 -3.18829,0 -5.40753,2.9386 -5.40753,7.1604 0,8.3763 8.03153,7.1922 9.70382,-1.431 z m 888.9307,-5.4939 c 1.0877,-1.7598 0.4056,-4.1711 -1.5156,-5.3583 -1.9212,-1.188 -3.4931,0.252 -3.4931,3.1995 0,6.0372 2.0624,6.9261 5.0087,2.1588 z m -747.52828,-10.0803 c 4.19073,-0.39 4.07584,-1.425 -0.6867,-6.1877 -4.33121,-4.3312 -6.84768,-4.7833 -10.36716,-1.8624 -2.5562,2.1215 -8.04716,2.9682 -12.2021,1.8816 -5.419,-1.4175 -7.55443,-0.4455 -7.55443,3.4359 0,5.3054 1.6155,5.4486 30.81045,2.7324 z m -138.25307,-2.5089 c -2.4732,-2.4731 -54.41551,-2.2241 -56.9125,0.273 -0.97215,0.972 11.89455,1.7676 28.59273,1.7676 16.69818,0 29.44209,-0.918 28.31977,-2.0406 z m 475.20403,-1.6256 c 0,-3.8632 2.10367,-3.7213 -53.27385,-3.5922 -50.89164,0.12 -51.14292,0.135 -39.52577,3.7037 12.45698,3.8188 92.79962,3.7224 92.79962,-0.105 z m 280.90492,-12.1584 c -1.1421,-1.1415 -4.1065,-1.2645 -6.5876,-0.2715 -2.7418,1.098 -1.9274,1.9118 2.0765,2.0766 3.6232,0.15 5.6532,-0.663 4.5111,-1.8052 z m -16.2542,-4.2022 c 0,-1.563 -4.64,-2.1608 -10.3111,-1.329 -5.6711,0.8325 -10.3111,2.1111 -10.3111,2.8417 0,0.7305 4.64,1.329 10.3111,1.329 5.6711,0 10.3111,-1.278 10.3111,-2.8417 z m 124.4659,-7.4693 c -0.8323,-5.6712 -2.1111,-10.3111 -2.8418,-10.3111 -0.7306,0 -1.3284,4.6399 -1.3284,10.3111 0,5.6711 1.2788,10.311 2.8418,10.311 1.563,0 2.1607,-4.6399 1.3284,-10.311 z m -847.42667,-1.8667 c 2.9785,-7.7619 -2.18045,-11.153 -6.15699,-4.0472 -1.86477,3.3321 -5.08109,5.0136 -7.14734,3.7365 -2.25223,-1.392 -2.77464,-0.732 -1.3044,1.6463 3.51582,5.6887 12.21855,4.8931 14.60874,-1.335 z m -27.1293,-0.495 c -3.28611,-0.861 -9.47276,-0.891 -13.74809,-0.075 -4.27534,0.822 -1.58674,1.5261 5.9747,1.5642 7.56145,0.045 11.05948,-0.6345 7.77339,-1.494 z m 511.92938,-39.702 c -0.82215,-4.2753 -1.52598,-1.5867 -1.56411,5.9748 -0.0375,7.5615 0.6345,11.0595 1.49475,7.7733 0.86025,-3.2861 0.89145,-9.4727 0.069,-13.7481 z m 355.48779,-6.2547 c -2.1398,-12.9027 -3.2264,-15.3725 -3.5036,-7.9631 -0.4673,12.4905 3.653,35.5242 5.4111,30.2501 0.657,-1.9707 -0.2013,-11.9999 -1.9075,-22.287 z m -839.10182,12.5971 c 0,-0.7425 -2.4003,-2.2717 -5.33406,-3.3976 -3.05868,-1.173 -4.43831,-0.597 -3.23417,1.3515 2.01845,3.2658 8.56823,4.8304 8.56823,2.0467 z m 834.08962,-50.5548 c -1.8656,-17.3538 -5.8024,-27.5437 -5.7294,-14.8299 0.058,10.3107 4.1182,32.3654 5.9566,32.3654 0.9118,0 0.8097,-7.8909 -0.2271,-17.5355 z m -353.9179,-38.3161 c -0.81915,-4.2534 -1.4895,-0.774 -1.4895,7.7332 0,8.5067 0.67035,11.9867 1.4895,7.7333 0.8193,-4.2533 0.8193,-11.2133 0,-15.4665 z m -469.86065,9.4518 c 0,-2.8356 -1.3812,-5.1555 -3.0693,-5.1555 -1.68811,0 -3.95955,2.3199 -5.04769,5.1555 -1.2051,3.1404 -0.005,5.1555 3.0693,5.1555 2.77623,0 5.04769,-2.3201 5.04769,-5.1555 z m 818.13645,-14.6073 c -1.4406,-14.3144 -1.7911,-14.9093 -2.8448,-4.8284 -1.0665,10.2044 0.743,21.1542 3.4958,21.1542 0.5456,0 0.2528,-7.3467 -0.651,-16.3258 z m -5.2105,-47.7882 c -1.3165,-12.2937 -3.1393,-21.6066 -4.0506,-20.6954 -0.9112,0.9105 -0.5277,13.0196 0.8523,26.9072 1.38,13.8877 3.2028,23.2006 4.0506,20.6953 0.8478,-2.5053 0.4642,-14.6136 -0.8523,-26.9071 z m -312.966,-2.9079 c -2.17309,-20.292 -1.80421,-22.3773 4.0226,-22.7394 5.3649,-0.333 5.4779,-0.6465 0.6903,-1.9148 -4.75539,-1.2585 -6.13974,-8.467 -8.17482,-42.56396 -2.38065,-39.8865 -2.67467,-41.0481 -10.38993,-41.0481 l -7.93991,0 1.3713,54.13305 c 0.85875,33.90251 2.70662,54.29371 4.94453,54.56281 1.96531,0.237 4.92663,0.6225 6.58069,0.8595 1.65405,0.237 3.93539,5.0697 5.0696,10.7407 3.73726,18.6863 6.26414,10.7406 3.82576,-12.0295 z m -12.71092,-71.31826 c -0.8712,-13.7052 -0.27225,-26.3877 1.33065,-28.18365 1.62324,-1.81845 2.91456,9.222 2.91456,24.91845 0,15.501 -0.5988,28.18365 -1.33065,28.18365 -0.73185,0 -2.04341,-11.2134 -2.91453,-24.91845 z m -21.05691,74.75516 c -1.0881,-2.8354 -0.86685,-5.1529 0.49155,-5.1499 1.3584,0 1.47555,-25.9035 0.2601,-57.57016 -1.21545,-31.66665 -2.37539,-67.50015 -2.57777,-79.6299 -0.20235,-12.12975 -1.2597,-21.16245 -2.34979,-20.0724 -2.87583,2.8758 -2.52393,118.86016 0.408,134.48896 1.70008,9.0622 1.15695,14.0373 -1.72692,15.8196 -3.28575,2.0307 -3.2039,4.2061 0.37365,9.9348 5.31118,8.5045 7.98502,9.6423 5.12113,2.179 z m -19.37919,-13.5451 c 0,-0.834 -1.54667,-2.4716 -3.43703,-3.6399 -1.89036,-1.1685 -3.43702,-0.486 -3.43702,1.5157 0,2.0019 1.54666,3.6398 3.43702,3.6398 1.89036,0 3.43703,-0.6825 3.43703,-1.5156 z m -351.73939,-8.076 c -6.82078,-1.4475 -6.8719,3.9604 0.6822,-72.13606 1.3659,-13.75935 1.28325,-26.90595 -0.1839,-29.21475 -1.467,-2.3088 -2.88826,-2.65125 -3.15846,-0.7605 -1.1676,8.16915 -2.26176,21.09165 -4.44319,52.4784 -1.2786,18.39585 -3.1718,38.28541 -4.20725,44.19901 -1.80064,10.2837 -1.45785,10.6651 7.8732,8.7633 7.10925,-1.449 8.0417,-2.3523 3.43719,-3.3291 z m 331.86578,-7.0386 c 1.35675,-1.317 -3.66984,-2.5566 -11.17033,-2.7533 -13.12299,-0.3435 -16.41651,1.7106 -11.16309,6.9639 2.66512,2.6652 18.28557,-0.279 22.33342,-4.2106 z m -47.05557,-3.8417 c -1.1172,-1.8078 -4.30188,-2.4156 -7.07691,-1.3515 -7.10467,2.7264 -6.26748,4.6377 2.03148,4.6377 3.89228,0 6.16274,-1.479 5.04543,-3.2869 z m 11.93681,-0.15 c 0,-1.8903 -0.68205,-3.4369 -1.51566,-3.4369 -0.83355,0 -2.47155,1.5466 -3.63987,3.4369 -1.16835,1.8905 -0.4863,3.4371 1.51567,3.4371 2.00192,0 3.63986,-1.5466 3.63986,-3.4371 z m 407.37329,-81.68816 c -13.789,-114.02415 -15.3266,-124.74165 -18.7754,-130.8717 -3.4252,-6.08835 -2.6751,5.2272 3.2684,49.3014 1.7845,13.23255 6.3937,49.57905 10.2428,80.77005 9.6776,78.42241 11.2755,88.53451 12.8896,81.57031 0.7743,-3.3407 -2.6571,-39.68716 -7.6254,-80.77006 z m -8.6787,80.17256 c 0,-0.834 -1.5467,-2.4715 -3.437,-3.6399 -1.8904,-1.1685 -3.4371,-0.486 -3.4371,1.5158 0,2.0019 1.5467,3.6397 3.4371,3.6397 1.8903,0 3.437,-0.6825 3.437,-1.5156 z M 917.1932,977.20664 c 2.5678,-6.69165 0.8523,-6.14025 -6.63434,2.13225 -5.2207,5.76885 -5.36319,6.6414 -0.79845,4.8897 3.05598,-1.173 6.4007,-4.33245 7.43274,-7.02195 z m -345.04718,-4.8897 c 0,-1.89045 -1.54667,-3.4371 -3.43703,-3.4371 -1.89036,0 -3.43702,1.54665 -3.43702,3.4371 0,1.8903 1.54666,3.43695 3.43702,3.43695 1.89036,0 3.43703,-1.54665 3.43703,-3.43695 z m 345.42077,-6.87405 c 1.16835,-1.89045 0.4863,-3.4371 -1.51568,-3.4371 -2.00191,0 -3.63987,1.54665 -3.63987,3.4371 0,1.8903 0.68205,3.43695 1.51568,3.43695 0.83355,0 2.47155,-1.54665 3.63987,-3.43695 z m 25.77766,-8.5926 c 0,-2.8356 -1.54666,-5.1555 -3.43702,-5.1555 -1.89036,0 -3.43703,2.3199 -3.43703,5.1555 0,2.8356 1.54667,5.1555 3.43703,5.1555 1.89036,0 3.43702,-2.3199 3.43702,-5.1555 z M 1257.832,941.38364 c -1.305,-5.94135 -3.146,-10.02915 -4.0912,-9.084 -0.9451,0.945 -0.6508,6.5796 0.6542,12.5211 1.305,5.94135 3.1459,10.0293 4.0911,9.084 0.9452,-0.945 0.6509,-6.5796 -0.6541,-12.5211 z m -414.82499,-1.80945 c -1.05825,-1.0575 -2.98008,0.849 -4.27079,4.239 -1.8652,4.89855 -1.47045,5.2932 1.92405,1.92405 2.34894,-2.33145 3.40496,-5.1048 2.34674,-6.16305 z m -2.77323,-8.50155 c 0,-1.8903 -0.68205,-3.4371 -1.51568,-3.4371 -0.83355,0 -2.47155,1.5468 -3.63985,3.4371 -1.16835,1.8903 -0.4863,3.43695 1.51566,3.43695 2.00191,0 3.63987,-1.54665 3.63987,-3.43695 z M 599.40061,906.15419 c 0.1335,-1.4175 -1.305,-2.57775 -3.19543,-2.57775 -1.89036,0 -3.32831,4.25325 -3.19544,9.4518 0.2142,8.37555 0.57795,8.6691 3.19544,2.57775 1.62463,-3.78075 3.06258,-8.034 3.19543,-9.4518 z m 4.34352,-73.896 c 0.4566,-8.034 1.65371,-14.61645 2.66034,-14.62755 1.00665,-0.0111 2.2383,-14.26185 2.73699,-31.66815 0.549,-19.1634 -0.33,-30.34095 -2.22861,-28.33515 -3.0801,3.25425 -5.13763,27.88305 -8.60367,102.9864 -1.60948,34.87425 -1.4985,35.80755 1.42995,12.02955 1.74617,-14.1777 3.54839,-32.35095 4.00496,-40.3851 z m 360.22246,14.60745 c 0,-19.8489 -1.42455,-36.0888 -3.1655,-36.0888 -3.95841,0 -6.45897,51.5988 -2.61499,53.96025 1.54665,0.9495 1.92829,4.0305 0.8481,6.8454 -1.85577,4.83615 0.108,11.3718 3.4167,11.3718 0.8337,0 1.51567,-16.2399 1.51567,-36.08865 z m -44.6813,25.77765 c 0,-1.89045 -0.68205,-3.4371 -1.51567,-3.4371 -0.83355,0 -2.47155,1.54665 -3.63986,3.4371 -1.16835,1.8903 -0.4863,3.43695 1.51568,3.43695 2.0019,0 3.63985,-1.54665 3.63985,-3.43695 z m 24.05916,-5.1555 c 0,-2.8356 -1.4553,-5.15565 -3.23418,-5.15565 -4.33401,0 -7.43805,5.3673 -4.69212,8.1132 3.87075,3.87075 7.9263,2.3574 7.9263,-2.95755 z m 321.99095,-40.1703 c -1.0973,-2.74185 -1.9116,-1.92735 -2.0765,2.0766 -0.15,3.6231 0.6631,5.6532 1.8051,4.5111 1.1421,-1.1415 1.2642,-4.10655 0.2711,-6.5877 z m -321.99095,-6.43245 c 0,-1.7787 -1.54666,-3.23415 -3.43702,-3.23415 -1.89036,0 -3.43703,2.41125 -3.43703,5.35845 0,2.94705 1.54667,4.40235 3.43703,3.23415 1.89036,-1.1685 3.43702,-3.5796 3.43702,-5.35845 z m 33.30243,-29.871 c -0.86445,-3.30825 -1.57183,-0.6015 -1.57183,6.0147 0,6.61635 0.7074,9.32295 1.57183,6.01485 0.86445,-3.30825 0.86445,-8.72145 0,-12.02955 z M 589.08955,770.39189 c 0.1335,-6.1437 -1.00965,-11.17035 -2.53903,-11.17035 -1.52933,0 -2.87582,8.11995 -2.99222,18.0444 -0.144,12.29415 0.66495,15.8538 2.53904,11.1702 1.51287,-3.7806 2.85934,-11.9007 2.99221,-18.04425 z m 264.83969,8.59245 c -0.036,-7.5945 -1.0011,-9.6732 -3.01576,-6.4935 -2.70251,4.2654 -1.37445,17.66385 1.75074,17.66385 0.72465,0 1.2939,-5.02665 1.26495,-11.17035 z m 105.54513,-1.653 c -0.8715,-3.3441 -1.64175,-1.44 -1.71178,4.23075 -0.0705,5.6712 0.6429,8.4072 1.58442,6.08025 0.94155,-2.32695 0.9987,-6.9669 0.1275,-10.311 z m 303.51313,2.51235 c 0,-1.89045 -2.7067,-3.4134 -6.0148,-3.38445 -5.1402,0.045 -5.2652,0.537 -0.8592,3.38445 6.4864,4.19175 6.8741,4.19175 6.8741,0 z m 14.1676,-5.757 c -2.9955,-5.1513 -3.6662,-5.2998 -3.752,-0.831 -0.111,5.7882 3.503,10.9998 5.9389,8.56395 0.8034,-0.804 -0.1806,-4.2834 -2.1869,-7.73325 z m -643.37141,-57.6561 c -1.99415,-2.0295 -3.07515,2.523 -2.85648,12.02955 l 0.35175,15.29475 2.85646,-12.02955 c 1.6716,-7.03965 1.52565,-13.38405 -0.35175,-15.29475 z m -21.48255,7.7763 c -1.09725,-2.74185 -1.91162,-1.9275 -2.07651,2.07645 -0.1485,3.62325 0.66315,5.6532 1.80517,4.5111 1.1421,-1.1415 1.2642,-4.10655 0.27105,-6.58755 z m 2.26219,-26.16345 c 1.35,-7.0863 0.8904,-10.5561 -1.22475,-9.24885 -1.86187,1.1505 -3.38524,6.89865 -3.38524,12.77325 0,12.98295 1.71532,11.67165 4.61007,-3.5244 z m 28.85765,-13.5771 c 0.28155,-13.49355 -0.8577,-18.0444 -4.51652,-18.0444 -3.7854,0 -4.75566,4.97475 -4.28709,21.98085 0.7509,27.2544 8.22297,23.9133 8.80361,-3.93645 z m -23.49924,-27.4962 c 0.1884,-4.2534 -1.20405,-7.7334 -3.09443,-7.7334 -1.89036,0 -3.28282,7.3467 -3.09442,16.32585 0.27915,13.30635 0.85155,14.73675 3.09442,7.7334 1.5135,-4.7259 2.90598,-12.0726 3.09443,-16.32585 z m 20.96473,-0.8595 c 0,-3.78075 -1.54666,-6.87405 -3.43702,-6.87405 -1.89036,0 -3.43703,3.0933 -3.43703,6.87405 0,3.78075 1.54667,6.87405 3.43703,6.87405 1.89036,0 3.43702,-3.0933 3.43702,-6.87405 z m 328.94801,-21.4413 c -0.82215,-4.2753 -1.52598,-1.5867 -1.56411,5.9748 -0.0375,7.56135 0.6345,11.0595 1.49475,7.7733 0.86025,-3.28605 0.89145,-9.4728 0.069,-13.7481 z m -52.26769,11.1303 c 1.16835,-1.89045 0.4863,-3.4371 -1.51568,-3.4371 -2.00191,0 -3.63987,1.54665 -3.63987,3.4371 0,1.8903 0.68205,3.43695 1.51568,3.43695 0.83355,0 2.47155,-1.54665 3.63987,-3.43695 z M 639.87505,610.57019 c -0.81915,-4.2534 -1.4895,-0.774 -1.4895,7.73325 0,8.50665 0.67035,11.98665 1.4895,7.73325 0.8193,-4.25325 0.8193,-11.21325 0,-15.4665 z m 22.65149,-38.4432 c 0.91335,-16.22565 0.28455,-30.35145 -1.3971,-31.39095 -1.68182,-1.0395 -3.05783,7.24815 -3.05783,18.4167 0,11.1684 -0.7215,32.5263 -1.60317,47.4618 -1.3146,22.2666 -1.06305,24.2622 1.3971,11.08455 1.65018,-8.83905 3.74765,-29.34645 4.66101,-45.5721 z m 578.67806,45.31725 c -0.9534,-2.36295 -1.7336,-0.4305 -1.7336,4.29615 0,4.72605 0.7802,6.65925 1.7336,4.2963 0.9534,-2.36295 0.9534,-6.2295 0,-8.59245 z m 57.5022,9.1179 c 4.6847,-1.7976 4.7268,-2.6739 0.3388,-7.0617 -4.3878,-4.38795 -5.9499,-4.13325 -12.5893,2.0523 l -7.5799,7.0617 7.241,0 c 3.9826,0 9.6478,-0.924 12.5894,-2.0523 z m -361.22726,-8.1558 c -6.58135,-7.68645 -9.07563,-7.2096 -5.87785,1.1235 1.1919,3.1062 4.30653,5.6475 6.9213,5.6475 3.69447,0 3.46186,-1.5093 -1.0434,-6.77115 z m 32.27193,-11.05845 c -1.0971,-2.74185 -1.91161,-1.92735 -2.07651,2.0766 -0.15,3.6231 0.66315,5.6532 1.80519,4.5111 1.1421,-1.1415 1.2642,-4.10655 0.27105,-6.5877 z m 317.29523,-6.2295 c 0,-1.89045 -1.5467,-3.4371 -3.4371,-3.4371 -1.8903,0 -3.437,1.54665 -3.437,3.4371 0,1.8903 1.5467,3.43695 3.437,3.43695 1.8904,0 3.4371,-1.54665 3.4371,-3.43695 z m -316.65467,-35.0109 c -0.26535,-37.60635 -5.52544,-63.291 -6.55581,-32.01105 -0.9918,30.10725 2.03049,67.02195 5.48717,67.02195 0.7236,0 1.2045,-15.75495 1.0686,-35.0109 z m -18.33745,8.478 c -3.56543,-14.20575 -6.17774,-6.05925 -3.19874,9.97545 2.03556,10.95645 3.09863,12.72405 4.06311,6.756 0.7185,-4.44555 0.3297,-11.9748 -0.86445,-16.73145 z m 313.28082,15.57735 c -1.0973,-2.74185 -1.9116,-1.9275 -2.0765,2.0766 -0.15,3.6231 0.6631,5.65305 1.8051,4.51095 1.1421,-1.1415 1.2642,-4.10655 0.2711,-6.58755 z m -621.96259,-27.711 c -0.76245,-6.1437 -1.3863,-1.1175 -1.3863,11.17035 0,12.28725 0.62385,17.3139 1.3863,11.17035 0.76245,-6.1437 0.76245,-16.197 0,-22.3407 z m 290.65646,0.8595 c -0.98865,-3.78075 -2.39055,-6.87405 -3.11527,-6.87405 -0.72465,0 -1.3176,3.0933 -1.3176,6.87405 0,3.78075 1.4019,6.87405 3.11524,6.87405 1.71339,0 2.30636,-3.0933 1.3176,-6.87405 z m 15.02847,-18.0444 c -0.9534,-2.36295 -1.73361,-0.429 -1.73361,4.2963 0,4.7259 0.78015,6.65925 1.73361,4.2963 0.9534,-2.36295 0.9534,-6.22965 0,-8.5926 z m -302.22057,0 c -0.65625,-17.67195 1.287,-26.83725 5.21962,-24.61695 3.26081,1.84095 3.34791,1.3965 0.36135,-1.8417 -3.71982,-4.0341 -3.64639,-15.47895 0.3807,-59.37106 0.819,-8.92665 0.18855,-17.03385 -1.40085,-18.0162 -1.5895,-0.9825 -3.88371,15.6012 -5.09832,36.85216 -1.21455,21.2511 -3.07459,45.98505 -4.13334,54.9642 -1.1445,9.70725 -0.55575,16.32585 1.4526,16.32585 1.85772,0 3.30587,-1.93335 3.2181,-4.2963 z m -17.35092,-44.46645 c -1.09725,-2.74185 -1.91162,-1.92735 -2.07651,2.0766 -0.1485,3.6231 0.66315,5.6532 1.80517,4.5111 1.1421,-1.1415 1.2642,-4.10655 0.27105,-6.5877 z m 321.26811,-25.99245 c -1.3794,-11.69086 -1.83544,-12.18766 -4.90591,-5.34525 -3.49617,7.791 -1.45035,18.23415 3.57199,18.23415 1.57014,0 2.17038,-5.80005 1.33395,-12.8889 z m 287.54274,-2.0622 c 0.763,-9.28696 -0.089,-12.50581 -2.8563,-10.79536 -2.2824,1.41 -3.0453,6.01576 -1.8112,10.93291 1.7292,6.8898 0.9697,8.274 -4.0178,7.32315 -3.3825,-0.645 -6.6473,-4.6596 -7.255,-8.92155 -0.6078,-4.2621 -2.4488,-6.91875 -4.091,-5.9037 -1.6454,1.017 -1.3548,6.5247 0.6469,12.267 2.733,7.83975 5.4494,10.1625 10.9651,9.37575 5.7992,-0.8265 7.5593,-3.8121 8.4193,-14.2782 z m -23.4279,8.07705 c 0,-1.89045 -1.7122,-3.4371 -3.8048,-3.4371 -2.0926,0 -2.9335,-2.2704 -1.8686,-5.0454 2.319,-6.0432 -3.9319,-10.78321 -8.369,-6.3462 -1.8851,1.88505 -0.7395,6.1272 2.8773,10.65345 6.4103,8.0226 11.1651,9.8007 11.1651,4.17525 z m -280.8387,-13.7529 c 0.9894,-3.78331 0.39645,-6.01201 -1.31775,-4.95271 -1.71405,1.059 -3.11647,4.15486 -3.11647,6.87886 0,7.11375 2.33545,6.0993 4.43415,-1.92615 z m 13.31187,-44.98501 -3.14944,-22.03215 -0.4242,25.60575 c -0.29355,17.7234 0.6759,24.5058 3.14944,22.03215 2.39637,-2.3964 2.53611,-10.83195 0.4242,-25.60575 z m 215.57773,-11.72115 c -1.3116,-1.8903 -3.2249,-7.30365 -4.2518,-12.02955 -1.0271,-4.7259 -1.2147,-0.09 -0.4172,10.31115 0.9887,12.888 0.4011,17.2629 -1.8465,13.74795 -5.0656,-7.9221 -4.3141,2.2746 0.84,11.3964 3.998,7.07565 4.3517,6.71685 6.151,-6.24075 1.05,-7.5615 0.836,-15.29475 -0.4755,-17.1852 z m 72.5712,25.77765 c 0,-1.8903 -1.6379,-3.43695 -3.6399,-3.43695 -2.0019,0 -2.6839,1.54665 -1.5156,3.43695 1.1683,1.89045 2.8062,3.4371 3.6399,3.4371 0.8335,0 1.5156,-1.54665 1.5156,-3.4371 z m -62.1606,-42.9627 c 0.1035,-1.8904 -1.3104,-1.1175 -3.1428,1.7186 -1.8325,2.8354 -3.2468,7.47535 -3.1428,10.31095 0.1993,5.4438 5.9277,-5.5191 6.2856,-12.02955 z m -519.78529,4.5111 c -1.0971,-2.7418 -1.91162,-1.9275 -2.07651,2.07645 -0.1485,3.62325 0.66315,5.6532 1.80517,4.5111 1.1421,-1.1415 1.2642,-4.10655 0.27105,-6.58755 z m 515.22619,-73.7032 c -0.9927,-2.5872 -0.05,-4.7039 2.097,-4.7039 2.1461,0 3.19,-0.7125 2.3198,-1.5822 -2.8212,-2.8212 -16.7309,2.2673 -14.7886,5.4099 1.0354,1.6755 0.1534,3.0464 -1.96,3.0464 -2.1135,0 -2.9766,1.401 -1.9179,3.1143 3.0619,4.9543 16.2955,0.045 14.2497,-5.2845 z m -12.3318,-13.5618 8.5925,-5.1771 -8.5925,2.2482 c -4.7259,1.236 -10.0619,3.621 -11.8577,5.2989 -5.25,4.9051 2.2814,3.3999 11.8577,-2.37 z m 34.3702,-11.7644 c 2.8356,-1.8324 3.6089,-3.3318 1.7185,-3.3318 -1.8903,0 -5.757,1.5 -8.5925,3.3318 -2.8356,1.8326 -3.6089,3.3318 -1.7185,3.3318 1.8903,0 5.757,-1.4985 8.5925,-3.3318 z m 72.1775,-0.2025 c 0,-2.0019 -1.3265,-2.82 -2.9477,-1.818 -1.6212,1.002 -7.787,0.4335 -13.7017,-1.263 -10.3197,-2.9596 -18.9099,0.849 -10.009,4.437 8.0578,3.2486 26.6584,2.3022 26.6584,-1.356 z m -599.76039,-13.5454 c 1.16835,-1.8903 0.4863,-3.437 -1.51567,-3.437 -2.00192,0 -3.63986,1.5467 -3.63986,3.437 0,1.8904 0.68205,3.4371 1.51568,3.4371 0.83355,0 2.47155,-1.5467 3.63985,-3.4371 z m 446.53389,-34.8216 c -1.0149,-1.6421 -7.6946,-2.9856 -14.8439,-2.9856 -7.1494,0 -25.5012,-1.6826 -40.7819,-3.7391 -39.3761,-5.2992 -46.4451,-2.1406 -9.3986,4.1994 34.1908,5.8515 67.8889,7.1601 65.0244,2.5253 z m -111.58174,-17.0282 c -2.11003,-3.9426 -4.70485,-6.3 -5.76622,-5.2384 -1.0614,1.062 0.027,4.2871 2.41779,7.1683 6.17907,7.4454 7.85037,6.4821 3.34843,-1.9299 z m -17.69629,-2.038 c -3.40775,-0.8985 -5.03153,-3.6012 -3.91362,-6.5144 1.34085,-3.4942 0.25935,-4.3453 -3.62751,-2.854 -9.35013,3.588 -6.52644,11.7426 3.91357,11.3022 5.44673,-0.2295 6.98387,-1.05 3.62756,-1.9338 z m -17.44724,-3.1811 c -1.1421,-1.1415 -4.10656,-1.2645 -6.58765,-0.2715 -2.74181,1.0965 -1.9274,1.9118 2.07657,2.0766 3.62317,0.15 5.65317,-0.663 4.51108,-1.8052 z m 86.85637,-21.9826 c 0,-1.8903 -0.682,-3.437 -1.5157,-3.437 -0.8335,0 -2.4715,1.5467 -3.6398,3.437 -1.1684,1.8903 -0.4863,3.4369 1.5156,3.4369 2.0019,0 3.6399,-1.5466 3.6399,-3.4369 z m 18.1098,1.182 c -2.327,-0.942 -6.967,-0.999 -10.3111,-0.12 -3.3441,0.8715 -1.4403,1.6417 4.2309,1.7118 5.6711,0.075 8.4072,-0.6435 6.0802,-1.5845 z m -287.91602,-18.3677 c -1.16835,-1.8904 -3.57959,-3.4371 -5.35838,-3.4371 -1.7788,0 -3.23418,1.5467 -3.23418,3.4371 0,1.8903 2.41128,3.437 5.35838,3.437 2.94712,0 4.4025,-1.5467 3.23418,-3.437 z m 276.68022,-3.4371 c 0,-1.8903 -1.5466,-3.4369 -3.437,-3.4369 -1.8903,0 -3.437,1.5466 -3.437,3.4369 0,1.8905 1.5467,3.4371 3.437,3.4371 1.8904,0 3.437,-1.5466 3.437,-3.4371 z m -4.5261,-24.7036 c -1.0971,-2.7417 -1.9117,-1.9274 -2.0765,2.0766 -0.15,3.6232 0.6631,5.6532 1.8051,4.5111 1.1421,-1.1415 1.2642,-4.1066 0.2712,-6.5877 z m -291.05774,-23.6176 c 0,-3.6691 -1.54666,-6.6712 -3.43702,-6.6712 -1.89036,0 -3.43703,3.958 -3.43703,8.7954 0,4.9884 1.4877,7.876 3.43703,6.6712 1.89036,-1.1685 3.43702,-5.1262 3.43702,-8.7954 z M 493.46997,1479.4746 c 0.8367,-0.837 14.62768,-1.8176 30.6468,-2.1798 16.0191,-0.3615 32.86395,-2.0577 37.43302,-3.7676 5.12559,-1.9182 9.0863,-1.8486 10.34109,0.1815 1.11855,1.8098 7.43351,3.9422 14.03325,4.7387 6.59975,0.7965 -11.84479,1.6956 -40.98789,1.9981 -29.14306,0.303 -52.30288,-0.135 -51.46627,-0.9705 z m 107.31789,-3.6344 c 0,-2.8356 1.28895,-5.1555 2.86422,-5.1555 1.57528,0 2.86416,2.3199 2.86416,5.1555 0,2.8356 -1.2888,5.1555 -2.86416,5.1555 -1.57535,0 -2.86422,-2.3199 -2.86422,-5.1555 z m 66.01926,1.4865 c 1.24845,-2.0199 -0.9771,-4.5166 -4.9527,-5.5563 -8.18294,-2.1399 -9.8172,-7.9603 -2.23511,-7.9603 2.7416,0 6.58856,-2.7068 8.54876,-6.0149 3.06084,-5.1655 3.44893,-4.8015 2.74854,2.5778 -0.69315,7.3045 0.47265,8.448 7.77711,7.6281 8.05209,-0.9045 8.19867,-0.6525 2.33059,3.9966 -6.05793,4.7995 -6.05793,5.014 0,6.5806 3.45824,0.894 1.16985,1.7979 -5.1112,2.0181 -7.2629,0.255 -10.55381,-0.927 -9.10599,-3.2697 z m 24.78288,-0.291 c 2.88544,-2.8854 7.96851,-2.9974 18.73177,-0.4125 l 14.77175,3.5474 -18.73178,0.4125 c -14.13715,0.312 -17.76043,-0.558 -14.77174,-3.5474 z m 37.30594,-1.4835 c -1.2846,-3.3472 -0.51645,-4.9186 1.9952,-4.0813 5.13783,1.7125 7.96666,9.5241 3.44907,9.5241 -1.84565,0 -4.29557,-2.4492 -5.44427,-5.4428 z m 45.17515,3.0173 c 4.25331,-0.819 11.21328,-0.819 15.4666,0 4.25331,0.819 0.7734,1.4895 -7.73329,1.4895 -8.50664,0 -11.98664,-0.6705 -7.73331,-1.4895 z m 34.8738,-0.7185 c 2.63991,-1.6716 13.46652,-2.703 24.05916,-2.2922 10.59262,0.411 22.68453,-0.459 26.87094,-1.9324 4.56208,-1.6059 8.51586,-1.2165 9.86865,0.972 1.2483,2.02 6.67857,2.7676 12.15124,1.6731 5.48871,-1.098 9.89423,-0.486 9.89423,1.3725 0,2.0043 -17.61182,3.3298 -43.82204,3.2983 -26.73841,-0.03 -41.95086,-1.2375 -39.02218,-3.0918 z m 144.71062,-2.078 c 0,-3.7725 4.22219,-5.1006 16.32587,-5.1354 8.97921,-0.03 19.80582,-0.9795 24.05916,-2.1193 4.25329,-1.14 7.73326,-0.549 7.73326,1.3125 0,1.8619 -6.57328,4.4391 -14.60731,5.7268 -8.03406,1.2885 -18.86067,3.008 -24.05916,3.8225 -6.72174,1.053 -9.45182,0.011 -9.45182,-3.6074 z m 65.30339,1.7856 c 0,-1.8904 1.6379,-3.4371 3.6399,-3.4371 2.0019,0 2.6839,1.5467 1.5156,3.4371 -1.1683,1.8903 -2.8062,3.437 -3.6398,3.437 -0.8336,0 -1.5157,-1.5467 -1.5157,-3.437 z m 28.9785,-0.354 c -3.6508,-1.4295 -5.0912,-2.815 -3.2008,-3.0781 18.3751,-2.5575 22.4648,-2.5844 23.9647,-0.1575 2.4532,3.9693 -12.8155,6.3486 -20.7639,3.2356 z m 44.9715,0.441 c -2.7775,-4.494 5.133,-8.3047 9.069,-4.3686 2.2001,2.2001 1.5383,4.0709 -1.9079,5.3933 -2.9021,1.113 -6.1246,0.6525 -7.1611,-1.0245 z m 67.7205,-4.8132 c 0.5325,-6.4342 2.6717,-7.2789 17.9703,-7.095 9.5512,0.12 20.8458,-1.0065 25.0992,-2.4927 9.7951,-3.4216 9.7122,-1.9239 -0.5039,9.0995 -8.8221,9.5191 -14.9971,10.0245 -21.715,1.777 -3.7009,-4.5435 -4.2124,-4.4925 -4.3087,0.429 -0.071,3.6239 -3.1008,5.5853 -8.6278,5.5853 -6.5838,0 -8.3812,-1.6589 -7.9141,-7.3037 z m 47.3657,4.7259 c 0,-1.8904 1.5467,-3.4371 3.4371,-3.4371 1.8903,0 3.437,1.5467 3.437,3.4371 0,1.8903 -1.5467,3.437 -3.437,3.437 -1.8904,0 -3.4371,-1.5467 -3.4371,-3.437 z m 15.2299,-2.6911 c 1.6819,-5.2994 1.1533,-7.4901 -1.6524,-6.8471 -2.2691,0.5205 -4.7655,-0.78 -5.5475,-2.8902 -2.0492,-5.5285 25.8808,-9.4167 31.8799,-4.4379 3.6509,3.0299 4.7714,2.9193 4.7714,-0.471 0,-2.4369 1.0743,-3.3564 2.3875,-2.0433 3.8468,3.8469 4.129,22.8174 0.3396,22.8174 -1.9043,0 -2.5721,-2.3199 -1.484,-5.1555 1.0881,-2.8356 0.4803,-5.1555 -1.3507,-5.1555 -1.831,0 -3.3292,2.0622 -3.3292,4.5827 0,5.4052 -10.9969,6.2739 -14.3454,1.1325 -1.518,-2.3306 -4.3528,-1.8648 -8.229,1.3515 -5.3595,4.4481 -5.6817,4.1778 -3.44,-2.8851 z m 66.2249,1.2165 c -5.7289,-4.3443 -5.5372,-4.6559 2.5753,-4.187 4.8206,0.279 8.7658,2.4398 8.7671,4.8027 0,5.4899 -3.5449,5.2973 -11.3424,-0.6165 z m 57.6892,1.5648 c 1.1379,-1.841 7.8024,-3.1046 14.8102,-2.8079 7.0078,0.297 23.1814,-0.4845 35.9413,-1.7365 15.3635,-1.5071 23.1999,-1.056 23.1999,1.335 0,1.9858 2.5114,1.0995 5.5808,-1.9701 3.6185,-3.6186 8.7544,-4.9047 14.6073,-3.6581 5.0677,1.08 13.3444,-0.3495 18.8713,-3.2572 5.4146,-2.8491 13.7239,-5.1801 18.4652,-5.1801 7.6647,0 8.0975,-0.645 3.9034,-5.8152 -2.5944,-3.1985 -2.9234,-4.7402 -0.7309,-3.4259 5.1175,3.0677 15.4786,-0.819 12.9764,-4.8672 -2.6633,-4.3092 -14.1271,-3.8326 -21.7094,0.903 -3.5648,2.2262 -9.2227,2.8437 -12.8422,1.401 -5.4687,-2.1787 -4.6083,-3.2044 5.5595,-6.627 12.8775,-4.3348 30.9332,-3.3798 30.9332,1.6361 0,1.6758 1.6379,3.0468 3.6398,3.0468 2.0019,0 2.7925,-1.371 1.7571,-3.0462 -1.035,-1.6755 1.1925,-3.8507 4.9527,-4.8338 10.8933,-2.8486 7.9251,2.7737 -5.1942,9.8388 -16.718,9.0035 -15.0253,12.3621 3.4308,6.8076 8.5032,-2.5591 14.5986,-3.2584 13.5453,-1.5541 -2.2757,3.6822 3.1357,4.182 6.6988,0.6195 330.1137,-92.8955 93.239,91.9993 -14.3236,21.1845 -7.6499,-5.3583 -16.3665,-3.8723 -12.6414,2.155 1.1982,1.9386 -28.6576,3.1995 -75.7613,3.1995 -49.5612,0 -76.9889,-1.2135 -75.67,-3.3472 z m -238.8176,-3.3239 c 0,-1.7788 1.5466,-4.1901 3.437,-5.3584 1.8904,-1.1685 3.437,0.2865 3.437,3.2341 0,2.9472 -1.5466,5.3585 -3.437,5.3585 -1.8904,0 -3.437,-1.455 -3.437,-3.2342 z m 13.7481,-2.5848 c 0,-5.7252 10.9716,-8.6874 15.1821,-4.0989 2.7637,3.0117 2.2813,3.5522 -1.8744,2.0997 -3.0779,-1.0755 -7.3312,-0.2205 -9.4519,1.9001 -2.7288,2.7288 -3.8558,2.7577 -3.8558,0.105 z m 20.6221,-1.0545 c 0,-1.8904 2.32,-3.4371 5.1555,-3.4371 2.8356,0 5.1556,1.5467 5.1556,3.4371 0,1.8903 -2.32,3.437 -5.1556,3.437 -2.8355,0 -5.1555,-1.5467 -5.1555,-3.437 z m 124.4202,-0.687 c -11.8409,-11.8408 -1.9534,-15.9792 38.8384,-16.2552 15.1229,-0.105 36.7761,-1.7365 48.1183,-3.6313 25.8143,-4.3128 29.2147,-4.3184 29.2147,-0.045 0,1.8903 -3.8667,3.4369 -8.5926,3.4369 -4.7259,0 -11.6858,3.0933 -15.4666,6.8741 -3.7807,3.7807 -6.874,5.2698 -6.874,3.3091 0,-2.3232 -14.8408,-3.2209 -42.6079,-2.5777 -39.3471,0.912 -42.3627,1.4475 -39.4048,7.002 3.7372,7.0179 2.5802,7.6959 -3.2255,1.8903 z m -851.60518,-26.8087 c 4.56841,0 6.35263,12.76 2.14761,15.3588 -5.82311,-3.2532 -5.66127,-11.9769 -2.14761,-15.3588 z m 431.60111,11.9217 c 0,-5.559 5.37073,-6.8237 8.36997,-1.9709 1.04595,1.6923 -0.4095,3.9638 -3.23417,5.0478 -3.11965,1.197 -5.1358,-0.011 -5.1358,-3.0769 z m 584.56507,-3.6156 c 0.165,-4.004 0.9794,-4.8183 2.0766,-2.0765 0.9928,2.481 0.8707,5.4455 -0.2712,6.5876 -1.1421,1.1415 -1.9545,-0.888 -1.8052,-4.5111 z m -41.5156,-1.458 c -3.9512,-2.5337 -2.7469,-3.3293 5.1556,-3.4056 5.6711,-0.06 14.1777,-1.08 18.9036,-2.2785 4.7259,-1.1985 7.3878,-0.8745 5.9153,0.72 -1.4724,1.594 -4.7612,3.2041 -7.3083,3.5779 -2.5472,0.3735 -7.529,1.5827 -11.0709,2.6862 -3.5419,1.104 -8.7597,0.519 -11.5953,-1.299 z m -515.5533,-3.4113 c 0,-1.8903 1.63795,-3.437 3.63987,-3.437 2.00193,0 2.68398,1.5467 1.51566,3.437 -1.16835,1.8904 -2.80626,3.4371 -3.63986,3.4371 -0.83355,0 -1.51567,-1.5467 -1.51567,-3.4371 z m 342.1305,-3.1994 c -1.0877,-1.7598 -0.4056,-4.171 1.5156,-5.3584 1.9212,-1.188 3.4931,0.252 3.4931,3.1995 0,6.0372 -2.0624,6.9262 -5.0087,2.1589 z m 305.9763,0.075 c -8.5371,-3.3007 -3.8003,-5.6992 13.5199,-6.846 8.9343,-0.591 12.5447,0.2565 10.311,2.4225 -5.3419,5.1798 -16.5121,7.2531 -23.8309,4.4235 z m -572.49231,-6.7791 c 0,-1.8946 1.15995,-4.1359 2.57778,-4.9809 1.4178,-0.8445 44.33758,-2.6434 95.37733,-3.9966 51.0398,-1.353 93.6302,-2.961 94.6452,-3.5727 1.0151,-0.612 23.3566,-2.0586 49.6478,-3.2155 26.2911,-1.1565 49.6828,-3.6644 51.9815,-5.5721 2.2986,-1.9077 4.9756,-2.1802 5.9488,-0.606 0.9732,1.5747 18.5108,1.6611 38.9725,0.192 119.7445,-17.1928 688.8069,-70.4283 257.1723,-18.4038 -7.5613,0.9075 -31.4446,3.3173 -53.0738,5.3555 -21.6291,2.038 -40.9624,4.8984 -42.9628,6.3562 -2.0003,1.458 -7.5036,2.3475 -12.2295,1.9769 -4.7259,-0.3705 -23.2858,0.6975 -41.2442,2.3731 -17.9585,1.676 -53.5317,4.6286 -79.0516,6.5615 -65.4857,4.9597 -79.5222,6.628 -89.91,10.6863 -6.5541,2.5605 -11.2671,2.4324 -16.6583,-0.453 -4.7106,-2.5209 -14.775,-3.2522 -26.9488,-1.9581 -25.6538,2.7271 -60.6063,4.4781 -139.7261,6.9994 -35.9169,1.1445 -71.87674,2.8958 -79.91075,3.8916 -8.67311,1.0755 -14.60736,0.411 -14.60736,-1.6344 z m -50.88528,-26.191 c 0.0705,-5.6711 0.8403,-7.575 1.71178,-4.2309 0.87135,3.3441 0.81405,7.984 -0.1275,10.3111 -0.94155,2.327 -1.65447,-0.4095 -1.5844,-6.0802 z m 17.05773,-8.5926 c 0,-4.7259 0.78015,-6.6593 1.73361,-4.2963 0.9534,2.3629 0.9534,6.2296 0,8.5926 -0.9534,2.3629 -1.73361,0.429 -1.73361,-4.2963 z m 264.10806,2.1481 c 0,-2.5992 -0.9779,-9.9459 -2.1731,-16.3258 -1.5126,-8.0748 -1.0717,-10.5555 1.4511,-8.1629 5.4493,5.168 9.1874,29.2146 4.5415,29.2146 -2.1007,0 -3.8195,-2.1267 -3.8195,-4.7259 z m -709.74514,-2.1427 c 1.16835,-1.8903 3.67085,-3.437 5.56121,-3.437 1.89036,0 2.48115,1.5467 1.3128,3.437 -1.16835,1.8904 -3.67085,3.4371 -5.56121,3.4371 -1.89036,0 -2.48115,-1.5467 -1.3128,-3.4371 z m 94.51811,-3.437 c 2.02339,-3.7807 4.25301,-6.874 4.95468,-6.874 0.7017,0 0.46695,3.0933 -0.5217,6.874 -0.98865,3.7806 -3.2183,6.8741 -4.95474,6.8741 -1.74414,0 -1.51064,-3.0765 0.52185,-6.8741 z m 171.85113,0.2025 c 0,-1.7787 1.54666,-4.1899 3.43702,-5.3583 1.89036,-1.1685 3.43703,0.2865 3.43703,3.2342 0,2.9472 -1.54667,5.3584 -3.43703,5.3584 -1.89036,0 -3.43702,-1.455 -3.43702,-3.2343 z m 732.1903,-15.4975 c -0.076,-7.3941 0.9225,-9.1122 3.6886,-6.3461 2.7185,2.7186 2.7482,5.5911 0.105,10.1393 -3.2336,5.5632 -3.7015,5.0953 -3.7931,-3.7932 z M 648.61294,1239.5452 c 0.9939,-2.9962 12.56835,-4.5921 38.24676,-5.2734 28.52288,-0.7575 37.25715,-2.1124 38.75462,-6.0148 1.488,-3.8778 7.98154,-4.9299 28.20237,-4.5696 14.44803,0.258 22.76628,1.1415 18.48491,1.9642 -4.28135,0.8235 -6.89672,2.9322 -5.81192,4.6875 1.0848,1.7552 -0.53025,3.1913 -3.58891,3.1913 -3.05867,0 -4.60533,-1.5467 -3.43703,-3.437 1.18455,-1.9167 -1.38645,-3.4138 -5.81194,-3.3844 -5.99196,0.045 -6.74875,0.804 -3.08925,3.1209 3.30025,2.0892 -1.6352,3.7296 -15.46661,5.1409 -11.17241,1.14 -29.77176,3.6021 -41.33193,5.4716 -29.50604,4.7716 -46.91693,4.4256 -45.15107,-0.897 z m -11.16349,-6.015 c 0,-3.7806 1.54666,-6.8739 3.43702,-6.8739 1.89036,0 3.43703,3.0933 3.43703,6.8739 0,3.7808 -1.54667,6.8741 -3.43703,6.8741 -1.89036,0 -3.43702,-3.0933 -3.43702,-6.8741 z m 544.76805,-27.496 c -1.1684,-1.8905 0.2869,-3.4371 3.2341,-3.4371 2.9471,0 5.3584,1.5466 5.3584,3.4371 0,1.8903 -1.4554,3.4369 -3.2341,3.4369 -1.7788,0 -4.1901,-1.5466 -5.3584,-3.4369 z m -362.60586,-13.7481 c 0,-3.7808 1.4019,-6.8741 3.11523,-6.8741 1.71341,0 2.30636,3.0933 1.31775,6.8741 -0.98865,3.7807 -2.39055,6.874 -3.11526,6.874 -0.72465,0 -1.3176,-3.0933 -1.3176,-6.874 z m 359.74166,-2.2914 c -4.1748,-4.1748 -2.3748,-7.836 2.8642,-5.8257 2.8355,1.0875 5.1555,3.3595 5.1555,5.0476 0,3.6035 -4.735,4.0628 -8.0197,0.7785 z m -11.4018,-16.722 c 1.0649,2.775 0.4571,5.9595 -1.3507,7.0768 -5.2495,-2.2804 -2.8361,-17.6493 1.3507,-7.0768 z m -334.59177,-3.327 c 0,-2.8356 1.54666,-5.1555 3.43702,-5.1555 1.89036,0 3.43703,2.3199 3.43703,5.1555 0,2.8356 -1.54667,5.1555 -3.43703,5.1555 -1.89036,0 -3.43702,-2.3199 -3.43702,-5.1555 z m 0,-15.4667 c 0,-1.8903 2.41128,-3.4369 5.35837,-3.4369 2.94713,0 4.4025,1.5466 3.23418,3.4369 -1.16835,1.8905 -3.57958,3.4371 -5.35837,3.4371 -1.77881,0 -3.23418,-1.5466 -3.23418,-3.4371 z m -0.3819,-12.0295 c -1.25505,-16.9425 0.4911,-38.8824 2.6653,-33.4895 0.95745,2.3747 3.1553,3.4434 4.88418,2.3748 1.7289,-1.068 3.14348,-0.396 3.14348,1.494 0,1.8903 -1.72344,4.5021 -3.82982,5.804 -2.28858,1.4145 -3.11176,7.7202 -2.04558,15.6694 0.9813,7.3164 0.38475,13.3025 -1.3257,13.3025 -1.71049,0 -3.28182,-2.3199 -3.49185,-5.1555 z m 0.5028,-46.1751 c -4.80977,-8.9873 -4.48608,-10.6775 1.59762,-8.343 2.83554,1.0875 5.15553,0.1755 5.15553,-2.0292 0,-2.2041 1.3392,-3.1799 2.97607,-2.1683 3.65909,2.2614 0.7869,19.1886 -3.25582,19.1886 -1.60347,0 -4.51652,-2.9917 -6.4734,-6.6481 z m -342.99637,-37.9853 c -5.84263,-9.3555 -5.4699,-10.3578 3.85214,-10.3578 6.80365,0 7.85032,1.389 6.47337,8.5926 -1.983,10.3734 -4.66344,10.8317 -10.32551,1.7652 z m 159.56762,-50.4564 c -1.2603,-1.26 -2.29137,-3.8895 -2.29137,-5.8429 0,-2.15356 1.60086,-1.9506 4.06713,0.516 3.61242,4.1626 2.81557,7.2939 -1.77576,5.3274 z m 517.36902,-61.29341 c 0.071,-5.6712 0.8403,-7.575 1.7118,-4.2309 0.8713,3.3441 0.814,7.98405 -0.1275,10.311 -0.9416,2.32695 -1.6545,-0.4095 -1.5844,-6.0801 z m -25.2447,-285.27285 c 0.2835,2.83545 3.0249,5.1555 6.0919,5.1555 4.8052,0 4.9241,0.804 0.8592,5.8152 -3.2052,3.95145 -3.3401,4.9881 -0.4208,3.2343 5.9215,-3.55755 5.3981,0.651 -0.8592,6.9081 -5.3885,5.38845 -6.6342,3.19965 -5.4094,-9.5049 -0.9077,3.76245 -1.4823,-15.2811 -0.2615,-11.6082 z m -317.40903,135.7623 c -1.16835,-1.8903 -0.5775,-3.43695 1.3128,-3.43695 1.89036,0 4.3929,1.54665 5.56122,3.43695 1.16835,1.89045 0.5775,3.4371 -1.3128,3.4371 -1.89037,0 -4.3929,-1.54665 -5.56122,-3.4371 z m 170.13261,-71.05695 c 21.55102,-32.9124 -1.185,-8.57475 -6.05413,-21.4311 -1.179,-3.24885 -0.0345,-4.18245 3.47763,-2.83485 3.96712,1.52235 4.77585,0.252 3.33817,-5.24625 27.77855,-12.3864 29.33395,25.76625 -0.76155,29.5122 z M 968.43356,456.76348 c 0,-10.39695 0.6444,-14.65035 1.43175,-9.4518 0.7875,5.19855 0.7875,13.7052 0,18.90361 -0.7875,5.19855 -1.43175,0.945 -1.43175,-9.45181 z m -3.89439,-36.08865 c -0.36645,-7.5615 -1.52508,-17.6148 -2.57453,-22.3407 -1.63467,-7.36155 -1.35495,-7.72665 1.95258,-2.54845 2.12337,3.3241 3.28187,13.3774 2.5745,22.3405 -1.2501,15.8403 -1.3047,15.91155 -1.95255,2.54865 z m -3.95699,-47.25915 c 0.036,-7.5945 1.00125,-9.6732 3.01577,-6.4935 2.70252,4.2654 1.37445,17.6639 -1.75074,17.6639 -0.72465,0 -1.2939,-5.0267 -1.2651,-11.1704 z m -272.88324,-31.6284 c 1.92429,-5.0146 21.92797,-17.0274 21.92797,-13.1683 0,2.1826 -9.04351,9.6625 -17.96698,14.8605 -4.6778,2.7247 -5.51816,2.3656 -3.96099,-1.6922 z m -94.93079,-1.3425 c 0,-1.5931 7.24008,-6.6198 16.08909,-11.1703 17.07942,-8.7828 46.0302,-10.952 48.47034,-3.6315 0.7242,2.1727 4.22684,3.9504 7.78355,3.9504 3.55668,0 8.08345,3.021 10.05949,6.7132 3.45858,6.4625 3.14621,6.5267 -8.36125,1.7186 -15.65319,-6.5403 -53.02101,-6.3771 -61.80929,0.27 -7.4757,5.6542 -12.23193,6.4902 -12.23193,2.1495 z m 259.49521,-3.9774 c -1.16835,-1.8903 1.06035,-3.4369 4.95268,-3.4369 3.89229,0 7.0769,1.5466 7.0769,3.4369 0,1.8905 -2.2287,3.4371 -4.9527,3.4371 -2.72397,0 -5.90858,-1.5466 -7.07688,-3.4371 z m 231.99894,-6.874 c 0,-1.8903 1.4553,-3.437 3.2342,-3.437 1.7788,0 4.1901,1.5467 5.3584,3.437 1.1683,1.8904 -0.287,3.4371 -3.2342,3.4371 -2.9471,0 -5.3584,-1.5467 -5.3584,-3.4371 z m -399.8402,-2.2913 c -3.36839,-3.3684 -2.79188,-14.8938 0.74505,-14.8938 1.67001,0 3.77547,3.8667 4.67892,8.5926 1.59114,8.3235 -0.71835,11.0067 -5.42391,6.3012 z m 356.8774,-1.2285 c -10.0068,-2.6266 -9.9308,-2.6953 2.5778,-2.3278 7.0888,0.2085 12.8888,1.6093 12.8888,3.1132 0,3.0702 -0.9649,3.0213 -15.4666,-0.786 z m 187.4591,-2.2671 c -6.6716,-4.6729 -7.0588,-5.9449 -2.5741,-8.4547 6.6187,-3.704 16.1809,-0.2685 16.1809,5.8141 0,7.487 -5.2367,8.5032 -13.6068,2.6406 z m -235.57732,-1.0875 -13.74809,-2.4615 12.02957,-0.246 c 6.61627,-0.135 15.12284,1.083 18.90354,2.7078 8.0992,3.4803 2.2529,3.4803 -17.18502,0 z m -134.90313,-16.0243 c -4.91649,-1.9838 -5.84055,-8.0348 -1.227,-8.0348 1.68813,0 3.95956,2.3201 5.04769,5.1555 1.0881,2.8356 1.64021,5.0334 1.227,4.8842 -0.41325,-0.15 -2.68473,-1.0515 -5.04766,-2.0049 z m 126.31057,-8.0348 c 0,-1.8903 1.63794,-3.4369 3.63986,-3.4369 2.00194,0 2.68399,1.5466 1.51567,3.4369 -1.16835,1.8903 -2.80626,3.4371 -3.63985,3.4371 -0.8337,0 -1.51568,-1.5468 -1.51568,-3.4371 z m -274.96181,-6.874 c 4.40591,-2.8473 4.281,-3.3395 -0.8592,-3.3845 -3.30816,-0.03 -6.01479,-1.5991 -6.01479,-3.4896 0,-3.8062 10.23161,-4.5706 18.53418,-1.3845 4.58949,1.7612 4.66421,2.7365 0.52665,6.8741 -2.65192,2.652 -7.63885,4.798 -11.08197,4.7691 -5.29939,-0.045 -5.46897,-0.564 -1.10475,-3.3845 z m 65.30344,-6.8741 c 0,-4.3458 7.02346,-4.3458 13.74808,0 4.01745,2.5964 3.06905,3.3434 -4.29627,3.3845 -5.1985,0.03 -9.45181,-1.494 -9.45181,-3.3845 z m 33.5049,-2.7612 c -2.37912,-2.8666 -7.50845,-3.9847 -13.12595,-2.8612 -5.22097,1.044 -12.01362,-0.201 -15.65913,-2.8707 -5.70477,-4.1777 -4.18983,-4.6478 13.29663,-4.1256 10.85424,0.324 19.74752,1.645 19.76289,2.9353 0.0137,1.29 3.12123,3.3279 6.90195,4.5279 3.78072,1.2 6.87405,3.528 6.87405,5.1735 0,4.6133 -13.66099,2.5098 -18.05044,-2.7792 z m -118.77169,-4.3705 c 0.6774,-2.0322 2.3529,-3.5789 3.72342,-3.4371 1.37055,0.135 4.90313,0.258 7.85022,0.258 2.94713,0 4.4025,1.5466 3.23418,3.4369 -2.86744,4.6397 -16.36198,4.4048 -14.80782,-0.258 z m 59.20423,-0.204 c -1.70715,-2.7623 0.3186,-3.4425 6.64813,-2.2325 5.00684,0.957 9.10337,0.3165 9.10337,-1.4235 0,-1.7398 1.54665,-2.2074 3.43701,-1.0395 6.28312,3.8831 3.55779,7.1211 -6.64811,7.8989 -5.54683,0.423 -11.19,-1.02 -12.5404,-3.2043 z m 428.19411,-13.2872 c 0,-1.8903 1.638,-3.4369 3.6399,-3.4369 2.0019,0 2.684,1.5466 1.5157,3.4369 -1.1684,1.8905 -2.8063,3.4371 -3.6399,3.4371 -0.8336,0 -1.5157,-1.5466 -1.5157,-3.4371 z m -346.86783,-84.5145 c -0.15,-2.0596 -4.51776,-5.6794 -9.70781,-8.0442 l -9.43641,-4.2994 8.88611,-7.4226 c 22.23561,-18.5732 28.31391,-22.2382 33.60102,-20.2603 5.04099,1.886 5.08542,1.4295 0.4449,-4.5631 -4.77078,-6.1614 -4.70669,-6.3063 0.8592,-1.9412 9.51229,7.4601 7.10595,13.7342 -7.7333,20.1631 -7.56145,3.276 -13.7481,7.138 -13.7481,8.5824 0,1.4445 -2.70666,2.6754 -6.01479,2.7355 -5.565,0.105 -5.53816,0.471 0.3591,4.9377 3.50556,2.6556 5.56101,6.8598 4.56761,9.3425 -0.99345,2.4828 -1.92831,2.8291 -2.07753,0.7695 z m 157.18722,-0.3225 c 2.48109,-0.993 5.44555,-0.87 6.58764,0.2715 1.1421,1.1415 -0.88785,1.9545 -4.51107,1.8053 -4.00397,-0.165 -4.81838,-0.9795 -2.07657,-2.0765 z m -191.82881,-11.3982 c 0,-1.8904 1.54667,-3.4371 3.43703,-3.4371 1.89036,0 3.43702,1.5467 3.43702,3.4371 0,1.8903 -1.54666,3.437 -3.43702,3.437 -1.89036,0 -3.43703,-1.5467 -3.43703,-3.437 z m 204.43893,0.4755 c 1.57569,-2.7694 0.72909,-5.9269 -2.07351,-7.7332 -3.973,-2.5607 -3.90544,-3.5927 0.41895,-6.4017 3.94415,-2.562 5.42575,-1.6613 6.30575,3.8335 0.6327,3.9503 -0.7542,8.9372 -3.082,11.0822 -3.2248,2.9715 -3.59833,2.7856 -1.56914,-0.7815 z m -195.09652,-6.3322 c -4.22663,-6.5297 0.89025,-20.8174 8.13378,-22.7116 5.37081,-1.404 6.58297,0.12 6.58297,8.2679 0,5.4941 -1.4019,9.9893 -3.11526,9.9893 -1.71337,0 -2.27629,-3.48 -1.251,-7.7333 1.2867,-5.3372 0.7446,-6.6684 -1.74922,-4.2963 -1.98746,1.8903 -4.13312,7.3037 -4.76811,12.0296 -0.7506,5.5861 -2.09178,7.1446 -3.83322,4.4544 z m 176.25681,-6.3989 c 0,-5.41 7.63942,-15.1733 10.49281,-13.4099 3.89181,2.4053 -2.16064,15.3544 -7.17672,15.3544 -1.82385,0 -3.31609,-0.8745 -3.31609,-1.9445 z m -61.86641,-4.3567 c 0,-2.2055 -2.31999,-4.0099 -5.15553,-4.0099 -2.83554,0 -5.15553,-1.5466 -5.15553,-3.4371 0,-5.6536 9.40427,-3.8835 11.74277,2.2106 1.1919,3.106 1.35735,6.4572 0.36765,7.4468 -0.9897,0.99 -1.7994,-0.01 -1.7994,-2.2104 z m 27.76754,-9.4519 c 0.165,-4.0039 0.97935,-4.8183 2.07651,-2.0764 0.99285,2.481 0.87075,5.4454 -0.27105,6.5875 -1.1421,1.1415 -1.95443,-0.888 -1.80518,-4.5111 z m 27.22482,2.0049 c 0,-1.8903 1.54666,-3.4369 3.43702,-3.4369 1.89036,0 3.43703,1.5466 3.43703,3.4369 0,1.8905 -1.54667,3.4371 -3.43703,3.4371 -1.89036,0 -3.43702,-1.5466 -3.43702,-3.4371 z m 30.93315,-1.7184 c -2.3868,-2.8759 -2.759,-5.1556 -0.8416,-5.1556 1.8903,0 5.3624,2.32 7.7157,5.1556 2.3868,2.8758 2.759,5.1555 0.8416,5.1555 -1.8903,0 -5.3624,-2.32 -7.7157,-5.1555 z m 115.6326,-1.9453 c -4.6478,-3.656 -10.2313,-6.6473 -12.4076,-6.6473 -2.1764,0 -2.9855,-1.5718 -1.7982,-3.493 1.1874,-1.9212 3.9853,-2.3556 6.2177,-0.966 2.2323,1.3905 7.6621,2.062 12.0662,1.4925 6.8835,-0.8895 17.2819,7.0026 17.6609,13.4047 0.2777,4.6913 -14.1549,2.174 -21.739,-3.7917 z m 14.9743,0.2265 c 0,-1.8905 -2.7067,-3.4134 -6.0148,-3.3845 -5.1403,0.045 -5.2652,0.537 -0.8592,3.3845 6.4863,4.1917 6.874,4.1917 6.874,0 z m -54.9924,-6.8741 c 0,-1.8904 1.5467,-3.4371 3.437,-3.4371 1.8904,0 3.437,1.5467 3.437,3.4371 0,1.8903 -1.5466,3.437 -3.437,3.437 -1.8903,0 -3.437,-1.5467 -3.437,-3.437 z m -14.3925,-5.7849 c 2.481,-0.993 5.4455,-0.87 6.5876,0.2715 1.1421,1.1415 -0.8879,1.9545 -4.5111,1.8053 -4.0039,-0.165 -4.8184,-0.9795 -2.0765,-2.0766 z m -415.23527,-14.0872 c 0,-1.4775 4.25331,-3.0095 9.45182,-3.4031 7.23715,-0.5475 8.24385,0.075 4.29628,2.6348 -6.23023,4.0488 -13.7481,4.4689 -13.7481,0.768 z m 1.71852,-11.0607 c 1.16835,-1.8905 2.80626,-3.437095 3.63986,-3.437095 0.8337,0 1.51567,1.546595 1.51567,3.437095 0,1.8903 -1.63795,3.4369 -3.63987,3.4369 -2.00193,0 -2.68398,-1.5466 -1.51566,-3.4369 z m 496.00525,1.089 c 2.4811,-0.993 5.4456,-0.87 6.5876,0.2715 1.1421,1.1415 -0.8878,1.9543 -4.511,1.8051 -4.004,-0.165 -4.8184,-0.9795 -2.0766,-2.0765 z m -460.77577,-3.3654 c 2.36294,-0.953995 6.22959,-0.953995 8.59256,0 2.36293,0.954 0.4296,1.7337 -4.29629,1.7337 -4.7259,0 -6.65923,-0.78 -4.29627,-1.7337 z m 434.84867,-0.105 c 3.3441,-0.871495 7.9841,-0.814495 10.3111,0.12 2.327,0.942 -0.409,1.6545 -6.0802,1.5844 -5.6711,-0.075 -7.575,-0.84 -4.2309,-1.7118 z M 648.48999,91.580485 c 2.75272,-4.2534 9.97878,-10.2825 16.05796,-13.3981 6.07922,-3.1157 10.97559,-6.5957 10.8809,-7.7333 -0.0945,-1.1385 -0.1722,-8.2552 -0.1722,-15.8166 0,-13.5174 0.20985,-13.7481 12.49008,-13.7481 14.90895,0 38.75373,-6.3877 45.9393,-12.3067 3.84091,-3.1638 16.85211,-3.6699 51.02549,-1.9848 25.22845,1.2435 46.58634,1.1025 47.4619,-0.3165 0.87555,-1.4175 -2.4519,-2.5778 -7.39435,-2.5778 -8.10476,0 -8.8631,-1.095 -7.73025,-11.1702 1.08795,-9.6748001 2.69805,-11.3127001 12.02661,-12.23290015 9.90357,-0.9765 10.95526,-0.075 13.06543,11.17030015 l 2.29491,12.2328 20.92701,0 c 16.74164,0 20.0678,0.8595 16.63077,4.2963 -5.1678,5.1678 -25.32634,5.9225 -28.68412,1.074 -1.3149,-1.8988 -3.59018,-2.2531 -5.05601,-0.7875 -1.4658,1.4655 -0.64455,3.914 1.8252,5.4402 2.46968,1.5264 4.35824,3.7623 4.19675,4.9688 -0.8091,6.0454 0.093,6.9039 2.7877,2.6514 2.42297,-3.8247 5.28749,-3.9348 15.41397,-0.5925 18.08295,5.9679 15.26283,9.2403 -7.3249,8.4997 -10.8696,-0.357 -17.82957,0.06 -15.46659,0.936 11.71966,4.3197 1.33725,7.445 -25.05819,7.5429 -16.14491,0.06 -31.101,1.188 -33.23576,2.5077 -2.54548,1.5732 -3.12601,0.4305 -1.68664,-3.3205 1.69822,-4.4255 0.1848,-5.7194 -6.69086,-5.7194 -7.19337,0 -8.54317,-1.3095 -7.08792,-6.874 1.42065,-5.4323 0.105,-6.8741 -6.27033,-6.8741 -4.43736,0 -9.02383,-1.5466 -10.19215,-3.4369 -2.94459,-4.7645 -21.38719,-4.3235 -24.42016,0.5835 -1.671,2.7037 -0.6114,3.3021 3.23421,1.8264 3.62553,-1.392 5.71934,-0.465 5.71934,2.5311 0,3.0337 -2.46132,4.0822 -6.87404,2.9283 -5.32329,-1.392 -6.87405,-0.105 -6.87405,5.7033 0,4.1254 -1.60107,10.4925 -3.55795,14.1489 -3.01529,5.6341 -2.36004,6.7272 4.29628,7.1664 4.31984,0.285 12.10754,0.186 17.30605,-0.2205 13.83666,-1.08 11.58307,2.4693 -6.48391,10.2138 -15.06265,6.4566 -45.28563,12.1809 -74.52748,14.1156 -7.22163,0.4785 -13.88618,2.092 -14.81019,3.5871 -0.924,1.4955 -3.32402,2.7183 -5.3334,2.7183 -2.17938,0 -1.6341,-3.12 1.3515,-7.7333 z m 50.33355,-19.386 c 2.83261,-1.7947 3.3228,-3.7831 1.24875,-5.065 -1.87799,-1.161 -5.32583,0.1935 -7.66187,3.0075 -4.63783,5.5882 -1.00065,6.7552 6.41316,2.0575 z m 21.11445,-7.4538 c 0,-1.7788 -1.54667,-3.2341 -3.43703,-3.2341 -1.89036,0 -3.43702,2.4112 -3.43702,5.3583 0,2.9472 1.54666,4.4025 3.43702,3.2341 1.89036,-1.1685 3.43703,-3.5794 3.43703,-5.3583 z m 84.99471,-12.1848 c -1.1421,-1.1415 -4.10656,-1.2645 -6.58765,-0.2715 -2.74181,1.0965 -1.9274,1.9116 2.07657,2.0766 3.62317,0.15 5.65315,-0.663 4.51108,-1.8052 z m 33.76401,-4.5039 c -1.0686,-1.7289 -0.30345,-3.6898 1.70001,-4.3578 2.49008,-0.8295 2.5658,-3.9138 0.23925,-9.7453 -3.22672,-8.088 -3.41485,-8.1399 -3.62137,-1.0005 -0.12,4.1418 -1.92963,8.5884 -4.02182,9.8814 -2.65179,1.6389 -2.39154,3.246 0.8592,5.3058 6.02753,3.8193 7.24368,3.7983 4.84463,-0.09 z m 298.83949,45.6767 c -13.2326,-2.5616 -26.4924,-4.9814 -29.4663,-5.3772 -3.7147,-0.495 -4.9217,-3.2595 -3.8561,-8.8337 1.1675,-6.1071 -0.2577,-8.5866 -5.7632,-10.0263 -4.0228,-1.0515 -7.3379,-3.6655 -7.3669,-5.8081 -0.027,-2.1425 -1.5112,-1.5884 -3.2939,1.2315 -2.4955,3.9472 -4.1769,4.191 -7.3082,1.0605 -3.1312,-3.1313 -2.6969,-6.9542 1.8881,-16.6161 4.8291,-10.1766 7.3581,-12.173 13.3756,-10.5587 4.0814,1.095 12.4473,2.0118 18.591,2.0376 14.119,0.06 24.9184,10.5066 24.9184,24.1061 0,9.7632 -0.7412,10.3111 -13.9509,10.3111 -8.6657,0 -13.1249,1.3365 -11.7704,3.5282 1.1992,1.9404 3.9972,3.2242 6.2176,2.8528 2.2204,-0.3705 11.7704,0.6645 21.2222,2.3027 9.4518,1.6378 19.1184,2.6061 21.4814,2.1519 2.3629,-0.4545 4.2963,2.3352 4.2963,6.1989 0,3.8635 -1.16,6.8158 -2.5778,6.5607 -1.4178,-0.255 -13.4044,-2.5598 -26.6369,-5.1212 z m -22.3407,-40.1508 c 3.7666,1.062 3.6147,0.4725 -0.5638,-2.1884 -6.1204,-3.8973 -16.6213,-1.5397 -16.6213,3.7316 0,1.9255 2.3846,1.9638 6.0148,0.09 3.3081,-1.7015 8.3348,-2.4395 11.1703,-1.64 z m -380.16928,38.2497 c -0.96015,-1.5537 3.08712,-2.8248 8.99401,-2.8248 5.90693,0 13.73152,-1.6011 17.38796,-3.558 6.79616,-3.6372 9.85703,1.1685 3.31821,5.2102 -5.42262,3.3513 -27.80744,4.2351 -29.70018,1.173 z m 338.92498,-9.6989 c 0,-4.1043 9.3526,-4.1043 18.9037,0 5.5142,2.3696 4.3244,3.0017 -6.0148,3.1955 -7.0889,0.135 -12.8889,-1.305 -12.8889,-3.1955 z m -284.66954,-7.6036 c 1.086,-7.6562 2.20042,-7.8782 42.35956,-8.4413 25.87182,-0.363 37.40115,0.447 30.9332,2.1711 l -10.31106,2.7494 11.17032,0.4065 c 6.14367,0.2235 11.17032,-0.921 11.17032,-2.5425 0,-1.6221 6.5733,-3.1151 14.60734,-3.3179 8.03403,-0.2025 22.06445,-0.6435 31.17872,-0.9795 11.43984,-0.4215 18.32316,1.1415 22.22844,5.0469 5.25141,5.2515 3.32373,5.6282 -26.88245,5.253 -34.65132,-0.4305 -106.29316,3.0732 -119.58036,5.8481 -6.72795,1.4055 -7.81326,0.4275 -6.87403,-6.1946 z m 215.92914,1.9255 c -2.8355,-0.9345 -8.73606,-3.4473 -13.11233,-5.5846 -6.09163,-2.9751 -8.57853,-2.8802 -10.60902,0.405 -1.65058,2.6709 -7.73148,3.7767 -16.1023,2.9286 -10.79894,-1.0935 -13.67531,-2.8844 -14.59236,-9.0818 -1.032,-6.9733 -0.12,-7.4941 9.45181,-5.392 6.16653,1.3545 10.59402,0.93 10.59402,-1.0155 0,-5.2304 -8.51995,-7.2282 -24.18126,-5.6702 -13.08334,1.302 -14.22006,0.798 -12.55764,-5.5587 1.51188,-5.7814 0.969,-6.277 -3.14031,-2.8666 -7.33323,6.0859 -10.2751,0.7785 -3.63532,-6.5577 3.13902,-3.4686 5.70729,-8.261 5.70729,-10.6497 0,-3.1326 5.50911,-4.0152 19.76289,-3.1665 18.11211,1.0785 19.85188,0.552 20.82846,-6.3068 1.85299,-13.0137001 8.87002,-15.7749001 19.27957,-7.5867 5.13942,4.0427 8.4747,9.4232 7.4677,12.0471 -1.26995,3.3098 1.0022,4.7532 7.5244,4.7796 5.1392,0.015 15.0015,0.9735 21.9162,2.1168 12.2896,2.0324 12.5672,2.4179 12.3445,17.1474 -0.2598,17.1833 1.7173,16.6244 -42.96103,12.1449 -13.70514,-1.374 -24.91842,-1.308 -24.91842,0.15 0,3.1553 9.47217,5.4576 32.36195,7.866 18.5738,1.9544 25.0642,4.9901 12.0329,5.628 -7.387,0.3615 -7.1651,0.6975 2.0049,3.0305 l 10.3111,2.6236 -10.3111,0.135 c -5.6711,0.075 -12.6311,-0.6285 -15.4666,-1.5631 z m -6.24389,-39.7477 c -2.46627,-2.4663 -4.06713,-2.6693 -4.06713,-0.516 0,4.5876 4.06466,8.6523 6.35842,6.3585 0.9767,-0.9765 -0.054,-3.606 -2.29129,-5.843 z m -5.15628,-17.0849 c -1.0971,-2.7418 -1.91161,-1.9275 -2.07651,2.0765 -0.15,3.6232 0.66315,5.6532 1.80518,4.5111 1.1421,-1.1415 1.2642,-4.1066 0.2712,-6.5876 z m -9.22191,-1.074 c 0,-2.8354 -1.54666,-5.1555 -3.43702,-5.1555 -1.89036,0 -3.43703,2.3201 -3.43703,5.1555 0,2.8356 1.54667,5.1555 3.43703,5.1555 1.89036,0 3.43702,-2.3199 3.43702,-5.1555 z m -221.68795,53.2739 c -1.16835,-1.8903 -0.4863,-3.437 1.51567,-3.437 2.00192,0 3.63986,1.5467 3.63986,3.437 0,1.8904 -0.68205,3.4371 -1.51566,3.4371 -0.83355,0 -2.47155,-1.5467 -3.63987,-3.4371 z m -15.46661,-34.4781 c 0,-1.8311 2.31999,-3.3291 5.15555,-3.3291 2.83554,0 5.15553,0.6075 5.15553,1.3515 0,0.7425 -2.31999,2.241 -5.15553,3.3291 -2.83556,1.0875 -5.15555,0.48 -5.15555,-1.35 z" />
</svg>
