<?xml version="1.0" encoding="UTF-8" standalone="no"?>
<!-- Created by diasvg.py -->
<svg width="25.320cm" height="18.835cm" viewBox="30.000 10.769 55.320 29.604"
 xmlns="http://www.w3.org/2000/svg"
 xmlns:xlink="http://www.w3.org/1999/xlink">
<rect x="37.500" y="19.500" width="4.000" height="2.000" fill="#586681" stroke="none" stroke-width="0"/>
<rect x="37.500" y="19.500" width="4.000" height="2.000" fill="none" stroke="#586681" stroke-width="0.001" />
<text x="39.500" y="20.749"  fill="#93B449" text-anchor="middle" font-size="0.80" font-family="Roboto Condensed" font-style="normal" font-weight="400">
DALPHI</text>
<rect x="43.000" y="23.000" width="4.000" height="2.000" fill="#F5F5F5" stroke="none" stroke-width="0"/>
<rect x="43.000" y="23.000" width="4.000" height="2.000" fill="none" stroke="#F5F5F5" stroke-width="0.001" />
<text x="45.000" y="24.249"  fill="#000000" text-anchor="middle" font-size="0.80" font-family="Roboto Condensed" font-style="normal" font-weight="400">
MERGE</text>
<rect x="32.000" y="16.000" width="4.000" height="2.000" fill="#F5F5F5" stroke="none" stroke-width="0"/>
<rect x="32.000" y="16.000" width="4.000" height="2.000" fill="none" stroke="#F5F5F5" stroke-width="0.001" />
<text x="34.000" y="17.249"  fill="#000000" text-anchor="middle" font-size="0.80" font-family="Roboto Condensed" font-style="normal" font-weight="400">
ITERATE</text>
<path stroke="#000000" fill="none" stroke-width="0.050"  d ="M 35.145,18.195 A 5.842,5.842 0 0,0 37.500,20.000 "/>
<polygon fill="#000000" stroke="none" stroke-width="0.050" points="35.032,18.046 35.279,18.177 35.141,18.198 35.076,18.322 "/>
<polygon fill="none" stroke="#000000" stroke-width="0.050"  points="35.032,18.046 35.279,18.177 35.141,18.198 35.076,18.322 "/>
<path stroke="#000000" fill="none" stroke-width="0.050"  d ="M 38.355,19.305 A 5.842,5.842 0 0,0 36.000,17.500 "/>
<polygon fill="#000000" stroke="none" stroke-width="0.050" points="38.468,19.454 38.221,19.323 38.359,19.302 38.424,19.178 "/>
<polygon fill="none" stroke="#000000" stroke-width="0.050"  points="38.468,19.454 38.221,19.323 38.359,19.302 38.424,19.178 "/>
<rect x="43.000" y="16.000" width="4.000" height="2.000" fill="#ABB2C0" stroke="none" stroke-width="0"/>
<rect x="43.000" y="16.000" width="4.000" height="2.000" fill="none" stroke="#ABB2C0" stroke-width="0.001" stroke-dasharray="0.10,0.10"/>
<text x="45.000" y="16.849"  fill="#000000" text-anchor="middle" font-size="0.80" font-family="Roboto Condensed" font-style="normal" font-weight="400">
USER</text>
<text x="45.000" y="17.649"  fill="#000000" text-anchor="middle" font-size="0.80" font-family="Roboto Condensed" font-style="normal" font-weight="400">
INTERFACE</text>
<path stroke="#000000" fill="none" stroke-width="0.050"  d ="M 42.778,17.599 A 5.842,5.842 0 0,0 40.500,19.500 "/>
<polygon fill="#000000" stroke="none" stroke-width="0.050" points="42.948,17.522 42.766,17.734 42.776,17.594 42.670,17.503 "/>
<polygon fill="none" stroke="#000000" stroke-width="0.050"  points="42.948,17.522 42.766,17.734 42.776,17.594 42.670,17.503 "/>
<path stroke="#000000" fill="none" stroke-width="0.050"  d ="M 41.722,19.901 A 5.842,5.842 0 0,0 44.000,18.000 "/>
<polygon fill="#000000" stroke="none" stroke-width="0.050" points="41.552,19.978 41.734,19.766 41.724,19.906 41.830,19.997 "/>
<polygon fill="none" stroke="#000000" stroke-width="0.050"  points="41.552,19.978 41.734,19.766 41.724,19.906 41.830,19.997 "/>
<rect x="32.000" y="23.000" width="4.000" height="2.000" fill="#F5F5F5" stroke="none" stroke-width="0"/>
<rect x="32.000" y="23.000" width="4.000" height="2.000" fill="none" stroke="#F5F5F5" stroke-width="0.001" />
<text x="34.000" y="23.849"  fill="#000000" text-anchor="middle" font-size="0.80" font-family="Roboto Condensed" font-style="normal" font-weight="400">
MACHINE</text>
<text x="34.000" y="24.649"  fill="#000000" text-anchor="middle" font-size="0.80" font-family="Roboto Condensed" font-style="normal" font-weight="400">
LEARNING</text>
<path stroke="#000000" fill="none" stroke-width="0.050"  d ="M 43.855,22.805 A 5.842,5.842 0 0,0 41.500,21.000 "/>
<polygon fill="#000000" stroke="none" stroke-width="0.050" points="43.968,22.954 43.721,22.823 43.859,22.802 43.924,22.678 "/>
<polygon fill="none" stroke="#000000" stroke-width="0.050"  points="43.968,22.954 43.721,22.823 43.859,22.802 43.924,22.678 "/>
<path stroke="#000000" fill="none" stroke-width="0.050"  d ="M 40.645,21.695 A 5.842,5.842 0 0,0 43.000,23.500 "/>
<polygon fill="#000000" stroke="none" stroke-width="0.050" points="40.532,21.546 40.779,21.677 40.641,21.698 40.576,21.822 "/>
<polygon fill="none" stroke="#000000" stroke-width="0.050"  points="40.532,21.546 40.779,21.677 40.641,21.698 40.576,21.822 "/>
<path stroke="#000000" fill="none" stroke-width="0.050"  d ="M 36.222,23.401 A 5.842,5.842 0 0,0 38.500,21.500 "/>
<polygon fill="#000000" stroke="none" stroke-width="0.050" points="36.052,23.478 36.234,23.266 36.224,23.406 36.330,23.497 "/>
<polygon fill="none" stroke="#000000" stroke-width="0.050"  points="36.052,23.478 36.234,23.266 36.224,23.406 36.330,23.497 "/>
<path stroke="#000000" fill="none" stroke-width="0.050"  d ="M 37.278,21.099 A 5.842,5.842 0 0,0 35.000,23.000 "/>
<polygon fill="#000000" stroke="none" stroke-width="0.050" points="37.448,21.022 37.266,21.234 37.276,21.094 37.170,21.003 "/>
<polygon fill="none" stroke="#000000" stroke-width="0.050"  points="37.448,21.022 37.266,21.234 37.276,21.094 37.170,21.003 "/>
<path stroke="#000000" fill="none" stroke-width="0.080" stroke-dasharray="0.10,0.10" d ="M 30.828,16.931 A 9.378,9.378 0 0,0 31.761,15.074 "/>
<polyline fill="none" stroke="#000000" stroke-width="0.080"  points="31.408,15.159 31.750,15.067 31.841,15.408 "/>
<polygon fill="#000000" stroke="none" stroke-width="0.080" points="30.965,16.582 30.998,17.140 30.817,16.927 30.538,16.944 "/>
<polygon fill="none" stroke="#000000" stroke-width="0.080"  points="30.965,16.582 30.998,17.140 30.817,16.927 30.538,16.944 "/>
<rect x="49.500" y="22.000" width="1.500" height="1.500" fill="#F5F5F5" stroke="none" stroke-width="0"/>
<rect x="49.500" y="22.000" width="1.500" height="1.500" fill="none" stroke="#F5F5F5" stroke-width="0.001" />
<text x="51.000" y="22.999"  fill="#000000" text-anchor="start" font-size="0.80" font-family="Roboto" font-style="normal" font-weight="400">
  Service</text>
<rect x="49.500" y="24.000" width="1.500" height="1.500" fill="#ABB2C0" stroke="none" stroke-width="0"/>
<rect x="49.500" y="24.000" width="1.500" height="1.500" fill="none" stroke="#ABB2C0" stroke-width="0.001" stroke-dasharray="0.10,0.10"/>
<rect x="49.500" y="26.000" width="1.500" height="1.500" fill="#586681" stroke="none" stroke-width="0"/>
<rect x="49.500" y="26.000" width="1.500" height="1.500" fill="none" stroke="#586681" stroke-width="0.001" />
<text x="51.000" y="24.999"  fill="#000000" text-anchor="start" font-size="0.80" font-family="Roboto" font-style="normal" font-weight="400">
  User Interface</text>
<text x="51.000" y="26.999"  fill="#000000" text-anchor="start" font-size="0.80" font-family="Roboto" font-style="normal" font-weight="400">
  DALPHI</text>
<text x="36.190" y="17.375"  fill="#000000" text-anchor="start" font-size="0.56" font-family="Roboto" font-style="normal" font-weight="400">
Annotation</text>
<text x="36.190" y="17.940"  fill="#000000" text-anchor="start" font-size="0.56" font-family="Roboto" font-style="normal" font-weight="400">
       documents,</text>
<text x="36.190" y="18.504"  fill="#000000" text-anchor="start" font-size="0.56" font-family="Roboto" font-style="normal" font-weight="400">
              Statistics</text>
<text x="36.977" y="20.130"  fill="#000000" text-anchor="end" font-size="0.56" font-family="Roboto" font-style="normal" font-weight="400">
Raw data</text>
<text x="42.844" y="17.394"  fill="#000000" text-anchor="end" font-size="0.56" font-family="Roboto" font-style="normal" font-weight="400">
Annotation</text>
<text x="42.844" y="17.958"  fill="#000000" text-anchor="end" font-size="0.56" font-family="Roboto" font-style="normal" font-weight="400">
documents       </text>
<text x="43.317" y="18.657"  fill="#000000" text-anchor="start" font-size="0.56" font-family="Roboto" font-style="normal" font-weight="400">
     Annotation</text>
<text x="43.317" y="19.222"  fill="#000000" text-anchor="start" font-size="0.56" font-family="Roboto" font-style="normal" font-weight="400">
documents</text>
<text x="41.931" y="21.093"  fill="#000000" text-anchor="start" font-size="0.56" font-family="Roboto" font-style="normal" font-weight="400">
Annotation documents,</text>
<text x="41.931" y="21.657"  fill="#000000" text-anchor="start" font-size="0.56" font-family="Roboto" font-style="normal" font-weight="400">
        Raw data</text>
<text x="42.092" y="23.447"  fill="#000000" text-anchor="end" font-size="0.56" font-family="Roboto" font-style="normal" font-weight="400">
Raw data</text>
<path stroke="#000000" fill="none" stroke-width="0.050"  d ="M 50.902,29.278 A 2.627,2.627 0 0,0 49.500,28.000 "/>
<polygon fill="#000000" stroke="none" stroke-width="0.050" points="50.980,29.448 50.773,29.260 50.912,29.273 51.006,29.170 "/>
<polygon fill="none" stroke="#000000" stroke-width="0.050"  points="50.980,29.448 50.773,29.260 50.912,29.273 51.006,29.170 "/>
<text x="51.000" y="28.999"  fill="#000000" text-anchor="start" font-size="0.80" font-family="Roboto" font-style="normal" font-weight="400">
  Data flow</text>
<text x="30.000" y="15.000"  fill="#000000" text-anchor="start" font-size="0.80" font-family="Roboto" font-style="normal" font-weight="400">
Time</text>
<text x="38.092" y="22.497"  fill="#000000" text-anchor="start" font-size="0.56" font-family="Roboto" font-style="normal" font-weight="400">
Raw data</text>
<text x="35.317" y="22.378"  fill="#000000" text-anchor="end" font-size="0.56" font-family="Roboto" font-style="normal" font-weight="400">
Statistics</text>
</svg>